if (_typeface_js && _typeface_js.loadFace) _typeface_js.loadFace({"glyphs":{"0":{"ha":772,"x_min":60,"x_max":761,"o":"m 496 970 q 691 886 621 970 q 761 654 761 803 q 708 318 761 480 q 558 71 655 155 q 323 -14 461 -14 q 130 74 200 -14 q 60 315 60 161 q 91 564 60 437 q 175 782 121 690 q 308 922 229 874 q 496 970 388 970 m 333 86 q 500 158 435 86 q 604 381 565 230 q 642 660 642 533 q 602 818 642 765 q 488 871 562 871 q 321 799 386 871 q 218 575 256 727 q 179 297 179 424 q 219 139 179 192 q 333 86 260 86 z "},"1":{"ha":772,"x_min":36,"x_max":655,"o":"m 36 0 l 56 104 l 300 104 l 441 829 l 196 678 l 220 800 l 475 956 l 588 956 l 422 104 l 655 104 l 635 0 l 36 0 z "},"2":{"ha":772,"x_min":-8,"x_max":752,"o":"m -8 0 l 8 86 q 92 199 45 149 q 188 289 138 248 q 290 362 238 329 q 390 426 342 395 q 481 488 439 457 q 555 553 524 518 q 606 628 587 587 q 624 721 624 669 q 582 828 624 787 q 467 869 539 869 q 338 829 393 869 q 258 708 283 789 l 143 733 q 264 909 180 848 q 475 970 348 970 q 675 903 598 970 q 752 731 752 837 q 718 593 752 659 q 613 467 683 528 q 404 319 544 407 q 243 204 304 256 q 151 104 182 153 l 644 104 l 624 0 l -8 0 z "},"3":{"ha":772,"x_min":33,"x_max":760,"o":"m 384 539 q 569 589 508 539 q 631 733 631 638 q 590 833 631 796 q 480 869 549 869 q 341 828 399 869 q 260 711 283 787 l 140 721 q 270 908 179 847 q 487 970 360 970 q 687 907 614 970 q 760 736 760 845 q 695 567 760 633 q 511 486 629 502 l 510 484 q 648 413 599 466 q 698 276 698 359 q 657 125 698 191 q 538 23 616 59 q 357 -14 460 -14 q 203 16 270 -14 q 93 101 137 46 q 33 229 50 155 l 144 262 q 224 135 164 183 q 367 87 283 87 q 516 138 463 87 q 570 274 570 189 q 519 392 570 350 q 381 433 469 433 l 297 433 l 317 539 l 384 539 z "},"4":{"ha":772,"x_min":9,"x_max":720,"o":"m 574 216 l 532 0 l 410 0 l 452 216 l 9 216 l 27 311 l 583 956 l 718 956 l 593 313 l 720 313 l 701 216 l 574 216 m 560 785 l 154 313 l 471 313 l 560 785 z "},"5":{"ha":772,"x_min":31,"x_max":776,"o":"m 233 956 l 776 956 l 756 852 l 324 852 l 247 549 q 330 593 281 577 q 435 610 378 610 q 636 537 559 610 q 713 343 713 465 q 615 81 713 176 q 342 -14 517 -14 q 31 210 91 -14 l 142 239 q 216 124 163 161 q 349 86 270 86 q 523 150 462 86 q 584 330 584 213 q 537 461 584 412 q 412 510 490 510 q 220 441 301 510 l 101 441 l 233 956 z "},"6":{"ha":772,"x_min":78,"x_max":772,"o":"m 362 -14 q 155 77 231 -14 q 78 315 78 168 q 135 638 78 478 q 290 884 191 798 q 516 970 388 970 q 683 921 618 970 q 772 781 749 873 l 660 756 q 604 841 643 811 q 511 871 566 871 q 321 772 399 871 q 208 492 243 673 q 311 586 249 553 q 450 618 373 618 q 638 547 566 618 q 710 361 710 475 q 665 171 710 258 q 540 35 620 84 q 362 -14 460 -14 m 195 286 q 241 141 195 197 q 365 85 288 85 q 522 161 459 85 q 584 354 584 237 q 544 478 584 432 q 427 524 503 524 q 311 495 364 524 q 227 413 258 466 q 195 286 195 360 z "},"7":{"ha":772,"x_min":144,"x_max":815,"o":"m 295 0 l 168 0 q 252 263 195 138 q 393 511 309 388 q 669 852 477 633 l 144 852 l 163 956 l 815 956 l 796 857 q 587 604 645 679 q 484 459 530 530 q 401 316 437 389 q 339 165 366 244 q 295 0 312 87 z "},"8":{"ha":772,"x_min":37,"x_max":764,"o":"m 477 969 q 686 907 607 969 q 764 740 764 845 q 706 578 764 645 q 547 497 647 512 l 547 494 q 661 420 621 472 q 701 293 701 368 q 604 69 701 152 q 339 -14 508 -14 q 116 55 195 -14 q 37 244 37 123 q 98 416 37 346 q 279 513 160 486 l 279 515 q 183 592 217 541 q 149 713 149 644 q 237 901 149 833 q 477 969 326 969 m 446 550 q 588 598 537 550 q 638 737 638 647 q 594 841 638 804 q 463 878 549 878 q 322 832 373 878 q 271 701 271 787 q 318 590 271 631 q 446 550 364 550 m 384 456 q 220 399 278 456 q 162 241 162 343 q 212 122 162 165 q 352 79 262 79 q 514 138 452 79 q 576 296 576 196 q 525 413 576 371 q 384 456 473 456 z "},"9":{"ha":772,"x_min":47,"x_max":744,"o":"m 609 464 q 379 326 518 326 q 238 361 299 326 q 144 458 177 396 q 111 597 111 521 q 155 786 111 701 q 281 921 200 872 q 463 970 362 970 q 670 884 595 970 q 744 649 744 798 q 719 430 744 544 q 650 231 693 315 q 553 91 608 146 q 436 12 499 37 q 307 -14 373 -14 q 47 174 98 -14 l 155 205 q 211 116 171 147 q 313 85 251 85 q 495 183 420 85 q 609 464 571 281 m 627 690 q 581 821 627 772 q 460 871 534 871 q 297 798 359 871 q 235 596 235 724 q 277 468 235 513 q 393 422 320 422 q 513 457 457 422 q 598 549 569 492 q 627 690 627 607 z "}," ":{"ha":386,"x_min":0,"x_max":0,"o":""},"!":{"ha":386,"x_min":52,"x_max":372,"o":"m 223 269 l 123 269 l 239 956 l 372 956 l 223 269 m 52 0 l 79 136 l 211 136 l 184 0 l 52 0 z "},"\"":{"ha":493,"x_min":127,"x_max":545,"o":"m 473 655 l 376 655 l 420 956 l 545 956 l 473 655 m 222 655 l 127 655 l 170 956 l 294 956 l 222 655 z "},"#":{"ha":772,"x_min":26,"x_max":786,"o":"m 628 600 l 575 350 l 751 350 l 751 277 l 559 277 l 500 0 l 425 0 l 484 277 l 237 277 l 180 0 l 106 0 l 163 277 l 26 277 l 26 350 l 179 350 l 232 600 l 61 600 l 61 673 l 247 673 l 307 950 l 382 950 l 322 673 l 568 673 l 628 950 l 703 950 l 643 673 l 786 673 l 786 600 l 628 600 m 309 600 l 254 350 l 500 350 l 553 600 l 309 600 z "},"$":{"ha":772,"x_min":-8,"x_max":793,"o":"m 727 288 q 634 91 727 163 q 366 14 541 20 l 345 -95 l 268 -95 l 290 16 q 82 86 153 25 q -8 255 10 147 l 102 280 q 169 162 119 202 q 309 115 218 122 l 374 450 q 223 508 273 477 q 149 583 174 539 q 123 690 123 627 q 167 822 123 766 q 290 908 211 878 q 469 939 369 939 l 486 1028 l 563 1028 l 545 935 q 713 871 650 922 q 793 737 776 821 l 688 707 q 526 838 657 820 l 468 539 q 664 441 601 503 q 727 288 727 378 m 602 280 q 567 367 602 333 q 447 429 533 401 l 386 115 q 602 280 602 126 m 246 690 q 277 616 246 645 q 395 559 307 587 l 450 841 q 299 799 351 838 q 246 690 246 760 z "},"%":{"ha":1235,"x_min":99,"x_max":1175,"o":"m 288 0 l 176 0 l 981 956 l 1094 956 l 288 0 m 370 964 q 500 910 454 964 q 545 755 545 857 q 527 605 545 683 q 471 470 509 526 q 385 384 434 413 q 275 355 336 355 q 145 411 191 355 q 99 570 99 467 q 131 767 99 670 q 222 913 162 863 q 370 964 281 964 m 369 890 q 294 869 323 890 q 243 803 265 848 q 207 686 222 758 q 193 561 193 613 q 278 432 193 432 q 373 477 336 432 q 431 612 410 523 q 451 767 451 702 q 369 890 451 890 m 1000 600 q 1130 547 1084 600 q 1175 391 1175 493 q 1157 241 1175 319 q 1101 106 1139 163 q 1015 21 1064 50 q 905 -8 966 -8 q 775 48 821 -8 q 729 207 729 104 q 761 403 729 307 q 852 550 792 500 q 1000 600 911 600 m 999 527 q 924 506 954 527 q 873 440 895 485 q 837 322 852 395 q 823 197 823 250 q 908 68 823 68 q 1003 114 966 68 q 1061 249 1040 159 q 1081 404 1081 338 q 999 527 1081 527 z "},"&":{"ha":926,"x_min":22,"x_max":852,"o":"m 846 464 q 649 141 752 250 q 710 101 676 115 q 776 87 745 87 q 852 98 817 87 l 843 7 q 758 -8 802 -8 q 574 75 657 -8 q 298 -14 454 -14 q 96 55 170 -14 q 22 238 22 123 q 85 414 22 345 q 313 547 149 484 q 294 703 294 627 q 368 890 294 820 q 565 961 441 961 q 717 912 659 961 q 776 783 776 863 q 721 646 776 705 q 523 532 665 588 l 438 498 q 586 214 490 346 q 665 323 627 260 q 757 501 704 387 l 846 464 m 307 75 q 511 144 417 75 q 416 288 461 205 q 340 458 370 371 q 182 364 227 413 q 138 240 138 315 q 184 120 138 165 q 307 75 231 75 m 401 706 q 414 585 401 653 q 515 623 468 605 q 596 662 562 640 q 651 711 631 684 q 671 779 671 739 q 641 851 671 823 q 560 879 610 879 q 443 833 484 879 q 401 706 401 787 z "},"'":{"ha":265,"x_min":137,"x_max":304,"o":"m 233 655 l 137 655 l 180 956 l 304 956 l 233 655 z "},"(":{"ha":463,"x_min":65,"x_max":580,"o":"m 580 1006 q 188 178 188 661 q 328 -288 188 -86 l 210 -288 q 65 189 65 -87 q 167 649 65 441 q 462 1006 269 857 l 580 1006 z "},")":{"ha":463,"x_min":-135,"x_max":380,"o":"m -135 -288 q 257 541 257 58 q 117 1006 257 805 l 235 1006 q 380 530 380 806 q 278 70 380 278 q -17 -288 176 -138 l -135 -288 z "},"*":{"ha":541,"x_min":81,"x_max":578,"o":"m 368 755 l 547 825 l 578 736 l 387 686 l 512 517 l 431 468 l 330 643 l 224 469 l 143 518 l 271 686 l 81 736 l 112 827 l 293 754 l 285 956 l 377 956 l 368 755 z "},"+":{"ha":811,"x_min":88,"x_max":763,"o":"m 475 412 l 475 122 l 376 122 l 376 412 l 88 412 l 88 511 l 376 511 l 376 802 l 475 802 l 475 511 l 763 511 l 763 412 l 475 412 z "},",":{"ha":386,"x_min":25,"x_max":224,"o":"m 109 -178 l 25 -178 q 123 0 106 -85 l 64 0 l 92 149 l 224 149 l 203 35 q 168 -81 191 -30 q 109 -178 146 -132 z "},"-":{"ha":463,"x_min":71,"x_max":431,"o":"m 71 315 l 92 423 l 431 423 l 410 315 l 71 315 z "},".":{"ha":386,"x_min":54,"x_max":216,"o":"m 54 0 l 83 149 l 216 149 l 186 0 l 54 0 z "},"/":{"ha":386,"x_min":-79,"x_max":505,"o":"m -79 -14 l 398 1006 l 505 1006 l 31 -14 l -79 -14 z "},":":{"ha":386,"x_min":55,"x_max":330,"o":"m 170 593 l 198 734 l 330 734 l 302 593 l 170 593 m 55 0 l 83 140 l 215 140 l 187 0 l 55 0 z "},";":{"ha":386,"x_min":26,"x_max":339,"o":"m 109 -178 l 26 -178 q 124 0 107 -85 l 64 0 l 92 140 l 224 140 l 203 35 q 169 -81 191 -30 q 109 -178 146 -132 m 180 593 l 207 734 l 339 734 l 312 593 l 180 593 z "},"<":{"ha":811,"x_min":89,"x_max":764,"o":"m 89 387 l 89 526 l 764 810 l 764 705 l 182 457 l 764 208 l 764 104 l 89 387 z "},"=":{"ha":811,"x_min":88,"x_max":763,"o":"m 88 581 l 88 681 l 763 681 l 763 581 l 88 581 m 88 233 l 88 334 l 763 334 l 763 233 l 88 233 z "},">":{"ha":811,"x_min":89,"x_max":764,"o":"m 89 104 l 89 208 l 671 457 l 89 705 l 89 810 l 764 526 l 764 387 l 89 104 z "},"?":{"ha":772,"x_min":108,"x_max":768,"o":"m 475 970 q 689 902 609 970 q 768 728 768 834 q 748 615 768 662 q 694 535 727 569 q 620 475 661 500 q 538 427 579 450 q 419 340 452 378 q 376 256 386 302 l 258 256 q 290 350 267 310 q 350 422 314 391 q 476 506 385 454 q 579 575 548 547 q 626 637 610 603 q 642 713 642 671 q 592 821 642 780 q 464 861 543 861 q 307 814 369 861 q 220 684 245 766 l 108 711 q 243 906 151 843 q 475 970 336 970 m 203 0 l 229 136 l 361 136 l 335 0 l 203 0 z "},"@":{"ha":1410,"x_min":132,"x_max":1312,"o":"m 1312 512 q 1273 284 1312 386 q 1165 126 1234 182 q 1009 71 1095 71 q 905 101 941 71 q 869 190 869 132 l 871 237 l 867 237 q 756 112 822 154 q 613 71 690 71 q 448 140 507 71 q 389 332 389 209 q 433 538 389 443 q 555 690 477 634 q 730 747 634 747 q 934 623 878 747 l 938 623 l 964 732 l 1070 732 l 991 389 q 966 217 966 277 q 1021 153 966 153 q 1121 200 1076 153 q 1194 329 1167 247 q 1220 511 1220 411 q 1168 726 1220 632 q 1017 870 1116 820 q 787 921 919 921 q 497 848 623 921 q 299 639 371 776 q 227 333 227 503 q 280 102 227 202 q 434 -52 334 2 q 669 -105 535 -105 q 1078 5 882 -105 l 1116 -71 q 902 -161 1017 -130 q 669 -192 787 -192 q 385 -127 507 -192 q 197 57 263 -63 q 132 333 132 177 q 216 678 132 523 q 450 920 300 833 q 786 1006 600 1006 q 1068 945 949 1006 q 1250 772 1187 884 q 1312 512 1312 660 m 901 507 q 857 618 901 576 q 737 661 812 661 q 615 617 669 661 q 532 497 562 574 q 501 333 501 420 q 533 205 501 252 q 633 159 566 159 q 736 189 687 159 q 823 272 786 219 q 881 391 861 324 q 901 507 901 458 z "},"A":{"ha":926,"x_min":-68,"x_max":852,"o":"m 720 0 l 669 279 l 235 279 l 73 0 l -68 0 l 507 956 l 654 956 l 852 0 l 720 0 m 563 858 q 538 811 554 840 q 292 380 522 782 l 650 380 l 581 755 l 563 858 z "},"B":{"ha":926,"x_min":43,"x_max":879,"o":"m 228 956 l 574 956 q 797 897 715 956 q 879 737 879 838 q 649 504 879 544 q 794 433 743 488 q 846 298 846 378 q 740 77 846 153 q 446 0 634 0 l 43 0 l 228 956 m 279 549 l 503 549 q 744 724 744 549 q 562 852 744 852 l 338 852 l 279 549 m 192 104 l 441 104 q 650 154 584 104 q 716 300 716 203 q 662 410 716 372 q 507 448 608 448 l 259 448 l 192 104 z "},"C":{"ha":1003,"x_min":77,"x_max":1010,"o":"m 921 229 q 727 44 836 101 q 475 -14 618 -14 q 261 36 352 -14 q 124 176 171 85 q 77 386 77 267 q 148 688 77 553 q 346 896 219 823 q 628 970 472 970 q 877 908 775 970 q 1010 736 978 847 l 888 699 q 794 819 864 774 q 621 864 724 864 q 401 804 496 864 q 256 635 307 744 q 205 384 205 526 q 279 170 205 248 q 484 92 353 92 q 671 141 584 92 q 824 289 758 191 l 921 229 z "},"D":{"ha":1003,"x_min":43,"x_max":958,"o":"m 505 956 q 837 844 716 956 q 958 536 958 732 q 888 256 958 376 q 687 68 819 136 q 390 0 556 0 l 43 0 l 228 956 l 505 956 m 192 104 l 385 104 q 618 156 517 104 q 773 308 719 209 q 827 538 827 406 q 741 769 827 686 q 502 852 656 852 l 338 852 l 192 104 z "},"E":{"ha":926,"x_min":43,"x_max":939,"o":"m 43 0 l 228 956 l 939 956 l 919 850 l 337 850 l 277 543 l 819 543 l 798 439 l 257 439 l 193 106 l 802 106 l 782 0 l 43 0 z "},"F":{"ha":848,"x_min":43,"x_max":913,"o":"m 337 850 l 268 494 l 808 494 l 787 387 l 247 387 l 172 0 l 43 0 l 228 956 l 913 956 l 893 850 l 337 850 z "},"G":{"ha":1080,"x_min":68,"x_max":1021,"o":"m 503 -14 q 182 92 296 -14 q 68 389 68 198 q 140 691 68 557 q 341 897 211 824 q 640 970 472 970 q 887 913 791 970 q 1021 745 983 856 l 890 708 q 799 825 865 786 q 632 864 733 864 q 404 806 502 864 q 254 640 306 747 q 201 391 201 532 q 281 170 201 248 q 507 92 361 92 q 686 118 601 92 q 835 197 772 145 l 869 370 l 584 370 l 606 478 l 1010 478 l 943 142 q 740 24 848 61 q 503 -14 633 -14 z "},"H":{"ha":1003,"x_min":43,"x_max":1004,"o":"m 692 0 l 779 443 l 258 443 l 172 0 l 43 0 l 229 956 l 358 956 l 279 551 l 800 551 l 878 956 l 1004 956 l 819 0 l 692 0 z "},"I":{"ha":386,"x_min":55,"x_max":370,"o":"m 55 0 l 241 956 l 370 956 l 184 0 l 55 0 z "},"J":{"ha":694,"x_min":-3,"x_max":705,"o":"m 258 -14 q 82 50 151 -14 q -3 233 14 113 l 111 255 q 164 134 126 176 q 270 92 202 92 q 385 141 341 92 q 450 298 429 190 l 556 850 l 359 850 l 379 956 l 705 956 l 574 287 q 468 61 545 135 q 258 -14 391 -14 z "},"K":{"ha":926,"x_min":43,"x_max":977,"o":"m 693 0 l 373 457 l 244 370 l 172 0 l 43 0 l 228 956 l 357 956 l 265 487 l 360 574 l 811 956 l 977 956 l 469 528 l 846 0 l 693 0 z "},"L":{"ha":772,"x_min":43,"x_max":675,"o":"m 43 0 l 228 956 l 357 956 l 193 106 l 675 106 l 655 0 l 43 0 z "},"M":{"ha":1157,"x_min":43,"x_max":1157,"o":"m 855 0 l 977 629 q 1021 833 1002 755 q 923 643 960 705 l 551 0 l 467 0 l 342 643 q 314 833 338 663 q 294 706 308 792 q 158 0 279 619 l 43 0 l 228 956 l 388 956 l 516 293 q 538 154 522 267 l 608 298 l 983 956 l 1157 956 l 972 0 l 855 0 z "},"N":{"ha":1003,"x_min":43,"x_max":1004,"o":"m 669 0 l 309 821 q 281 640 294 705 l 158 0 l 43 0 l 228 956 l 372 956 l 734 132 q 764 324 751 260 l 887 956 l 1004 956 l 819 0 l 669 0 z "},"O":{"ha":1080,"x_min":75,"x_max":1042,"o":"m 636 970 q 933 863 824 970 q 1042 577 1042 757 q 966 263 1038 395 q 767 58 893 130 q 481 -14 641 -14 q 182 93 288 -14 q 75 389 75 200 q 147 687 75 551 q 347 896 218 823 q 636 970 475 970 m 630 865 q 400 805 494 865 q 255 625 305 745 q 205 382 205 505 q 277 166 205 240 q 487 92 349 92 q 714 150 621 92 q 860 326 808 209 q 912 574 912 444 q 839 790 912 715 q 630 865 765 865 z "},"P":{"ha":926,"x_min":43,"x_max":918,"o":"m 578 956 q 826 885 734 956 q 918 692 918 814 q 814 457 918 543 q 532 372 711 372 l 244 372 l 172 0 l 43 0 l 228 956 l 578 956 m 264 475 l 527 475 q 786 686 786 475 q 732 809 786 766 q 574 852 679 852 l 338 852 l 264 475 z "},"Q":{"ha":1080,"x_min":68,"x_max":1035,"o":"m 629 970 q 926 863 817 970 q 1035 577 1035 757 q 971 287 1031 412 q 804 86 911 162 q 557 -8 697 10 q 603 -128 569 -90 q 704 -165 637 -165 q 787 -157 743 -165 l 775 -248 q 661 -262 724 -262 q 503 -204 558 -262 q 433 -12 448 -146 q 165 105 261 0 q 68 389 68 210 q 140 687 68 551 q 340 896 212 823 q 629 970 468 970 m 623 865 q 393 805 488 865 q 248 625 298 745 q 198 382 198 505 q 270 166 198 240 q 480 92 342 92 q 708 150 614 92 q 853 326 802 209 q 905 574 905 444 q 832 790 905 715 q 623 865 758 865 z "},"R":{"ha":1003,"x_min":43,"x_max":960,"o":"m 713 0 l 548 397 l 249 397 l 172 0 l 43 0 l 228 956 l 643 956 q 874 886 788 956 q 960 705 960 817 q 887 503 960 577 q 671 408 814 428 l 852 0 l 713 0 m 581 499 q 766 550 704 499 q 829 694 829 602 q 778 811 829 770 q 627 852 728 852 l 338 852 l 269 499 l 581 499 z "},"S":{"ha":926,"x_min":39,"x_max":911,"o":"m 418 -14 q 156 46 249 -14 q 39 229 62 106 l 159 254 q 241 127 178 167 q 427 88 304 88 q 644 133 576 88 q 713 269 713 177 q 693 341 713 314 q 626 391 673 369 q 463 446 578 413 q 289 511 347 477 q 202 592 232 545 q 173 706 173 640 q 277 900 173 829 q 559 970 381 970 q 798 918 708 970 q 911 768 888 867 l 794 733 q 714 838 772 804 q 558 872 656 872 q 303 712 303 872 q 320 646 303 671 q 377 601 338 620 q 535 549 417 581 q 725 479 667 513 q 814 396 783 445 q 845 277 845 348 q 740 62 845 137 q 418 -14 635 -14 z "},"T":{"ha":848,"x_min":125,"x_max":930,"o":"m 582 850 l 416 0 l 288 0 l 453 850 l 125 850 l 145 956 l 930 956 l 910 850 l 582 850 z "},"U":{"ha":1003,"x_min":104,"x_max":1010,"o":"m 444 -14 q 195 68 286 -14 q 104 292 104 150 q 109 364 104 322 q 119 431 114 406 l 221 956 l 351 956 l 241 384 q 229 287 229 325 q 289 143 229 195 q 454 92 348 92 q 767 367 715 92 l 881 956 l 1010 956 l 895 359 q 744 80 858 174 q 444 -14 630 -14 z "},"V":{"ha":926,"x_min":120,"x_max":1034,"o":"m 459 0 l 325 0 l 120 956 l 252 956 l 386 283 l 410 114 l 500 283 l 893 956 l 1034 956 l 459 0 z "},"W":{"ha":1311,"x_min":120,"x_max":1420,"o":"m 954 0 l 802 0 l 754 607 q 743 827 745 793 q 652 607 692 692 l 368 0 l 216 0 l 120 956 l 254 956 l 307 349 q 318 114 315 243 q 407 319 372 241 q 707 956 441 396 l 831 956 l 882 361 q 894 114 892 256 l 905 138 q 958 262 937 216 q 1284 956 978 309 l 1420 956 l 954 0 z "},"X":{"ha":926,"x_min":-26,"x_max":970,"o":"m 677 0 l 472 411 l 117 0 l -26 0 l 417 506 l 186 956 l 321 956 l 505 582 l 827 956 l 970 956 l 563 497 l 812 0 l 677 0 z "},"Y":{"ha":926,"x_min":144,"x_max":1010,"o":"m 456 0 l 327 0 l 405 396 l 144 956 l 277 956 l 485 498 l 865 956 l 1010 956 l 532 396 l 456 0 z "},"Z":{"ha":848,"x_min":-27,"x_max":887,"o":"m 734 0 l -27 0 l -9 97 l 706 850 l 187 850 l 208 956 l 887 956 l 869 861 l 154 106 l 754 106 l 734 0 z "},"[":{"ha":386,"x_min":-26,"x_max":500,"o":"m -26 -288 l 224 1006 l 500 1006 l 484 919 l 326 919 l 108 -201 l 266 -201 l 249 -288 l -26 -288 z "},"\\":{"ha":386,"x_min":99,"x_max":320,"o":"m 217 -14 l 99 1006 l 199 1006 l 320 -14 l 217 -14 z "},"]":{"ha":386,"x_min":-115,"x_max":412,"o":"m -115 -288 l -98 -201 l 60 -201 l 277 919 l 119 919 l 136 1006 l 412 1006 l 161 -288 l -115 -288 z "},"^":{"ha":652,"x_min":27,"x_max":665,"o":"m 554 456 l 345 886 l 137 456 l 27 456 l 277 956 l 414 956 l 665 456 l 554 456 z "},"_":{"ha":772,"x_min":-109,"x_max":690,"o":"m -109 -170 l -109 -118 l 690 -118 l 690 -170 l -109 -170 z "},"`":{"ha":463,"x_min":88,"x_max":341,"o":"m 279 814 l 88 1003 l 92 1023 l 232 1023 l 341 828 l 339 814 l 279 814 z "},"a":{"ha":772,"x_min":31,"x_max":725,"o":"m 629 -7 q 537 19 566 -7 q 508 97 508 45 l 511 140 l 507 140 q 391 21 451 55 q 245 -14 330 -14 q 91 43 150 -14 q 31 189 31 100 q 121 378 31 314 q 408 446 211 443 l 565 448 q 578 534 578 514 q 542 625 578 595 q 442 654 506 654 q 320 626 361 654 q 260 538 279 597 l 140 557 q 246 702 170 657 q 449 747 321 747 q 632 693 565 747 q 700 547 700 639 q 687 441 700 504 l 637 184 q 629 125 629 152 q 684 75 629 75 q 725 80 703 75 l 715 4 q 629 -7 671 -7 m 549 363 l 414 361 q 287 346 333 359 q 215 314 241 334 q 175 266 190 295 q 161 194 161 236 q 194 111 161 143 q 279 79 227 79 q 397 107 345 79 q 485 181 450 136 q 530 279 519 227 l 549 363 z "},"b":{"ha":772,"x_min":20,"x_max":730,"o":"m 505 747 q 670 683 611 747 q 730 507 730 619 q 688 240 730 370 q 571 49 646 111 q 378 -14 495 -14 q 242 22 294 -14 q 168 121 190 57 l 166 121 q 150 49 161 96 q 137 0 138 2 l 20 0 q 33 56 23 10 q 53 151 43 101 l 219 1006 l 341 1006 l 285 720 q 262 625 279 688 l 264 625 q 369 718 314 689 q 505 747 424 747 m 469 653 q 354 626 402 653 q 273 543 307 598 q 221 405 240 488 q 202 256 202 321 q 245 124 202 171 q 365 77 288 77 q 498 128 449 77 q 574 291 547 179 q 602 486 602 402 q 570 611 602 569 q 469 653 538 653 z "},"c":{"ha":694,"x_min":45,"x_max":679,"o":"m 318 83 q 514 239 457 83 l 620 205 q 315 -14 538 -14 q 115 60 185 -14 q 45 268 45 134 q 95 520 45 404 q 225 692 144 637 q 424 747 306 747 q 605 690 538 747 q 679 532 672 632 l 559 515 q 518 616 555 581 q 420 652 481 652 q 281 606 334 652 q 199 460 229 560 q 170 264 170 361 q 318 83 170 83 z "},"d":{"ha":772,"x_min":47,"x_max":809,"o":"m 272 -14 q 106 50 165 -14 q 47 226 47 114 q 89 493 47 363 q 206 684 130 622 q 399 747 281 747 q 535 711 482 747 q 609 612 587 676 l 612 612 l 631 722 l 687 1006 l 809 1006 l 643 151 q 617 0 623 56 l 500 0 q 515 109 500 35 l 511 109 q 407 15 462 44 q 272 -14 352 -14 m 307 80 q 422 107 374 80 q 503 190 470 135 q 555 329 536 245 q 574 477 574 412 q 531 609 574 562 q 412 656 488 656 q 281 607 329 656 q 203 447 233 558 q 174 248 174 335 q 206 122 174 164 q 307 80 238 80 z "},"e":{"ha":772,"x_min":47,"x_max":721,"o":"m 174 341 q 168 264 170 317 q 213 126 168 174 q 349 78 258 78 q 468 111 414 78 q 551 199 522 143 l 645 157 q 519 27 595 68 q 334 -14 443 -14 q 122 62 198 -14 q 47 275 47 138 q 95 519 47 411 q 231 687 143 627 q 427 747 318 747 q 644 677 566 747 q 721 480 721 608 q 705 341 721 409 l 174 341 m 597 435 l 600 484 q 556 612 600 568 q 430 657 512 657 q 277 599 339 657 q 190 435 215 541 l 597 435 z "},"f":{"ha":386,"x_min":47,"x_max":506,"o":"m 294 645 l 169 0 l 47 0 l 172 645 l 69 645 l 87 734 l 190 734 l 205 817 q 247 930 221 892 q 314 987 272 968 q 422 1006 356 1006 q 506 998 472 1006 l 488 905 l 458 909 l 427 911 q 361 889 384 911 q 325 800 338 867 l 312 734 l 455 734 l 437 645 l 294 645 z "},"g":{"ha":772,"x_min":3,"x_max":760,"o":"m 269 -288 q 3 -117 39 -288 l 113 -89 q 272 -195 137 -195 q 421 -145 368 -195 q 496 18 474 -96 l 519 136 l 517 136 q 443 50 475 76 q 371 9 411 23 q 278 -5 330 -5 q 111 63 174 -5 q 47 243 47 131 q 73 438 47 334 q 142 612 98 543 q 250 714 186 681 q 399 747 313 747 q 537 708 481 747 q 610 608 594 669 l 612 608 q 629 681 616 633 q 644 734 641 728 l 760 734 l 747 678 l 727 582 l 618 21 q 501 -216 585 -143 q 269 -288 417 -288 m 176 253 q 211 128 176 171 q 316 85 247 85 q 449 138 389 85 q 542 284 509 191 q 574 477 574 377 q 531 609 574 562 q 412 656 488 656 q 310 631 351 656 q 241 553 269 606 q 195 410 214 499 q 176 253 176 321 z "},"h":{"ha":772,"x_min":23,"x_max":709,"o":"m 260 608 q 373 716 316 686 q 507 747 429 747 q 658 697 608 747 q 709 554 709 648 q 694 443 709 511 l 608 0 l 486 0 l 571 437 q 583 539 583 497 q 462 652 583 652 q 311 587 376 652 q 224 411 246 522 l 144 0 l 23 0 l 218 1006 l 340 1006 l 290 745 q 258 608 277 677 l 260 608 z "},"i":{"ha":309,"x_min":22,"x_max":340,"o":"m 195 890 l 218 1006 l 340 1006 l 317 890 l 195 890 m 22 0 l 165 734 l 287 734 l 144 0 l 22 0 z "},"j":{"ha":309,"x_min":-155,"x_max":340,"o":"m 196 890 l 218 1006 l 340 1006 l 318 890 l 196 890 m -68 -288 q -155 -279 -106 -288 l -140 -186 q -83 -192 -104 -192 q -23 -163 -43 -192 q 9 -73 -3 -135 l 165 734 l 288 734 l 127 -91 q 58 -243 106 -198 q -68 -288 11 -288 z "},"k":{"ha":694,"x_min":23,"x_max":753,"o":"m 489 0 l 307 340 l 193 256 l 144 0 l 23 0 l 218 1006 l 340 1006 l 219 385 l 357 513 l 602 734 l 753 734 l 393 418 l 621 0 l 489 0 z "},"l":{"ha":309,"x_min":22,"x_max":340,"o":"m 22 0 l 218 1006 l 340 1006 l 144 0 l 22 0 z "},"m":{"ha":1157,"x_min":23,"x_max":1093,"o":"m 448 0 l 532 430 q 549 548 549 515 q 523 626 549 599 q 439 652 497 652 q 301 585 360 652 q 224 410 243 518 l 144 0 l 23 0 l 136 577 q 162 734 149 642 l 277 734 q 270 681 277 726 q 258 608 263 636 l 260 608 q 360 716 310 686 q 479 747 410 747 q 609 706 561 747 q 667 589 657 666 q 778 712 723 677 q 903 747 832 747 q 1043 697 994 747 q 1093 554 1093 648 q 1078 443 1093 511 l 992 0 l 871 0 l 956 430 q 972 548 972 515 q 947 626 972 599 q 863 652 921 652 q 726 586 784 652 q 648 412 667 520 l 568 0 l 448 0 z "},"n":{"ha":772,"x_min":23,"x_max":709,"o":"m 486 0 l 572 437 q 584 539 584 497 q 463 652 584 652 q 312 587 377 652 q 225 411 247 522 l 145 0 l 23 0 l 136 577 q 162 734 149 642 l 277 734 q 270 681 277 726 q 258 608 263 636 l 260 608 q 373 716 317 686 q 508 747 430 747 q 659 697 608 747 q 709 554 709 648 q 695 443 709 511 l 609 0 l 486 0 z "},"o":{"ha":772,"x_min":45,"x_max":728,"o":"m 728 463 q 701 280 728 375 q 624 118 674 184 q 500 19 573 52 q 333 -14 427 -14 q 123 66 200 -14 q 45 284 45 146 q 96 530 48 422 q 227 692 143 637 q 435 747 311 747 q 653 672 578 747 q 728 463 728 598 m 602 463 q 434 657 602 657 q 287 610 342 657 q 201 467 232 563 q 171 282 171 372 q 214 129 171 182 q 340 77 258 77 q 453 100 410 77 q 527 173 495 123 q 579 300 559 223 q 602 463 599 378 z "},"p":{"ha":772,"x_min":-35,"x_max":728,"o":"m 376 -14 q 240 22 292 -14 q 165 121 187 57 l 162 121 q 156 77 162 113 q 87 -288 151 40 l -35 -288 l 134 584 q 158 734 150 659 l 271 734 q 267 678 271 715 q 260 625 262 640 l 262 625 q 367 718 312 689 q 503 747 422 747 q 668 683 609 747 q 728 507 728 619 q 686 240 728 370 q 569 49 644 111 q 376 -14 493 -14 m 467 653 q 352 626 400 653 q 271 543 304 598 q 219 405 238 488 q 200 256 200 321 q 243 124 200 171 q 363 77 286 77 q 496 128 447 77 q 572 291 545 179 q 600 486 600 402 q 568 611 600 569 q 467 653 536 653 z "},"q":{"ha":772,"x_min":47,"x_max":763,"o":"m 272 -14 q 106 50 165 -14 q 47 226 47 114 q 89 493 47 363 q 206 684 130 622 q 399 747 281 747 q 535 711 482 747 q 609 612 587 676 l 612 612 q 631 692 620 649 q 646 743 642 736 l 763 743 q 719 543 747 690 l 557 -288 l 435 -288 l 493 9 l 515 109 l 512 109 q 408 15 463 44 q 272 -14 353 -14 m 307 80 q 422 107 374 80 q 503 190 470 135 q 555 329 536 245 q 574 477 574 412 q 531 609 574 562 q 412 656 488 656 q 281 607 329 656 q 203 447 233 558 q 174 248 174 335 q 206 122 174 164 q 307 80 238 80 z "},"r":{"ha":463,"x_min":23,"x_max":509,"o":"m 487 636 q 426 645 457 645 q 297 570 355 645 q 220 382 240 496 l 145 0 l 23 0 l 133 563 l 150 656 l 162 734 l 277 734 l 254 584 l 256 584 q 345 711 301 674 q 445 747 388 747 q 509 738 476 747 l 487 636 z "},"s":{"ha":694,"x_min":3,"x_max":666,"o":"m 615 215 q 531 46 615 105 q 288 -14 447 -14 q 101 26 170 -14 q 3 151 31 66 l 103 189 q 173 102 125 130 q 299 75 220 75 q 446 108 396 75 q 496 204 496 141 q 462 274 496 246 q 315 337 427 302 q 185 393 229 366 q 119 456 142 420 q 96 541 96 492 q 174 692 96 639 q 396 745 253 745 q 666 572 636 745 l 555 555 q 499 633 541 609 q 388 656 458 656 q 259 630 304 656 q 214 554 214 603 q 228 506 214 526 q 269 471 242 486 q 393 425 296 456 q 523 370 479 398 q 591 304 566 342 q 615 215 615 267 z "},"t":{"ha":386,"x_min":63,"x_max":434,"o":"m 186 -14 q 96 21 129 -14 q 63 113 63 56 q 73 201 63 150 l 159 645 l 74 645 l 92 734 l 178 734 l 249 898 l 330 898 l 298 734 l 434 734 l 416 645 l 281 645 l 196 208 q 188 143 188 167 q 249 83 188 83 q 317 93 277 83 l 304 3 q 186 -14 237 -14 z "},"u":{"ha":772,"x_min":58,"x_max":745,"o":"m 281 734 l 196 296 q 184 195 184 237 q 305 81 184 81 q 456 146 391 81 q 543 323 521 212 l 623 734 l 745 734 l 632 157 q 606 0 618 92 l 490 0 q 497 53 490 7 q 509 125 505 98 l 507 125 q 394 17 451 47 q 260 -13 338 -13 q 109 37 159 -13 q 58 180 58 86 q 73 291 58 223 l 159 734 l 281 734 z "},"v":{"ha":694,"x_min":76,"x_max":761,"o":"m 344 0 l 199 0 l 76 734 l 203 734 l 271 256 q 284 132 277 210 l 287 96 l 304 132 q 368 255 335 195 l 628 734 l 761 734 l 344 0 z "},"w":{"ha":1003,"x_min":69,"x_max":1078,"o":"m 724 0 l 583 0 l 557 473 l 553 633 q 517 544 533 583 q 273 0 500 506 l 132 0 l 69 734 l 190 734 l 217 235 l 222 101 l 277 230 l 508 734 l 639 734 l 669 230 q 673 101 673 157 q 958 734 695 155 l 1078 734 l 724 0 z "},"x":{"ha":694,"x_min":-56,"x_max":735,"o":"m 479 0 l 337 301 l 79 0 l -56 0 l 278 377 l 99 734 l 227 734 l 358 448 l 595 734 l 735 734 l 417 378 l 608 0 l 479 0 z "},"y":{"ha":694,"x_min":-79,"x_max":764,"o":"m 11 -288 q -79 -279 -38 -288 l -58 -188 q -5 -193 -27 -193 q 108 -150 59 -193 q 205 -24 157 -106 l 223 8 l 76 734 l 200 734 l 276 328 q 295 213 286 274 q 304 133 304 151 q 322 170 311 148 q 629 734 333 191 l 764 734 l 340 0 q 219 -183 264 -131 q 123 -262 173 -236 q 11 -288 73 -288 z "},"z":{"ha":694,"x_min":-8,"x_max":675,"o":"m -8 0 l 7 93 l 511 640 l 127 640 l 144 734 l 675 734 l 659 641 l 156 94 l 577 94 l 560 0 l -8 0 z "},"{":{"ha":464,"x_min":14,"x_max":565,"o":"m 248 -288 q 129 -243 173 -288 q 84 -119 84 -198 q 91 -39 84 -77 l 129 155 q 135 208 135 185 q 103 289 135 264 q 14 316 72 313 l 31 402 q 149 444 106 405 q 208 562 193 483 l 256 808 q 326 956 275 905 q 473 1006 377 1006 l 565 1006 l 548 919 l 505 919 q 412 887 445 919 q 363 773 379 855 l 316 532 q 259 421 303 467 q 151 361 214 376 l 151 359 q 225 314 198 348 q 253 227 253 280 q 249 187 253 209 l 208 -29 q 202 -73 204 -45 q 199 -112 199 -100 l 199 -116 q 222 -177 199 -154 q 298 -201 245 -201 l 330 -201 l 313 -288 l 248 -288 z "},"|":{"ha":361,"x_min":144,"x_max":257,"o":"m 144 -308 l 144 1006 l 257 1006 l 257 -308 l 144 -308 z "},"}":{"ha":464,"x_min":-108,"x_max":443,"o":"m 209 1006 q 329 961 284 1006 q 373 837 373 916 q 366 758 373 795 l 328 563 q 322 511 322 534 q 354 430 322 454 q 443 402 385 405 l 426 316 q 308 274 351 313 q 249 156 264 235 l 201 -90 q 131 -237 182 -186 q -16 -288 80 -288 l -108 -288 l -91 -201 l -48 -201 q 45 -169 12 -201 q 94 -55 78 -137 l 141 186 q 198 297 154 251 q 306 357 243 342 l 306 359 q 232 404 259 370 q 204 491 204 438 q 208 531 204 510 l 250 747 q 255 791 253 764 q 258 830 258 819 l 258 834 q 235 896 258 872 q 159 919 212 919 l 127 919 l 144 1006 l 209 1006 z "},"~":{"ha":811,"x_min":83,"x_max":769,"o":"m 593 375 q 497 390 546 375 q 398 422 448 405 q 251 453 311 453 q 166 439 205 453 q 83 393 127 425 l 83 490 q 261 547 158 547 q 420 516 330 547 q 550 475 520 481 q 604 468 579 468 q 769 530 692 468 l 769 429 q 689 388 728 401 q 593 375 650 375 z "}," ":{"ha":386,"x_min":0,"x_max":0,"o":"z "},"¡":{"ha":463,"x_min":43,"x_max":363,"o":"m 193 465 l 293 465 l 176 -221 l 43 -221 l 193 465 m 363 734 l 336 598 l 205 598 l 232 734 l 363 734 z "},"¢":{"ha":772,"x_min":107,"x_max":741,"o":"m 380 189 q 576 345 519 189 l 682 311 q 399 92 603 102 l 377 -21 l 293 -21 l 316 96 q 161 183 215 111 q 107 374 107 256 q 133 558 107 466 q 203 715 159 651 q 310 813 247 779 q 463 852 373 848 l 482 956 l 566 956 l 547 848 q 685 780 635 836 q 741 637 735 724 l 621 621 q 580 722 616 686 q 481 758 543 758 q 343 712 396 758 q 261 566 290 666 q 232 370 232 467 q 380 189 232 189 z "},"£":{"ha":772,"x_min":-8,"x_max":799,"o":"m 729 210 q 636 54 704 107 q 467 0 568 0 l -8 0 l 12 104 q 117 189 77 136 q 173 326 157 242 l 192 424 l 66 424 l 83 511 l 209 511 l 246 701 q 350 905 273 840 q 553 970 426 970 q 719 927 654 970 q 799 814 783 885 l 688 780 q 636 846 674 823 q 549 869 598 869 q 428 830 471 869 q 369 707 385 791 l 331 511 l 608 511 l 591 424 l 314 424 l 296 324 q 240 191 282 249 q 137 104 197 132 l 452 104 q 565 133 522 104 q 627 227 609 161 l 729 210 z "},"¤":{"ha":772,"x_min":96,"x_max":715,"o":"m 112 464 q 165 635 112 557 l 97 703 l 168 772 l 235 704 q 407 760 312 760 q 577 705 500 760 l 643 771 l 713 700 l 648 635 q 703 464 703 555 q 647 293 703 370 l 715 225 l 646 154 l 577 222 q 407 170 500 170 q 236 224 310 170 l 165 153 l 96 224 l 165 293 q 112 464 112 370 m 216 465 q 272 332 216 388 q 407 275 328 275 q 541 330 484 275 q 597 465 597 385 q 541 600 597 544 q 407 656 485 656 q 272 599 328 656 q 216 465 216 543 z "},"¥":{"ha":772,"x_min":31,"x_max":884,"o":"m 505 481 l 723 481 l 707 396 l 447 396 l 427 292 l 686 292 l 669 205 l 410 205 l 370 0 l 249 0 l 289 205 l 31 205 l 47 292 l 306 292 l 328 396 l 68 396 l 84 481 l 301 481 l 108 956 l 239 956 l 406 517 l 745 956 l 884 956 l 505 481 z "},"¦":{"ha":361,"x_min":144,"x_max":257,"o":"m 144 479 l 144 1007 l 257 1007 l 257 479 l 144 479 m 144 -309 l 144 220 l 257 220 l 257 -309 l 144 -309 z "},"§":{"ha":772,"x_min":-23,"x_max":736,"o":"m 685 456 q 499 263 685 304 q 589 112 589 207 q 505 -57 589 2 q 260 -117 420 -117 q 74 -77 144 -117 q -23 48 4 -37 l 77 86 q 146 -1 99 26 q 273 -28 193 -28 q 420 5 370 -28 q 470 101 470 38 q 434 173 470 144 q 290 236 398 203 q 69 456 69 304 q 117 580 69 531 q 256 649 165 629 q 165 802 165 707 q 245 953 165 900 q 471 1006 324 1006 q 736 833 706 1006 l 625 817 q 467 918 597 918 q 283 807 283 918 q 320 741 283 770 q 461 677 356 711 q 635 585 585 639 q 685 456 685 531 m 187 467 q 229 384 187 420 q 373 317 271 349 q 514 355 463 321 q 566 449 566 389 q 547 509 566 484 q 491 554 528 534 q 361 601 454 574 q 235 560 282 597 q 187 467 187 524 z "},"¨":{"ha":463,"x_min":93,"x_max":494,"o":"m 353 827 l 377 951 l 494 951 l 471 827 l 353 827 m 93 827 l 117 951 l 235 951 l 212 827 l 93 827 z "},"©":{"ha":1023,"x_min":43,"x_max":1023,"o":"m 1023 479 q 958 234 1023 349 q 778 55 892 120 q 533 -11 664 -11 q 284 57 399 -11 q 106 238 170 125 q 43 479 43 351 q 109 724 43 610 q 288 904 174 838 q 533 970 402 970 q 779 904 665 970 q 958 724 893 838 q 1023 479 1023 611 m 961 479 q 904 692 961 593 q 747 848 846 791 q 533 905 648 905 q 320 848 419 905 q 164 692 221 791 q 107 479 107 593 q 164 266 107 365 q 320 110 222 167 q 533 53 418 53 q 748 110 648 53 q 904 266 847 168 q 961 479 961 365 m 541 189 q 342 266 413 189 q 272 481 272 342 q 340 693 272 618 q 536 768 408 768 q 766 627 701 768 l 689 604 q 628 674 667 651 q 537 697 589 697 q 405 643 451 697 q 359 481 359 588 q 408 318 359 376 q 541 260 456 260 q 632 285 593 260 q 699 366 671 311 l 777 342 q 677 224 734 260 q 541 189 620 189 z "},"ª":{"ha":514,"x_min":60,"x_max":552,"o":"m 490 446 q 421 466 446 446 q 397 519 397 486 l 400 546 l 397 546 q 309 465 353 488 q 211 441 264 441 q 101 479 142 441 q 60 582 60 517 q 307 754 60 751 l 429 757 q 441 833 441 818 q 355 903 441 903 q 230 811 252 903 l 140 823 q 356 971 180 971 q 489 935 442 971 q 536 836 536 899 q 530 779 536 810 l 494 593 q 490 557 490 572 q 522 519 490 519 q 552 525 536 519 l 542 454 q 490 446 517 446 m 416 694 l 322 692 q 202 664 239 690 q 165 587 165 637 q 184 536 165 555 q 239 517 204 517 q 349 559 299 517 q 410 659 398 602 l 416 694 z "},"«":{"ha":772,"x_min":52,"x_max":767,"o":"m 555 96 l 374 343 l 382 386 l 660 637 l 767 637 l 763 612 l 485 360 l 667 111 l 663 96 l 555 96 m 231 96 l 52 343 l 60 386 l 336 637 l 443 637 l 439 612 l 163 359 l 342 111 l 339 96 l 231 96 z "},"¬":{"ha":811,"x_min":68,"x_max":743,"o":"m 644 122 l 644 412 l 68 412 l 68 511 l 743 511 l 743 122 l 644 122 z "},"­":{"ha":463,"x_min":71,"x_max":431,"o":"m 71 315 l 92 423 l 431 423 l 410 315 l 71 315 z "},"®":{"ha":1023,"x_min":43,"x_max":1023,"o":"m 1023 479 q 958 234 1023 349 q 778 55 892 120 q 533 -11 664 -11 q 284 57 399 -11 q 106 238 170 125 q 43 479 43 351 q 109 724 43 610 q 288 904 174 838 q 533 970 402 970 q 779 904 665 970 q 958 724 893 838 q 1023 479 1023 611 m 961 479 q 904 692 961 593 q 747 848 846 791 q 533 905 648 905 q 320 848 419 905 q 164 692 221 791 q 107 479 107 593 q 164 266 107 365 q 320 110 222 167 q 533 53 418 53 q 748 110 648 53 q 904 266 847 168 q 961 479 961 365 m 669 196 l 534 424 l 425 424 l 425 196 l 339 196 l 339 760 l 547 760 q 695 717 644 760 q 746 599 746 674 q 711 488 746 530 q 618 433 675 446 l 768 196 l 669 196 m 660 597 q 628 669 660 644 q 541 693 595 693 l 425 693 l 425 489 l 549 489 q 631 518 603 489 q 660 597 660 547 z "},"¯":{"ha":767,"x_min":-12,"x_max":779,"o":"m 779 1019 l -12 1019 l -12 1099 l 779 1099 l 779 1019 z "},"°":{"ha":555,"x_min":133,"x_max":522,"o":"m 522 777 q 465 640 522 696 q 328 583 408 583 q 190 640 248 583 q 133 777 133 697 q 190 913 133 856 q 328 970 246 970 q 466 913 409 970 q 522 777 522 857 m 448 777 q 413 863 448 828 q 328 899 378 899 q 242 863 277 899 q 207 777 207 827 q 242 690 207 726 q 328 654 278 654 q 413 690 378 654 q 448 777 448 726 z "},"±":{"ha":762,"x_min":44,"x_max":719,"o":"m 431 461 l 431 193 l 332 193 l 332 461 l 44 461 l 44 559 l 332 559 l 332 827 l 431 827 l 431 559 l 719 559 l 719 461 l 431 461 m 44 0 l 44 98 l 719 98 l 719 0 l 44 0 z "},"²":{"ha":463,"x_min":20,"x_max":503,"o":"m 20 382 l 33 452 q 79 511 53 484 q 136 562 105 538 q 238 627 168 585 q 354 703 327 680 q 396 751 382 726 q 411 808 411 777 q 388 867 411 843 q 321 892 365 892 q 239 865 273 892 q 196 796 205 839 l 111 806 q 185 924 131 884 q 326 964 240 964 q 455 923 406 964 q 503 818 503 882 q 483 734 503 772 q 426 665 462 697 q 290 575 389 633 q 190 511 224 537 q 138 458 155 485 l 441 458 l 428 382 l 20 382 z "},"³":{"ha":463,"x_min":36,"x_max":494,"o":"m 225 711 l 264 711 q 365 740 330 711 q 400 817 400 768 q 378 870 400 849 q 317 892 355 892 q 238 868 271 892 q 192 800 205 844 l 107 817 q 323 964 153 964 q 446 925 399 964 q 494 826 494 887 q 346 675 494 705 l 346 673 q 426 632 395 665 q 456 554 456 600 q 396 423 456 472 q 237 374 336 374 q 36 532 60 374 l 123 543 q 160 469 130 494 q 241 444 191 444 q 332 474 300 444 q 364 556 364 505 q 334 615 364 593 q 252 637 304 637 l 211 637 l 225 711 z "},"´":{"ha":463,"x_min":119,"x_max":439,"o":"m 119 814 l 121 828 l 292 1023 l 439 1023 l 436 1003 l 182 814 l 119 814 z "},"µ":{"ha":800,"x_min":-1,"x_max":741,"o":"m -1 -288 l 198 734 l 321 734 l 230 269 q 222 200 222 225 q 332 81 222 81 q 464 145 408 81 q 539 320 520 210 l 619 734 l 741 734 l 635 186 q 629 131 629 159 q 667 82 629 82 q 705 87 675 82 l 690 0 q 607 -14 642 -14 q 536 19 557 -14 q 515 115 515 52 l 513 115 q 304 -14 426 -14 q 231 1 262 -14 q 185 40 201 15 l 121 -288 l -1 -288 z "},"¶":{"ha":746,"x_min":98,"x_max":730,"o":"m 643 886 l 643 -179 l 567 -179 l 567 886 l 420 886 l 420 -179 l 343 -179 l 343 471 q 163 533 229 471 q 98 711 98 596 q 164 891 98 826 q 349 956 231 956 l 730 956 l 730 886 l 643 886 z "},"·":{"ha":463,"x_min":0,"x_max":0,"o":""},"¸":{"ha":463,"x_min":48,"x_max":326,"o":"m 216 -65 q 298 -93 271 -68 q 326 -157 326 -117 q 120 -288 326 -288 q 48 -283 86 -288 l 62 -222 q 122 -226 95 -226 q 209 -211 184 -226 q 235 -165 235 -196 q 154 -117 235 -117 q 115 -118 124 -117 l 183 0 l 256 0 l 216 -65 z "},"¹":{"ha":463,"x_min":41,"x_max":433,"o":"m 41 382 l 55 454 l 198 454 l 278 867 l 123 774 l 140 863 l 301 956 l 385 956 l 287 454 l 433 454 l 418 382 l 41 382 z "},"º":{"ha":507,"x_min":68,"x_max":557,"o":"m 273 441 q 122 495 175 441 q 68 644 68 548 q 77 731 68 684 q 353 971 123 971 q 504 918 451 971 q 557 768 557 865 q 549 682 557 728 q 273 441 503 441 m 348 899 q 247 866 283 899 q 189 764 210 834 q 168 636 168 694 q 277 514 168 514 q 380 548 342 514 q 438 654 417 581 q 460 783 460 726 q 430 872 460 846 q 348 899 401 899 z "},"»":{"ha":772,"x_min":3,"x_max":720,"o":"m 434 96 l 327 96 l 332 122 l 610 371 l 431 623 l 433 637 l 539 637 l 720 386 l 711 343 l 434 96 m 112 96 l 3 96 l 8 122 l 286 371 l 107 623 l 110 637 l 217 637 l 395 386 l 387 343 l 112 96 z "},"¼":{"ha":1158,"x_min":65,"x_max":1074,"o":"m 65 382 l 79 454 l 222 454 l 302 867 l 146 774 l 164 863 l 325 956 l 408 956 l 311 454 l 456 454 l 442 382 l 65 382 m 290 0 l 186 0 l 966 956 l 1070 956 l 290 0 m 975 121 l 951 1 l 862 1 l 886 121 l 611 121 l 625 197 l 954 574 l 1063 574 l 989 198 l 1074 198 l 1059 121 l 975 121 m 958 484 l 884 393 l 718 198 l 901 198 l 943 416 l 958 484 z "},"½":{"ha":1158,"x_min":32,"x_max":1118,"o":"m 32 382 l 45 454 l 189 454 l 269 867 l 113 774 l 131 863 l 292 956 l 375 956 l 277 454 l 423 454 l 409 382 l 32 382 m 256 0 l 152 0 l 932 956 l 1036 956 l 256 0 m 635 1 l 648 71 q 694 130 668 103 q 751 180 720 157 q 853 246 783 204 q 969 321 942 298 q 1011 370 997 345 q 1026 427 1026 395 q 1003 486 1026 462 q 936 511 980 511 q 854 484 888 511 q 811 415 821 458 l 726 425 q 801 543 746 503 q 941 583 855 583 q 1070 542 1021 583 q 1118 437 1118 501 q 1098 353 1118 391 q 1041 284 1077 316 q 905 194 1004 252 q 805 130 839 156 q 753 77 770 104 l 1057 77 l 1043 1 l 635 1 z "},"¾":{"ha":1158,"x_min":92,"x_max":1074,"o":"m 281 711 l 320 711 q 421 740 386 711 q 456 817 456 768 q 434 870 456 849 q 373 892 412 892 q 294 868 327 892 q 248 800 261 844 l 163 817 q 380 964 209 964 q 503 925 455 964 q 550 826 550 887 q 402 675 550 705 l 402 673 q 482 632 452 665 q 513 554 513 600 q 452 423 513 472 q 294 374 392 374 q 92 532 117 374 l 180 543 q 217 469 186 494 q 298 444 248 444 q 388 474 356 444 q 420 556 420 505 q 391 615 420 593 q 309 637 361 637 l 267 637 l 281 711 m 290 0 l 186 0 l 966 956 l 1070 956 l 290 0 m 975 121 l 951 1 l 862 1 l 886 121 l 611 121 l 625 197 l 954 574 l 1063 574 l 989 198 l 1074 198 l 1059 121 l 975 121 m 958 484 l 884 393 l 718 198 l 901 198 l 943 416 l 958 484 z "},"¿":{"ha":848,"x_min":44,"x_max":705,"o":"m 337 -235 q 124 -168 203 -235 q 44 7 44 -100 q 65 119 44 73 q 118 200 85 165 q 192 259 151 234 q 274 308 233 285 q 393 395 360 357 q 436 479 427 433 l 555 479 q 522 384 546 425 q 463 312 498 344 q 336 229 427 280 q 234 160 265 189 q 187 99 203 132 q 171 21 171 66 q 220 -86 171 -45 q 349 -127 270 -127 q 505 -79 444 -127 q 593 51 567 -32 l 705 24 q 570 -172 662 -109 q 337 -235 478 -235 m 610 734 l 583 598 l 451 598 l 477 734 l 610 734 z "},"À":{"ha":926,"x_min":-56,"x_max":864,"o":"m 732 0 l 681 279 l 248 279 l 85 0 l -56 0 l 519 956 l 666 956 l 864 0 l 732 0 m 575 858 q 550 811 566 840 q 304 380 534 782 l 662 380 l 593 755 l 575 858 m 640 1038 l 441 1185 l 444 1204 l 585 1204 l 702 1051 l 700 1038 l 640 1038 z "},"Á":{"ha":926,"x_min":-56,"x_max":864,"o":"m 732 0 l 681 279 l 248 279 l 85 0 l -56 0 l 519 956 l 666 956 l 864 0 l 732 0 m 575 858 q 550 811 566 840 q 304 380 534 782 l 662 380 l 593 755 l 575 858 m 504 1038 l 506 1051 l 683 1204 l 823 1204 l 820 1185 l 581 1038 l 504 1038 z "},"Â":{"ha":926,"x_min":-56,"x_max":864,"o":"m 732 0 l 681 279 l 248 279 l 85 0 l -56 0 l 519 956 l 666 956 l 864 0 l 732 0 m 575 858 q 550 811 566 840 q 304 380 534 782 l 662 380 l 593 755 l 575 858 m 812 1051 l 809 1038 l 745 1038 l 614 1132 l 613 1132 l 437 1038 l 361 1038 l 363 1051 l 553 1214 l 692 1214 l 812 1051 z "},"Ã":{"ha":926,"x_min":-56,"x_max":873,"o":"m 732 0 l 681 279 l 248 279 l 85 0 l -56 0 l 519 956 l 666 956 l 864 0 l 732 0 m 575 858 q 550 811 566 840 q 304 380 534 782 l 662 380 l 593 755 l 575 858 m 703 1038 q 649 1051 675 1038 q 600 1081 623 1065 q 555 1112 576 1098 q 513 1125 534 1125 q 460 1105 481 1125 q 422 1038 439 1085 l 355 1038 q 428 1180 387 1141 q 525 1219 469 1219 q 581 1206 555 1219 q 629 1176 606 1192 q 673 1145 652 1159 q 715 1132 694 1132 q 804 1219 777 1132 l 873 1219 q 828 1111 850 1145 q 776 1057 806 1077 q 703 1038 745 1038 z "},"Ä":{"ha":926,"x_min":-56,"x_max":864,"o":"m 732 0 l 681 279 l 248 279 l 85 0 l -56 0 l 519 956 l 666 956 l 864 0 l 732 0 m 575 858 q 550 811 566 840 q 304 380 534 782 l 662 380 l 593 755 l 575 858 m 671 1038 l 695 1162 l 812 1162 l 789 1038 l 671 1038 m 411 1038 l 435 1162 l 553 1162 l 530 1038 l 411 1038 z "},"Å":{"ha":926,"x_min":-68,"x_max":852,"o":"m 720 0 l 669 279 l 235 279 l 73 0 l -68 0 l 507 956 l 654 956 l 852 0 l 720 0 m 563 858 q 538 811 554 840 q 292 380 522 782 l 650 380 l 581 755 l 563 858 m 746 1048 q 698 932 746 981 q 582 884 650 884 q 466 932 514 884 q 418 1048 418 981 q 466 1164 418 1117 q 582 1212 514 1212 q 697 1164 649 1212 q 746 1048 746 1116 m 673 1048 q 647 1114 673 1088 q 582 1139 621 1139 q 516 1113 542 1139 q 490 1048 490 1086 q 516 983 490 1011 q 582 956 542 956 q 647 983 621 956 q 673 1048 673 1010 z "},"Æ":{"ha":1389,"x_min":-55,"x_max":1402,"o":"m 585 0 l 640 279 l 272 279 l 83 0 l -55 0 l 595 956 l 1402 956 l 1381 850 l 880 850 l 821 543 l 1281 543 l 1261 439 l 800 439 l 736 106 l 1265 106 l 1244 0 l 585 0 m 752 856 l 650 856 l 557 709 l 339 380 l 660 380 l 752 856 z "},"Ç":{"ha":1003,"x_min":77,"x_max":1010,"o":"m 921 229 q 727 44 836 101 q 475 -14 618 -14 q 261 36 352 -14 q 124 176 171 85 q 77 386 77 267 q 148 688 77 553 q 346 896 219 823 q 628 970 472 970 q 877 908 775 970 q 1010 736 978 847 l 888 699 q 794 819 864 774 q 621 864 724 864 q 401 804 496 864 q 256 635 307 744 q 205 384 205 526 q 279 170 205 248 q 484 92 353 92 q 671 141 584 92 q 824 289 758 191 l 921 229 m 480 -65 q 563 -93 535 -68 q 590 -157 590 -117 q 385 -288 590 -288 q 313 -283 351 -288 l 327 -222 q 387 -226 359 -226 q 474 -211 448 -226 q 499 -165 499 -196 q 418 -117 499 -117 q 379 -118 389 -117 l 448 0 l 520 0 l 480 -65 z "},"È":{"ha":926,"x_min":43,"x_max":939,"o":"m 43 0 l 228 956 l 939 956 l 919 850 l 337 850 l 277 543 l 819 543 l 798 439 l 257 439 l 193 106 l 802 106 l 782 0 l 43 0 m 635 1038 l 437 1185 l 440 1204 l 581 1204 l 698 1051 l 696 1038 l 635 1038 z "},"É":{"ha":926,"x_min":43,"x_max":939,"o":"m 43 0 l 228 956 l 939 956 l 919 850 l 337 850 l 277 543 l 819 543 l 798 439 l 257 439 l 193 106 l 802 106 l 782 0 l 43 0 m 493 1038 l 495 1051 l 672 1204 l 812 1204 l 809 1185 l 570 1038 l 493 1038 z "},"Ê":{"ha":926,"x_min":43,"x_max":939,"o":"m 43 0 l 228 956 l 939 956 l 919 850 l 337 850 l 277 543 l 819 543 l 798 439 l 257 439 l 193 106 l 802 106 l 782 0 l 43 0 m 818 1051 l 815 1038 l 751 1038 l 621 1132 l 619 1132 l 444 1038 l 367 1038 l 370 1051 l 559 1214 l 698 1214 l 818 1051 z "},"Ë":{"ha":926,"x_min":43,"x_max":939,"o":"m 43 0 l 228 956 l 939 956 l 919 850 l 337 850 l 277 543 l 819 543 l 798 439 l 257 439 l 193 106 l 802 106 l 782 0 l 43 0 m 663 1038 l 686 1162 l 804 1162 l 780 1038 l 663 1038 m 402 1038 l 426 1162 l 545 1162 l 521 1038 l 402 1038 z "},"Ì":{"ha":386,"x_min":55,"x_max":404,"o":"m 55 0 l 241 956 l 370 956 l 184 0 l 55 0 m 342 1038 l 143 1185 l 146 1204 l 287 1204 l 404 1051 l 402 1038 l 342 1038 z "},"Í":{"ha":386,"x_min":55,"x_max":567,"o":"m 55 0 l 241 956 l 370 956 l 184 0 l 55 0 m 248 1038 l 250 1051 l 427 1204 l 567 1204 l 564 1185 l 325 1038 l 248 1038 z "},"Î":{"ha":386,"x_min":55,"x_max":538,"o":"m 55 0 l 241 956 l 370 956 l 184 0 l 55 0 m 538 1051 l 536 1038 l 471 1038 l 341 1132 l 340 1132 l 164 1038 l 87 1038 l 90 1051 l 280 1214 l 418 1214 l 538 1051 z "},"Ï":{"ha":386,"x_min":55,"x_max":528,"o":"m 55 0 l 241 956 l 370 956 l 184 0 l 55 0 m 387 1038 l 411 1162 l 528 1162 l 505 1038 l 387 1038 m 127 1038 l 151 1162 l 269 1162 l 245 1038 l 127 1038 z "},"Ð":{"ha":1003,"x_min":23,"x_max":972,"o":"m 518 956 q 851 844 730 956 q 972 536 972 732 q 905 257 972 378 q 709 68 838 136 q 415 0 580 0 l 43 0 l 127 439 l 23 439 l 43 543 l 148 543 l 228 956 l 518 956 m 277 543 l 553 543 l 532 439 l 257 439 l 192 104 l 398 104 q 631 156 530 104 q 786 308 732 209 q 840 538 840 406 q 755 769 840 686 q 515 852 669 852 l 338 852 l 277 543 z "},"Ñ":{"ha":1003,"x_min":43,"x_max":1004,"o":"m 669 0 l 309 821 q 281 640 294 705 l 158 0 l 43 0 l 228 956 l 372 956 l 734 132 q 764 324 751 260 l 887 956 l 1004 956 l 819 0 l 669 0 m 736 1038 q 682 1051 707 1038 q 632 1081 656 1065 q 588 1112 609 1098 q 545 1125 566 1125 q 493 1105 514 1125 q 455 1038 472 1085 l 387 1038 q 460 1180 419 1141 q 557 1219 501 1219 q 613 1206 587 1219 q 662 1176 639 1192 q 706 1145 685 1159 q 747 1132 727 1132 q 837 1219 809 1132 l 906 1219 q 861 1111 882 1145 q 808 1057 839 1077 q 736 1038 778 1038 z "},"Ò":{"ha":1080,"x_min":75,"x_max":1042,"o":"m 636 970 q 933 863 824 970 q 1042 577 1042 757 q 966 263 1038 395 q 767 58 893 130 q 481 -14 641 -14 q 182 93 288 -14 q 75 389 75 200 q 147 687 75 551 q 347 896 218 823 q 636 970 475 970 m 630 865 q 400 805 494 865 q 255 625 305 745 q 205 382 205 505 q 277 166 205 240 q 487 92 349 92 q 714 150 621 92 q 860 326 808 209 q 912 574 912 444 q 839 790 912 715 q 630 865 765 865 m 658 1038 l 459 1185 l 463 1204 l 603 1204 l 720 1051 l 718 1038 l 658 1038 z "},"Ó":{"ha":1080,"x_min":75,"x_max":1042,"o":"m 636 970 q 933 863 824 970 q 1042 577 1042 757 q 966 263 1038 395 q 767 58 893 130 q 481 -14 641 -14 q 182 93 288 -14 q 75 389 75 200 q 147 687 75 551 q 347 896 218 823 q 636 970 475 970 m 630 865 q 400 805 494 865 q 255 625 305 745 q 205 382 205 505 q 277 166 205 240 q 487 92 349 92 q 714 150 621 92 q 860 326 808 209 q 912 574 912 444 q 839 790 912 715 q 630 865 765 865 m 554 1038 l 556 1051 l 733 1204 l 873 1204 l 870 1185 l 631 1038 l 554 1038 z "},"Ô":{"ha":1080,"x_min":75,"x_max":1042,"o":"m 636 970 q 933 863 824 970 q 1042 577 1042 757 q 966 263 1038 395 q 767 58 893 130 q 481 -14 641 -14 q 182 93 288 -14 q 75 389 75 200 q 147 687 75 551 q 347 896 218 823 q 636 970 475 970 m 630 865 q 400 805 494 865 q 255 625 305 745 q 205 382 205 505 q 277 166 205 240 q 487 92 349 92 q 714 150 621 92 q 860 326 808 209 q 912 574 912 444 q 839 790 912 715 q 630 865 765 865 m 858 1051 l 855 1038 l 791 1038 l 661 1132 l 659 1132 l 484 1038 l 407 1038 l 410 1051 l 600 1214 l 738 1214 l 858 1051 z "},"Õ":{"ha":1080,"x_min":75,"x_max":1042,"o":"m 636 970 q 933 863 824 970 q 1042 577 1042 757 q 966 263 1038 395 q 767 58 893 130 q 481 -14 641 -14 q 182 93 288 -14 q 75 389 75 200 q 147 687 75 551 q 347 896 218 823 q 636 970 475 970 m 630 865 q 400 805 494 865 q 255 625 305 745 q 205 382 205 505 q 277 166 205 240 q 487 92 349 92 q 714 150 621 92 q 860 326 808 209 q 912 574 912 444 q 839 790 912 715 q 630 865 765 865 m 770 1038 q 716 1051 742 1038 q 667 1081 690 1065 q 622 1112 644 1098 q 580 1125 601 1125 q 528 1105 549 1125 q 490 1038 507 1085 l 422 1038 q 495 1180 454 1141 q 592 1219 536 1219 q 648 1206 622 1219 q 696 1176 673 1192 q 741 1145 720 1159 q 782 1132 762 1132 q 871 1219 844 1132 l 941 1219 q 895 1111 917 1145 q 843 1057 873 1077 q 770 1038 812 1038 z "},"Ö":{"ha":1080,"x_min":75,"x_max":1042,"o":"m 636 970 q 933 863 824 970 q 1042 577 1042 757 q 966 263 1038 395 q 767 58 893 130 q 481 -14 641 -14 q 182 93 288 -14 q 75 389 75 200 q 147 687 75 551 q 347 896 218 823 q 636 970 475 970 m 630 865 q 400 805 494 865 q 255 625 305 745 q 205 382 205 505 q 277 166 205 240 q 487 92 349 92 q 714 150 621 92 q 860 326 808 209 q 912 574 912 444 q 839 790 912 715 q 630 865 765 865 m 711 1038 l 734 1162 l 852 1162 l 828 1038 l 711 1038 m 450 1038 l 474 1162 l 593 1162 l 569 1038 l 450 1038 z "},"×":{"ha":811,"x_min":117,"x_max":736,"o":"m 117 224 l 357 464 l 118 703 l 189 772 l 426 533 l 663 771 l 734 700 l 497 464 l 736 225 l 667 154 l 427 393 l 186 153 l 117 224 z "},"Ø":{"ha":1080,"x_min":-38,"x_max":1147,"o":"m 965 817 q 1035 577 1035 719 q 959 263 1031 395 q 760 58 886 130 q 474 -14 634 -14 q 199 71 303 -14 l 90 -36 l -38 -36 l 138 136 q 68 389 68 237 q 140 687 68 551 q 340 896 212 823 q 629 970 468 970 q 903 884 798 970 l 1017 994 l 1147 994 l 965 817 m 623 865 q 393 805 488 865 q 248 625 298 745 q 198 382 198 505 q 229 225 198 290 l 819 802 q 623 865 745 865 m 905 574 q 874 728 905 665 l 284 153 q 480 92 355 92 q 708 150 614 92 q 853 326 802 209 q 905 574 905 444 z "},"Ù":{"ha":1003,"x_min":104,"x_max":1010,"o":"m 444 -14 q 195 68 286 -14 q 104 292 104 150 q 109 364 104 322 q 119 431 114 406 l 221 956 l 351 956 l 241 384 q 229 287 229 325 q 289 143 229 195 q 454 92 348 92 q 767 367 715 92 l 881 956 l 1010 956 l 895 359 q 744 80 858 174 q 444 -14 630 -14 m 666 1038 l 467 1185 l 471 1204 l 611 1204 l 728 1051 l 726 1038 l 666 1038 z "},"Ú":{"ha":1003,"x_min":104,"x_max":1010,"o":"m 444 -14 q 195 68 286 -14 q 104 292 104 150 q 109 364 104 322 q 119 431 114 406 l 221 956 l 351 956 l 241 384 q 229 287 229 325 q 289 143 229 195 q 454 92 348 92 q 767 367 715 92 l 881 956 l 1010 956 l 895 359 q 744 80 858 174 q 444 -14 630 -14 m 526 1038 l 528 1051 l 705 1204 l 846 1204 l 842 1185 l 604 1038 l 526 1038 z "},"Û":{"ha":1003,"x_min":104,"x_max":1010,"o":"m 444 -14 q 195 68 286 -14 q 104 292 104 150 q 109 364 104 322 q 119 431 114 406 l 221 956 l 351 956 l 241 384 q 229 287 229 325 q 289 143 229 195 q 454 92 348 92 q 767 367 715 92 l 881 956 l 1010 956 l 895 359 q 744 80 858 174 q 444 -14 630 -14 m 847 1051 l 844 1038 l 780 1038 l 650 1132 l 648 1132 l 473 1038 l 396 1038 l 399 1051 l 589 1214 l 727 1214 l 847 1051 z "},"Ü":{"ha":1003,"x_min":104,"x_max":1010,"o":"m 444 -14 q 195 68 286 -14 q 104 292 104 150 q 109 364 104 322 q 119 431 114 406 l 221 956 l 351 956 l 241 384 q 229 287 229 325 q 289 143 229 195 q 454 92 348 92 q 767 367 715 92 l 881 956 l 1010 956 l 895 359 q 744 80 858 174 q 444 -14 630 -14 m 690 1038 l 714 1162 l 831 1162 l 808 1038 l 690 1038 m 430 1038 l 454 1162 l 572 1162 l 549 1038 l 430 1038 z "},"Ý":{"ha":926,"x_min":144,"x_max":1010,"o":"m 456 0 l 327 0 l 405 396 l 144 956 l 277 956 l 485 498 l 865 956 l 1010 956 l 532 396 l 456 0 m 476 1038 l 478 1051 l 655 1204 l 795 1204 l 792 1185 l 553 1038 l 476 1038 z "},"Þ":{"ha":926,"x_min":43,"x_max":886,"o":"m 172 0 l 43 0 l 229 956 l 358 956 l 325 785 l 547 785 q 797 715 707 785 q 886 521 886 646 q 783 287 886 372 q 500 201 680 201 l 213 201 l 172 0 m 233 304 l 496 304 q 755 515 755 304 q 701 638 755 595 q 543 681 648 681 l 307 681 l 233 304 z "},"ß":{"ha":848,"x_min":23,"x_max":781,"o":"m 23 0 l 159 696 q 279 932 191 857 q 517 1006 368 1006 q 709 951 637 1006 q 781 811 781 897 q 676 637 781 709 q 591 572 611 593 q 571 527 571 551 q 592 471 571 500 q 667 393 613 442 q 762 209 762 304 q 688 41 762 101 q 484 -20 615 -20 q 371 -9 426 -20 q 283 18 315 2 l 321 115 q 488 78 399 78 q 602 112 562 78 q 642 207 642 145 q 621 280 642 245 q 549 359 599 315 q 477 438 499 401 q 454 513 454 474 q 480 603 454 564 q 558 672 507 642 q 637 735 614 705 q 661 804 661 765 q 621 881 661 851 q 511 911 580 911 q 357 857 412 911 q 279 692 301 803 l 145 0 l 23 0 z "},"à":{"ha":772,"x_min":35,"x_max":729,"o":"m 633 -7 q 541 19 570 -7 q 512 97 512 45 l 515 140 l 511 140 q 395 21 455 55 q 249 -14 334 -14 q 95 43 154 -14 q 35 189 35 100 q 125 378 35 314 q 412 446 215 443 l 569 448 q 582 534 582 514 q 546 625 582 595 q 446 654 510 654 q 324 626 366 654 q 264 538 283 597 l 144 557 q 250 702 174 657 q 453 747 326 747 q 636 693 569 747 q 704 547 704 639 q 691 441 704 504 l 641 184 q 633 125 633 152 q 688 75 633 75 q 729 80 707 75 l 720 4 q 633 -7 675 -7 m 553 363 l 418 361 q 291 346 337 359 q 219 314 245 334 q 179 266 194 295 q 165 194 165 236 q 198 111 165 143 q 283 79 231 79 q 401 107 349 79 q 489 181 454 136 q 534 279 524 227 l 553 363 m 511 814 l 319 1003 l 323 1023 l 463 1023 l 572 828 l 570 814 l 511 814 z "},"á":{"ha":772,"x_min":35,"x_max":729,"o":"m 633 -7 q 541 19 570 -7 q 512 97 512 45 l 515 140 l 511 140 q 395 21 455 55 q 249 -14 334 -14 q 95 43 154 -14 q 35 189 35 100 q 125 378 35 314 q 412 446 215 443 l 569 448 q 582 534 582 514 q 546 625 582 595 q 446 654 510 654 q 324 626 366 654 q 264 538 283 597 l 144 557 q 250 702 174 657 q 453 747 326 747 q 636 693 569 747 q 704 547 704 639 q 691 441 704 504 l 641 184 q 633 125 633 152 q 688 75 633 75 q 729 80 707 75 l 720 4 q 633 -7 675 -7 m 553 363 l 418 361 q 291 346 337 359 q 219 314 245 334 q 179 266 194 295 q 165 194 165 236 q 198 111 165 143 q 283 79 231 79 q 401 107 349 79 q 489 181 454 136 q 534 279 524 227 l 553 363 m 366 814 l 368 828 l 540 1023 l 687 1023 l 684 1003 l 430 814 l 366 814 z "},"â":{"ha":772,"x_min":35,"x_max":729,"o":"m 633 -7 q 541 19 570 -7 q 512 97 512 45 l 515 140 l 511 140 q 395 21 455 55 q 249 -14 334 -14 q 95 43 154 -14 q 35 189 35 100 q 125 378 35 314 q 412 446 215 443 l 569 448 q 582 534 582 514 q 546 625 582 595 q 446 654 510 654 q 324 626 366 654 q 264 538 283 597 l 144 557 q 250 702 174 657 q 453 747 326 747 q 636 693 569 747 q 704 547 704 639 q 691 441 704 504 l 641 184 q 633 125 633 152 q 688 75 633 75 q 729 80 707 75 l 720 4 q 633 -7 675 -7 m 553 363 l 418 361 q 291 346 337 359 q 219 314 245 334 q 179 266 194 295 q 165 194 165 236 q 198 111 165 143 q 283 79 231 79 q 401 107 349 79 q 489 181 454 136 q 534 279 524 227 l 553 363 m 683 828 l 680 814 l 618 814 l 492 929 l 490 929 l 311 814 l 232 814 l 235 828 l 429 1011 l 567 1011 l 683 828 z "},"ã":{"ha":772,"x_min":35,"x_max":742,"o":"m 633 -7 q 541 19 570 -7 q 512 97 512 45 l 515 140 l 511 140 q 395 21 455 55 q 249 -14 334 -14 q 95 43 154 -14 q 35 189 35 100 q 125 378 35 314 q 412 446 215 443 l 569 448 q 582 534 582 514 q 546 625 582 595 q 446 654 510 654 q 324 626 366 654 q 264 538 283 597 l 144 557 q 250 702 174 657 q 453 747 326 747 q 636 693 569 747 q 704 547 704 639 q 691 441 704 504 l 641 184 q 633 125 633 152 q 688 75 633 75 q 729 80 707 75 l 720 4 q 633 -7 675 -7 m 553 363 l 418 361 q 291 346 337 359 q 219 314 245 334 q 179 266 194 295 q 165 194 165 236 q 198 111 165 143 q 283 79 231 79 q 401 107 349 79 q 489 181 454 136 q 534 279 524 227 l 553 363 m 572 814 q 517 827 543 814 q 468 855 492 840 q 423 883 445 870 q 380 895 401 895 q 284 814 313 895 l 223 814 q 296 957 255 918 q 393 996 337 996 q 449 984 423 996 q 498 956 475 971 q 543 928 522 941 q 584 916 564 916 q 680 996 652 916 l 742 996 q 696 888 718 922 q 644 834 675 854 q 572 814 614 814 z "},"ä":{"ha":772,"x_min":35,"x_max":729,"o":"m 633 -7 q 541 19 570 -7 q 512 97 512 45 l 515 140 l 511 140 q 395 21 455 55 q 249 -14 334 -14 q 95 43 154 -14 q 35 189 35 100 q 125 378 35 314 q 412 446 215 443 l 569 448 q 582 534 582 514 q 546 625 582 595 q 446 654 510 654 q 324 626 366 654 q 264 538 283 597 l 144 557 q 250 702 174 657 q 453 747 326 747 q 636 693 569 747 q 704 547 704 639 q 691 441 704 504 l 641 184 q 633 125 633 152 q 688 75 633 75 q 729 80 707 75 l 720 4 q 633 -7 675 -7 m 553 363 l 418 361 q 291 346 337 359 q 219 314 245 334 q 179 266 194 295 q 165 194 165 236 q 198 111 165 143 q 283 79 231 79 q 401 107 349 79 q 489 181 454 136 q 534 279 524 227 l 553 363 m 534 827 l 557 951 l 675 951 l 651 827 l 534 827 m 273 827 l 297 951 l 416 951 l 392 827 l 273 827 z "},"å":{"ha":772,"x_min":35,"x_max":729,"o":"m 633 -7 q 541 19 570 -7 q 512 97 512 45 l 515 140 l 511 140 q 395 21 455 55 q 249 -14 334 -14 q 95 43 154 -14 q 35 189 35 100 q 125 378 35 314 q 412 446 215 443 l 569 448 q 582 534 582 514 q 546 625 582 595 q 446 654 510 654 q 324 626 366 654 q 264 538 283 597 l 144 557 q 250 702 174 657 q 453 747 326 747 q 636 693 569 747 q 704 547 704 639 q 691 441 704 504 l 641 184 q 633 125 633 152 q 688 75 633 75 q 729 80 707 75 l 720 4 q 633 -7 675 -7 m 553 363 l 418 361 q 291 346 337 359 q 219 314 245 334 q 179 266 194 295 q 165 194 165 236 q 198 111 165 143 q 283 79 231 79 q 401 107 349 79 q 489 181 454 136 q 534 279 524 227 l 553 363 m 661 956 q 613 840 661 888 q 497 792 565 792 q 381 840 429 792 q 333 956 333 888 q 381 1072 333 1025 q 497 1120 429 1120 q 613 1072 564 1120 q 661 956 661 1024 m 588 956 q 562 1021 588 996 q 497 1047 536 1047 q 431 1020 457 1047 q 406 956 406 994 q 431 891 406 919 q 497 863 457 863 q 562 890 536 863 q 588 956 588 918 z "},"æ":{"ha":1235,"x_min":22,"x_max":1184,"o":"m 671 341 q 665 264 667 317 q 706 126 665 174 q 830 78 748 78 q 937 109 889 78 q 1015 199 985 140 l 1108 157 q 988 27 1060 67 q 815 -14 916 -14 q 648 34 713 -14 q 560 168 584 81 q 413 30 494 74 q 235 -14 332 -14 q 122 12 171 -14 q 48 84 74 38 q 22 189 22 131 q 114 378 22 314 q 408 446 205 442 l 569 448 q 582 534 582 514 q 441 654 582 654 q 314 626 357 654 q 251 538 271 597 l 130 557 q 240 702 162 657 q 451 747 319 747 q 671 640 602 747 q 905 747 755 747 q 1111 677 1038 747 q 1184 480 1184 606 q 1179 406 1184 448 q 1168 341 1174 364 l 671 341 m 552 362 l 412 359 q 258 338 313 357 q 177 284 203 320 q 151 194 151 248 q 183 111 151 142 q 267 79 214 79 q 394 110 336 79 q 491 192 452 140 q 541 302 530 243 l 552 362 m 1060 435 l 1063 484 q 1023 612 1063 568 q 907 657 983 657 q 767 600 824 657 q 687 435 710 542 l 1060 435 z "},"ç":{"ha":694,"x_min":45,"x_max":679,"o":"m 318 83 q 514 239 457 83 l 620 205 q 315 -14 538 -14 q 115 60 185 -14 q 45 268 45 134 q 95 520 45 404 q 225 692 144 637 q 424 747 306 747 q 605 690 538 747 q 679 532 672 632 l 559 515 q 518 616 555 581 q 420 652 481 652 q 281 606 334 652 q 199 460 229 560 q 170 264 170 361 q 318 83 170 83 m 307 -65 q 389 -93 361 -68 q 416 -157 416 -117 q 211 -288 416 -288 q 139 -283 177 -288 l 153 -222 q 213 -226 186 -226 q 300 -211 275 -226 q 326 -165 326 -196 q 245 -117 326 -117 q 205 -118 215 -117 l 274 0 l 347 0 l 307 -65 z "},"è":{"ha":772,"x_min":47,"x_max":721,"o":"m 174 341 q 168 264 170 317 q 213 126 168 174 q 349 78 258 78 q 468 111 414 78 q 551 199 522 143 l 645 157 q 519 27 595 68 q 334 -14 443 -14 q 122 62 198 -14 q 47 275 47 138 q 95 519 47 411 q 231 687 143 627 q 427 747 318 747 q 644 677 566 747 q 721 480 721 608 q 705 341 721 409 l 174 341 m 597 435 l 600 484 q 556 612 600 568 q 430 657 512 657 q 277 599 339 657 q 190 435 215 541 l 597 435 m 481 814 l 290 1003 l 294 1023 l 434 1023 l 543 828 l 541 814 l 481 814 z "},"é":{"ha":772,"x_min":47,"x_max":721,"o":"m 174 341 q 168 264 170 317 q 213 126 168 174 q 349 78 258 78 q 468 111 414 78 q 551 199 522 143 l 645 157 q 519 27 595 68 q 334 -14 443 -14 q 122 62 198 -14 q 47 275 47 138 q 95 519 47 411 q 231 687 143 627 q 427 747 318 747 q 644 677 566 747 q 721 480 721 608 q 705 341 721 409 l 174 341 m 597 435 l 600 484 q 556 612 600 568 q 430 657 512 657 q 277 599 339 657 q 190 435 215 541 l 597 435 m 361 814 l 363 828 l 535 1023 l 682 1023 l 679 1003 l 425 814 l 361 814 z "},"ê":{"ha":772,"x_min":47,"x_max":721,"o":"m 174 341 q 168 264 170 317 q 213 126 168 174 q 349 78 258 78 q 468 111 414 78 q 551 199 522 143 l 645 157 q 519 27 595 68 q 334 -14 443 -14 q 122 62 198 -14 q 47 275 47 138 q 95 519 47 411 q 231 687 143 627 q 427 747 318 747 q 644 677 566 747 q 721 480 721 608 q 705 341 721 409 l 174 341 m 597 435 l 600 484 q 556 612 600 568 q 430 657 512 657 q 277 599 339 657 q 190 435 215 541 l 597 435 m 678 828 l 675 814 l 613 814 l 487 929 l 486 929 l 306 814 l 227 814 l 230 828 l 424 1011 l 562 1011 l 678 828 z "},"ë":{"ha":772,"x_min":47,"x_max":721,"o":"m 174 341 q 168 264 170 317 q 213 126 168 174 q 349 78 258 78 q 468 111 414 78 q 551 199 522 143 l 645 157 q 519 27 595 68 q 334 -14 443 -14 q 122 62 198 -14 q 47 275 47 138 q 95 519 47 411 q 231 687 143 627 q 427 747 318 747 q 644 677 566 747 q 721 480 721 608 q 705 341 721 409 l 174 341 m 597 435 l 600 484 q 556 612 600 568 q 430 657 512 657 q 277 599 339 657 q 190 435 215 541 l 597 435 m 517 827 l 541 951 l 658 951 l 634 827 l 517 827 m 256 827 l 280 951 l 399 951 l 375 827 l 256 827 z "},"ì":{"ha":386,"x_min":60,"x_max":338,"o":"m 60 0 l 203 734 l 325 734 l 182 0 l 60 0 m 277 814 l 85 1003 l 89 1023 l 229 1023 l 338 828 l 336 814 l 277 814 z "},"í":{"ha":386,"x_min":60,"x_max":498,"o":"m 60 0 l 203 734 l 325 734 l 182 0 l 60 0 m 178 814 l 180 828 l 351 1023 l 498 1023 l 495 1003 l 241 814 l 178 814 z "},"î":{"ha":386,"x_min":39,"x_max":490,"o":"m 60 0 l 203 734 l 325 734 l 182 0 l 60 0 m 490 828 l 488 814 l 425 814 l 299 929 l 298 929 l 118 814 l 39 814 l 42 828 l 236 1011 l 374 1011 l 490 828 z "},"ï":{"ha":386,"x_min":60,"x_max":490,"o":"m 60 0 l 203 734 l 325 734 l 182 0 l 60 0 m 349 827 l 372 951 l 490 951 l 466 827 l 349 827 m 88 827 l 112 951 l 231 951 l 207 827 l 88 827 z "},"ð":{"ha":772,"x_min":45,"x_max":715,"o":"m 424 901 q 292 1006 359 962 l 411 1006 q 517 937 463 980 l 695 1006 l 682 933 l 568 888 q 681 699 647 793 q 715 494 715 605 q 671 229 715 351 q 546 48 627 106 q 333 -10 465 -10 q 122 66 198 -10 q 45 273 45 143 q 89 475 45 382 q 213 616 133 568 q 410 664 293 664 q 513 644 464 664 q 586 593 562 624 q 543 736 573 669 q 473 847 513 802 l 288 770 l 302 852 l 424 901 m 409 574 q 276 536 328 574 q 197 418 224 498 q 170 263 170 338 q 213 127 170 175 q 335 80 256 80 q 443 103 399 80 q 517 174 487 126 q 565 298 547 222 q 583 431 583 375 q 561 501 583 468 q 498 554 538 534 q 409 574 458 574 z "},"ñ":{"ha":772,"x_min":23,"x_max":743,"o":"m 486 0 l 572 437 q 584 539 584 497 q 463 652 584 652 q 312 587 377 652 q 225 411 247 522 l 145 0 l 23 0 l 136 577 q 162 734 149 642 l 277 734 q 270 681 277 726 q 258 608 263 636 l 260 608 q 373 716 317 686 q 508 747 430 747 q 659 697 608 747 q 709 554 709 648 q 695 443 709 511 l 609 0 l 486 0 m 572 814 q 518 827 544 814 q 469 855 492 840 q 424 883 446 870 q 381 895 402 895 q 285 814 313 895 l 224 814 q 297 957 256 918 q 394 996 338 996 q 450 984 424 996 q 499 956 475 971 q 543 928 522 941 q 585 916 564 916 q 680 996 653 916 l 743 996 q 697 888 719 922 q 645 834 675 854 q 572 814 614 814 z "},"ò":{"ha":772,"x_min":50,"x_max":732,"o":"m 732 463 q 705 280 732 375 q 628 118 678 184 q 504 19 577 52 q 337 -14 431 -14 q 127 66 204 -14 q 50 284 50 146 q 100 530 52 422 q 231 692 147 637 q 439 747 315 747 q 657 672 582 747 q 732 463 732 598 m 606 463 q 438 657 606 657 q 291 610 347 657 q 205 467 236 563 q 175 282 175 372 q 218 129 175 182 q 345 77 262 77 q 457 100 414 77 q 531 173 499 123 q 583 300 563 223 q 606 463 603 378 m 488 814 l 297 1003 l 300 1023 l 441 1023 l 550 828 l 548 814 l 488 814 z "},"ó":{"ha":772,"x_min":50,"x_max":732,"o":"m 732 463 q 705 280 732 375 q 628 118 678 184 q 504 19 577 52 q 337 -14 431 -14 q 127 66 204 -14 q 50 284 50 146 q 100 530 52 422 q 231 692 147 637 q 439 747 315 747 q 657 672 582 747 q 732 463 732 598 m 606 463 q 438 657 606 657 q 291 610 347 657 q 205 467 236 563 q 175 282 175 372 q 218 129 175 182 q 345 77 262 77 q 457 100 414 77 q 531 173 499 123 q 583 300 563 223 q 606 463 603 378 m 361 814 l 363 828 l 535 1023 l 682 1023 l 679 1003 l 425 814 l 361 814 z "},"ô":{"ha":772,"x_min":50,"x_max":732,"o":"m 732 463 q 705 280 732 375 q 628 118 678 184 q 504 19 577 52 q 337 -14 431 -14 q 127 66 204 -14 q 50 284 50 146 q 100 530 52 422 q 231 692 147 637 q 439 747 315 747 q 657 672 582 747 q 732 463 732 598 m 606 463 q 438 657 606 657 q 291 610 347 657 q 205 467 236 563 q 175 282 175 372 q 218 129 175 182 q 345 77 262 77 q 457 100 414 77 q 531 173 499 123 q 583 300 563 223 q 606 463 603 378 m 684 828 l 682 814 l 619 814 l 493 929 l 492 929 l 312 814 l 233 814 l 236 828 l 430 1011 l 568 1011 l 684 828 z "},"õ":{"ha":772,"x_min":50,"x_max":732,"o":"m 732 463 q 705 280 732 375 q 628 118 678 184 q 504 19 577 52 q 337 -14 431 -14 q 127 66 204 -14 q 50 284 50 146 q 100 530 52 422 q 231 692 147 637 q 439 747 315 747 q 657 672 582 747 q 732 463 732 598 m 606 463 q 438 657 606 657 q 291 610 347 657 q 205 467 236 563 q 175 282 175 372 q 218 129 175 182 q 345 77 262 77 q 457 100 414 77 q 531 173 499 123 q 583 300 563 223 q 606 463 603 378 m 552 814 q 498 827 524 814 q 449 855 472 840 q 404 883 425 870 q 361 895 382 895 q 264 814 293 895 l 203 814 q 276 957 235 918 q 374 996 317 996 q 429 984 404 996 q 478 956 455 971 q 523 928 502 941 q 564 916 544 916 q 660 996 633 916 l 722 996 q 677 888 699 922 q 625 834 655 854 q 552 814 594 814 z "},"ö":{"ha":772,"x_min":50,"x_max":732,"o":"m 732 463 q 705 280 732 375 q 628 118 678 184 q 504 19 577 52 q 337 -14 431 -14 q 127 66 204 -14 q 50 284 50 146 q 100 530 52 422 q 231 692 147 637 q 439 747 315 747 q 657 672 582 747 q 732 463 732 598 m 606 463 q 438 657 606 657 q 291 610 347 657 q 205 467 236 563 q 175 282 175 372 q 218 129 175 182 q 345 77 262 77 q 457 100 414 77 q 531 173 499 123 q 583 300 563 223 q 606 463 603 378 m 525 827 l 549 951 l 666 951 l 642 827 l 525 827 m 264 827 l 288 951 l 407 951 l 383 827 l 264 827 z "},"÷":{"ha":762,"x_min":56,"x_max":730,"o":"m 336 650 l 336 774 l 450 774 l 450 650 l 336 650 m 56 412 l 56 511 l 730 511 l 730 412 l 56 412 m 336 151 l 336 275 l 450 275 l 450 151 l 336 151 z "},"ø":{"ha":848,"x_min":30,"x_max":817,"o":"m 136 98 q 85 284 85 172 q 135 530 87 422 q 267 692 182 637 q 475 747 351 747 q 656 701 585 747 l 703 757 l 817 757 l 718 642 q 768 463 768 572 q 750 317 768 391 q 372 -10 675 -10 q 197 38 268 -10 l 143 -26 l 30 -26 l 136 98 m 210 282 q 220 196 210 233 l 587 621 q 473 657 544 657 q 327 610 382 657 q 241 467 271 563 q 210 282 210 372 m 642 463 q 632 543 642 508 l 266 117 q 380 80 309 80 q 525 125 472 80 q 607 262 577 170 q 642 463 637 354 z "},"ù":{"ha":772,"x_min":58,"x_max":745,"o":"m 281 734 l 196 296 q 184 195 184 237 q 305 81 184 81 q 456 146 391 81 q 543 323 521 212 l 623 734 l 745 734 l 632 157 q 606 0 618 92 l 490 0 q 497 53 490 7 q 509 125 505 98 l 507 125 q 394 17 451 47 q 260 -13 338 -13 q 109 37 159 -13 q 58 180 58 86 q 73 291 58 223 l 159 734 l 281 734 m 498 814 l 307 1003 l 310 1023 l 450 1023 l 559 828 l 557 814 l 498 814 z "},"ú":{"ha":772,"x_min":58,"x_max":745,"o":"m 281 734 l 196 296 q 184 195 184 237 q 305 81 184 81 q 456 146 391 81 q 543 323 521 212 l 623 734 l 745 734 l 632 157 q 606 0 618 92 l 490 0 q 497 53 490 7 q 509 125 505 98 l 507 125 q 394 17 451 47 q 260 -13 338 -13 q 109 37 159 -13 q 58 180 58 86 q 73 291 58 223 l 159 734 l 281 734 m 367 814 l 369 828 l 541 1023 l 688 1023 l 684 1003 l 431 814 l 367 814 z "},"û":{"ha":772,"x_min":58,"x_max":745,"o":"m 281 734 l 196 296 q 184 195 184 237 q 305 81 184 81 q 456 146 391 81 q 543 323 521 212 l 623 734 l 745 734 l 632 157 q 606 0 618 92 l 490 0 q 497 53 490 7 q 509 125 505 98 l 507 125 q 394 17 451 47 q 260 -13 338 -13 q 109 37 159 -13 q 58 180 58 86 q 73 291 58 223 l 159 734 l 281 734 m 692 828 l 690 814 l 627 814 l 501 929 l 500 929 l 320 814 l 241 814 l 244 828 l 438 1011 l 576 1011 l 692 828 z "},"ü":{"ha":772,"x_min":58,"x_max":745,"o":"m 281 734 l 196 296 q 184 195 184 237 q 305 81 184 81 q 456 146 391 81 q 543 323 521 212 l 623 734 l 745 734 l 632 157 q 606 0 618 92 l 490 0 q 497 53 490 7 q 509 125 505 98 l 507 125 q 394 17 451 47 q 260 -13 338 -13 q 109 37 159 -13 q 58 180 58 86 q 73 291 58 223 l 159 734 l 281 734 m 538 827 l 562 951 l 680 951 l 656 827 l 538 827 m 278 827 l 302 951 l 420 951 l 397 827 l 278 827 z "},"ý":{"ha":694,"x_min":-79,"x_max":764,"o":"m 11 -288 q -79 -279 -38 -288 l -58 -188 q -5 -193 -27 -193 q 108 -150 59 -193 q 205 -24 157 -106 l 223 8 l 76 734 l 200 734 l 276 328 q 295 213 286 274 q 304 133 304 151 q 322 170 311 148 q 629 734 333 191 l 764 734 l 340 0 q 219 -183 264 -131 q 123 -262 173 -236 q 11 -288 73 -288 m 341 814 l 343 828 l 515 1023 l 662 1023 l 659 1003 l 405 814 l 341 814 z "},"þ":{"ha":772,"x_min":-35,"x_max":728,"o":"m 376 -14 q 240 22 292 -14 q 165 121 187 57 l 162 121 q 142 -1 155 62 l 87 -288 l -35 -288 l 217 1006 l 339 1006 l 283 720 q 260 625 277 688 l 262 625 q 367 718 312 689 q 503 747 422 747 q 668 683 609 747 q 728 507 728 619 q 686 240 728 370 q 569 49 644 111 q 376 -14 493 -14 m 467 653 q 352 626 400 653 q 271 543 304 598 q 219 405 238 488 q 200 256 200 321 q 243 124 200 171 q 363 77 286 77 q 496 128 447 77 q 572 291 545 179 q 600 486 600 402 q 568 611 600 569 q 467 653 536 653 z "},"ÿ":{"ha":694,"x_min":-79,"x_max":764,"o":"m 11 -288 q -79 -279 -38 -288 l -58 -188 q -5 -193 -27 -193 q 108 -150 59 -193 q 205 -24 157 -106 l 223 8 l 76 734 l 200 734 l 276 328 q 295 213 286 274 q 304 133 304 151 q 322 170 311 148 q 629 734 333 191 l 764 734 l 340 0 q 219 -183 264 -131 q 123 -262 173 -236 q 11 -288 73 -288 m 500 827 l 524 951 l 642 951 l 618 827 l 500 827 m 240 827 l 264 951 l 382 951 l 359 827 l 240 827 z "},"Ā":{"ha":926,"x_min":-68,"x_max":852,"o":"m 720 0 l 669 279 l 235 279 l 73 0 l -68 0 l 507 956 l 654 956 l 852 0 l 720 0 m 563 858 q 538 811 554 840 q 292 380 522 782 l 650 380 l 581 755 l 563 858 m 764 1065 l 391 1065 l 409 1151 l 782 1151 l 764 1065 z "},"ā":{"ha":772,"x_min":31,"x_max":725,"o":"m 629 -7 q 537 19 566 -7 q 508 97 508 45 l 511 140 l 507 140 q 391 21 451 55 q 245 -14 330 -14 q 91 43 150 -14 q 31 189 31 100 q 121 378 31 314 q 408 446 211 443 l 565 448 q 578 534 578 514 q 542 625 578 595 q 442 654 506 654 q 320 626 361 654 q 260 538 279 597 l 140 557 q 246 702 170 657 q 449 747 321 747 q 632 693 565 747 q 700 547 700 639 q 687 441 700 504 l 637 184 q 629 125 629 152 q 684 75 629 75 q 725 80 703 75 l 715 4 q 629 -7 671 -7 m 549 363 l 414 361 q 287 346 333 359 q 215 314 241 334 q 175 266 190 295 q 161 194 161 236 q 194 111 161 143 q 279 79 227 79 q 397 107 345 79 q 485 181 450 136 q 530 279 519 227 l 549 363 m 650 838 l 277 838 l 295 924 l 668 924 l 650 838 z "},"Ă":{"ha":926,"x_min":-68,"x_max":852,"o":"m 720 0 l 669 279 l 235 279 l 73 0 l -68 0 l 507 956 l 654 956 l 852 0 l 720 0 m 563 858 q 538 811 554 840 q 292 380 522 782 l 650 380 l 581 755 l 563 858 m 591 1031 q 446 1078 500 1031 q 390 1200 391 1124 l 469 1200 q 506 1141 471 1160 q 597 1123 541 1123 q 762 1200 718 1123 l 841 1200 q 741 1074 806 1118 q 591 1031 676 1031 z "},"ă":{"ha":772,"x_min":31,"x_max":725,"o":"m 629 -7 q 537 19 566 -7 q 508 97 508 45 l 511 140 l 507 140 q 391 21 451 55 q 245 -14 330 -14 q 91 43 150 -14 q 31 189 31 100 q 121 378 31 314 q 408 446 211 443 l 565 448 q 578 534 578 514 q 542 625 578 595 q 442 654 506 654 q 320 626 361 654 q 260 538 279 597 l 140 557 q 246 702 170 657 q 449 747 321 747 q 632 693 565 747 q 700 547 700 639 q 687 441 700 504 l 637 184 q 629 125 629 152 q 684 75 629 75 q 725 80 703 75 l 715 4 q 629 -7 671 -7 m 549 363 l 414 361 q 287 346 333 359 q 215 314 241 334 q 175 266 190 295 q 161 194 161 236 q 194 111 161 143 q 279 79 227 79 q 397 107 345 79 q 485 181 450 136 q 530 279 519 227 l 549 363 m 467 814 q 322 872 377 814 q 267 1024 268 930 l 345 1024 q 382 940 347 966 q 473 913 417 913 q 638 1024 595 913 l 718 1024 q 618 869 683 924 q 467 814 553 814 z "},"Ą":{"ha":926,"x_min":-68,"x_max":852,"o":"m 720 0 l 669 279 l 235 279 l 73 0 l -68 0 l 507 956 l 654 956 l 852 0 l 720 0 m 563 858 q 538 811 554 840 q 292 380 522 782 l 650 380 l 581 755 l 563 858 m 702 -290 q 612 -258 642 -290 q 581 -176 581 -226 q 620 -72 581 -119 q 720 0 659 -24 l 810 0 q 713 -75 747 -33 q 680 -160 680 -117 q 693 -199 680 -183 q 732 -215 707 -215 q 810 -200 769 -215 l 800 -271 q 702 -290 754 -290 z "},"ą":{"ha":772,"x_min":31,"x_max":725,"o":"m 629 -7 q 537 19 566 -7 q 508 97 508 45 l 511 140 l 507 140 q 391 21 451 55 q 245 -14 330 -14 q 91 43 150 -14 q 31 189 31 100 q 121 378 31 314 q 408 446 211 443 l 565 448 q 578 534 578 514 q 542 625 578 595 q 442 654 506 654 q 320 626 361 654 q 260 538 279 597 l 140 557 q 246 702 170 657 q 449 747 321 747 q 632 693 565 747 q 700 547 700 639 q 687 441 700 504 l 637 184 q 629 125 629 152 q 684 75 629 75 q 725 80 703 75 l 715 4 q 629 -7 671 -7 m 549 363 l 414 361 q 287 346 333 359 q 215 314 241 334 q 175 266 190 295 q 161 194 161 236 q 194 111 161 143 q 279 79 227 79 q 397 107 345 79 q 485 181 450 136 q 530 279 519 227 l 549 363 m 544 -283 q 454 -251 484 -283 q 423 -169 423 -219 q 462 -65 423 -113 q 562 7 500 -17 l 652 7 q 555 -68 589 -26 q 522 -153 522 -111 q 535 -192 522 -176 q 574 -208 549 -208 q 652 -193 611 -208 l 642 -264 q 544 -283 596 -283 z "},"Ć":{"ha":1003,"x_min":77,"x_max":1010,"o":"m 921 229 q 727 44 836 101 q 475 -14 618 -14 q 261 36 352 -14 q 124 176 171 85 q 77 386 77 267 q 148 688 77 553 q 346 896 219 823 q 628 970 472 970 q 877 908 775 970 q 1010 736 978 847 l 888 699 q 794 819 864 774 q 621 864 724 864 q 401 804 496 864 q 256 635 307 744 q 205 384 205 526 q 279 170 205 248 q 484 92 353 92 q 671 141 584 92 q 824 289 758 191 l 921 229 m 585 1038 l 587 1051 l 764 1204 l 905 1204 l 901 1185 l 663 1038 l 585 1038 z "},"ć":{"ha":694,"x_min":45,"x_max":683,"o":"m 318 83 q 514 239 457 83 l 620 205 q 315 -14 538 -14 q 115 60 185 -14 q 45 268 45 134 q 95 520 45 404 q 225 692 144 637 q 424 747 306 747 q 605 690 538 747 q 679 532 672 632 l 559 515 q 518 616 555 581 q 420 652 481 652 q 281 606 334 652 q 199 460 229 560 q 170 264 170 361 q 318 83 170 83 m 362 814 l 364 828 l 536 1023 l 683 1023 l 680 1003 l 426 814 l 362 814 z "},"Ĉ":{"ha":1003,"x_min":77,"x_max":1010,"o":"m 921 229 q 727 44 836 101 q 475 -14 618 -14 q 261 36 352 -14 q 124 176 171 85 q 77 386 77 267 q 148 688 77 553 q 346 896 219 823 q 628 970 472 970 q 877 908 775 970 q 1010 736 978 847 l 888 699 q 794 819 864 774 q 621 864 724 864 q 401 804 496 864 q 256 635 307 744 q 205 384 205 526 q 279 170 205 248 q 484 92 353 92 q 671 141 584 92 q 824 289 758 191 l 921 229 m 874 1051 l 871 1038 l 807 1038 l 677 1132 l 675 1132 l 500 1038 l 423 1038 l 426 1051 l 616 1214 l 754 1214 l 874 1051 z "},"ĉ":{"ha":694,"x_min":45,"x_max":679,"o":"m 318 83 q 514 239 457 83 l 620 205 q 315 -14 538 -14 q 115 60 185 -14 q 45 268 45 134 q 95 520 45 404 q 225 692 144 637 q 424 747 306 747 q 605 690 538 747 q 679 532 672 632 l 559 515 q 518 616 555 581 q 420 652 481 652 q 281 606 334 652 q 199 460 229 560 q 170 264 170 361 q 318 83 170 83 m 658 828 l 655 814 l 593 814 l 467 929 l 465 929 l 286 814 l 207 814 l 210 828 l 404 1011 l 542 1011 l 658 828 z "},"Ċ":{"ha":1003,"x_min":77,"x_max":1010,"o":"m 921 229 q 727 44 836 101 q 475 -14 618 -14 q 261 36 352 -14 q 124 176 171 85 q 77 386 77 267 q 148 688 77 553 q 346 896 219 823 q 628 970 472 970 q 877 908 775 970 q 1010 736 978 847 l 888 699 q 794 819 864 774 q 621 864 724 864 q 401 804 496 864 q 256 635 307 744 q 205 384 205 526 q 279 170 205 248 q 484 92 353 92 q 671 141 584 92 q 824 289 758 191 l 921 229 m 588 1038 l 611 1154 l 733 1154 l 710 1038 l 588 1038 z "},"ċ":{"ha":694,"x_min":45,"x_max":679,"o":"m 318 83 q 514 239 457 83 l 620 205 q 315 -14 538 -14 q 115 60 185 -14 q 45 268 45 134 q 95 520 45 404 q 225 692 144 637 q 424 747 306 747 q 605 690 538 747 q 679 532 672 632 l 559 515 q 518 616 555 581 q 420 652 481 652 q 281 606 334 652 q 199 460 229 560 q 170 264 170 361 q 318 83 170 83 m 399 890 l 422 1006 l 545 1006 l 522 890 l 399 890 z "},"Č":{"ha":1003,"x_min":77,"x_max":1010,"o":"m 921 229 q 727 44 836 101 q 475 -14 618 -14 q 261 36 352 -14 q 124 176 171 85 q 77 386 77 267 q 148 688 77 553 q 346 896 219 823 q 628 970 472 970 q 877 908 775 970 q 1010 736 978 847 l 888 699 q 794 819 864 774 q 621 864 724 864 q 401 804 496 864 q 256 635 307 744 q 205 384 205 526 q 279 170 205 248 q 484 92 353 92 q 671 141 584 92 q 824 289 758 191 l 921 229 m 716 1038 l 578 1038 l 451 1200 l 454 1214 l 517 1214 l 656 1120 l 657 1120 l 824 1214 l 903 1214 l 900 1200 l 716 1038 z "},"č":{"ha":694,"x_min":45,"x_max":689,"o":"m 318 83 q 514 239 457 83 l 620 205 q 315 -14 538 -14 q 115 60 185 -14 q 45 268 45 134 q 95 520 45 404 q 225 692 144 637 q 424 747 306 747 q 605 690 538 747 q 679 532 672 632 l 559 515 q 518 616 555 581 q 420 652 481 652 q 281 606 334 652 q 199 460 229 560 q 170 264 170 361 q 318 83 170 83 m 498 814 l 360 814 l 237 998 l 240 1011 l 306 1011 l 441 897 l 442 897 l 613 1011 l 689 1011 l 686 998 l 498 814 z "},"Ď":{"ha":1003,"x_min":43,"x_max":958,"o":"m 505 956 q 837 844 716 956 q 958 536 958 732 q 888 256 958 376 q 687 68 819 136 q 390 0 556 0 l 43 0 l 228 956 l 505 956 m 192 104 l 385 104 q 618 156 517 104 q 773 308 719 209 q 827 538 827 406 q 741 769 827 686 q 502 852 656 852 l 338 852 l 192 104 m 638 1038 l 500 1038 l 373 1200 l 376 1214 l 439 1214 l 578 1120 l 579 1120 l 746 1214 l 825 1214 l 822 1200 l 638 1038 z "},"ď":{"ha":868,"x_min":47,"x_max":1003,"o":"m 272 -14 q 106 50 165 -14 q 47 226 47 114 q 89 493 47 363 q 206 684 130 622 q 399 747 281 747 q 535 711 482 747 q 609 612 587 676 l 612 612 l 631 722 l 687 1006 l 809 1006 l 643 151 q 617 0 623 56 l 500 0 q 515 109 500 35 l 511 109 q 407 15 462 44 q 272 -14 352 -14 m 307 80 q 422 107 374 80 q 503 190 470 135 q 555 329 536 245 q 574 477 574 412 q 531 609 574 562 q 412 656 488 656 q 281 607 329 656 q 203 447 233 558 q 174 248 174 335 q 206 122 174 164 q 307 80 238 80 m 899 764 l 820 764 q 909 893 897 833 l 849 893 l 871 1006 l 1003 1006 l 989 935 q 955 836 978 876 q 899 764 932 796 z "},"Đ":{"ha":1003,"x_min":23,"x_max":972,"o":"m 518 956 q 851 844 730 956 q 972 536 972 732 q 905 257 972 378 q 709 68 838 136 q 415 0 580 0 l 43 0 l 127 439 l 23 439 l 43 543 l 148 543 l 228 956 l 518 956 m 277 543 l 553 543 l 532 439 l 257 439 l 192 104 l 398 104 q 631 156 530 104 q 786 308 732 209 q 840 538 840 406 q 755 769 840 686 q 515 852 669 852 l 338 852 l 277 543 z "},"đ":{"ha":772,"x_min":47,"x_max":880,"o":"m 307 80 q 422 107 374 80 q 503 190 470 135 q 555 329 536 245 q 574 477 574 412 q 531 609 574 562 q 412 656 488 656 q 281 607 329 656 q 203 447 233 558 q 174 248 174 335 q 206 122 174 164 q 307 80 238 80 m 272 -14 q 106 50 165 -14 q 47 226 47 114 q 89 493 47 363 q 206 684 130 622 q 399 747 281 747 q 535 711 482 747 q 609 612 587 676 l 612 612 l 651 818 l 448 818 l 465 907 l 668 907 l 688 1006 l 810 1006 l 790 907 l 880 907 l 863 818 l 773 818 l 643 151 q 617 0 623 56 l 500 0 q 515 109 500 35 l 512 109 q 408 15 463 44 q 272 -14 353 -14 z "},"Ē":{"ha":926,"x_min":43,"x_max":939,"o":"m 43 0 l 228 956 l 939 956 l 919 850 l 337 850 l 277 543 l 819 543 l 798 439 l 257 439 l 193 106 l 802 106 l 782 0 l 43 0 m 785 1065 l 412 1065 l 430 1151 l 803 1151 l 785 1065 z "},"ē":{"ha":772,"x_min":47,"x_max":721,"o":"m 174 341 q 168 264 170 317 q 213 126 168 174 q 349 78 258 78 q 468 111 414 78 q 551 199 522 143 l 645 157 q 519 27 595 68 q 334 -14 443 -14 q 122 62 198 -14 q 47 275 47 138 q 95 519 47 411 q 231 687 143 627 q 427 747 318 747 q 644 677 566 747 q 721 480 721 608 q 705 341 721 409 l 174 341 m 597 435 l 600 484 q 556 612 600 568 q 430 657 512 657 q 277 599 339 657 q 190 435 215 541 l 597 435 m 645 838 l 272 838 l 290 924 l 663 924 l 645 838 z "},"Ĕ":{"ha":926,"x_min":43,"x_max":939,"o":"m 43 0 l 228 956 l 939 956 l 919 850 l 337 850 l 277 543 l 819 543 l 798 439 l 257 439 l 193 106 l 802 106 l 782 0 l 43 0 m 574 1031 q 430 1078 484 1031 q 374 1200 375 1124 l 452 1200 q 489 1141 454 1160 q 581 1123 524 1123 q 745 1200 702 1123 l 825 1200 q 725 1074 789 1118 q 574 1031 660 1031 z "},"ĕ":{"ha":772,"x_min":47,"x_max":724,"o":"m 174 341 q 168 264 170 317 q 213 126 168 174 q 349 78 258 78 q 468 111 414 78 q 551 199 522 143 l 645 157 q 519 27 595 68 q 334 -14 443 -14 q 122 62 198 -14 q 47 275 47 138 q 95 519 47 411 q 231 687 143 627 q 427 747 318 747 q 644 677 566 747 q 721 480 721 608 q 705 341 721 409 l 174 341 m 597 435 l 600 484 q 556 612 600 568 q 430 657 512 657 q 277 599 339 657 q 190 435 215 541 l 597 435 m 473 814 q 329 872 383 814 q 273 1024 274 930 l 351 1024 q 388 940 353 966 q 479 913 423 913 q 644 1024 601 913 l 724 1024 q 624 869 689 924 q 473 814 559 814 z "},"Ė":{"ha":926,"x_min":43,"x_max":939,"o":"m 43 0 l 228 956 l 939 956 l 919 850 l 337 850 l 277 543 l 819 543 l 798 439 l 257 439 l 193 106 l 802 106 l 782 0 l 43 0 m 530 1038 l 553 1154 l 675 1154 l 652 1038 l 530 1038 z "},"ė":{"ha":772,"x_min":47,"x_max":721,"o":"m 174 341 q 168 264 170 317 q 213 126 168 174 q 349 78 258 78 q 468 111 414 78 q 551 199 522 143 l 645 157 q 519 27 595 68 q 334 -14 443 -14 q 122 62 198 -14 q 47 275 47 138 q 95 519 47 411 q 231 687 143 627 q 427 747 318 747 q 644 677 566 747 q 721 480 721 608 q 705 341 721 409 l 174 341 m 597 435 l 600 484 q 556 612 600 568 q 430 657 512 657 q 277 599 339 657 q 190 435 215 541 l 597 435 m 410 890 l 433 1006 l 555 1006 l 532 890 l 410 890 z "},"Ę":{"ha":926,"x_min":43,"x_max":939,"o":"m 43 0 l 228 956 l 939 956 l 919 850 l 337 850 l 277 543 l 819 543 l 798 439 l 257 439 l 193 106 l 802 106 l 782 0 l 43 0 m 583 -290 q 493 -258 524 -290 q 463 -176 463 -226 q 501 -72 463 -119 q 602 0 540 -24 l 692 0 q 595 -75 629 -33 q 561 -160 561 -117 q 574 -199 561 -183 q 614 -215 588 -215 q 691 -200 650 -215 l 681 -271 q 583 -290 635 -290 z "},"ę":{"ha":772,"x_min":47,"x_max":721,"o":"m 174 341 q 168 264 170 317 q 213 126 168 174 q 349 78 258 78 q 468 111 414 78 q 551 199 522 143 l 645 157 q 519 27 595 68 q 334 -14 443 -14 q 122 62 198 -14 q 47 275 47 138 q 95 519 47 411 q 231 687 143 627 q 427 747 318 747 q 644 677 566 747 q 721 480 721 608 q 705 341 721 409 l 174 341 m 597 435 l 600 484 q 556 612 600 568 q 430 657 512 657 q 277 599 339 657 q 190 435 215 541 l 597 435 m 381 -276 q 291 -244 321 -276 q 260 -162 260 -212 q 299 -58 260 -106 q 399 14 338 -10 l 490 14 q 393 -61 427 -19 q 359 -146 359 -104 q 372 -185 359 -170 q 412 -201 386 -201 q 489 -186 448 -201 l 479 -258 q 381 -276 433 -276 z "},"Ě":{"ha":926,"x_min":43,"x_max":939,"o":"m 43 0 l 228 956 l 939 956 l 919 850 l 337 850 l 277 543 l 819 543 l 798 439 l 257 439 l 193 106 l 802 106 l 782 0 l 43 0 m 668 1038 l 530 1038 l 403 1200 l 406 1214 l 469 1214 l 608 1120 l 609 1120 l 776 1214 l 854 1214 l 852 1200 l 668 1038 z "},"ě":{"ha":772,"x_min":47,"x_max":721,"o":"m 174 341 q 168 264 170 317 q 213 126 168 174 q 349 78 258 78 q 468 111 414 78 q 551 199 522 143 l 645 157 q 519 27 595 68 q 334 -14 443 -14 q 122 62 198 -14 q 47 275 47 138 q 95 519 47 411 q 231 687 143 627 q 427 747 318 747 q 644 677 566 747 q 721 480 721 608 q 705 341 721 409 l 174 341 m 597 435 l 600 484 q 556 612 600 568 q 430 657 512 657 q 277 599 339 657 q 190 435 215 541 l 597 435 m 528 814 l 389 814 l 267 998 l 269 1011 l 335 1011 l 470 897 l 471 897 l 642 1011 l 718 1011 l 715 998 l 528 814 z "},"Ĝ":{"ha":1080,"x_min":68,"x_max":1021,"o":"m 503 -14 q 182 92 296 -14 q 68 389 68 198 q 140 691 68 557 q 341 897 211 824 q 640 970 472 970 q 887 913 791 970 q 1021 745 983 856 l 890 708 q 799 825 865 786 q 632 864 733 864 q 404 806 502 864 q 254 640 306 747 q 201 391 201 532 q 281 170 201 248 q 507 92 361 92 q 686 118 601 92 q 835 197 772 145 l 869 370 l 584 370 l 606 478 l 1010 478 l 943 142 q 740 24 848 61 q 503 -14 633 -14 m 876 1051 l 873 1038 l 808 1038 l 678 1132 l 677 1132 l 501 1038 l 425 1038 l 427 1051 l 617 1214 l 755 1214 l 876 1051 z "},"ĝ":{"ha":772,"x_min":3,"x_max":760,"o":"m 269 -288 q 3 -117 39 -288 l 113 -89 q 272 -195 137 -195 q 421 -145 368 -195 q 496 18 474 -96 l 519 136 l 517 136 q 443 50 475 76 q 371 9 411 23 q 278 -5 330 -5 q 111 63 174 -5 q 47 243 47 131 q 73 438 47 334 q 142 612 98 543 q 250 714 186 681 q 399 747 313 747 q 537 708 481 747 q 610 608 594 669 l 612 608 q 629 681 616 633 q 644 734 641 728 l 760 734 l 747 678 l 727 582 l 618 21 q 501 -216 585 -143 q 269 -288 417 -288 m 176 253 q 211 128 176 171 q 316 85 247 85 q 449 138 389 85 q 542 284 509 191 q 574 477 574 377 q 531 609 574 562 q 412 656 488 656 q 310 631 351 656 q 241 553 269 606 q 195 410 214 499 q 176 253 176 321 m 665 828 l 662 814 l 600 814 l 473 929 l 472 929 l 292 814 l 214 814 l 216 828 l 410 1011 l 549 1011 l 665 828 z "},"Ğ":{"ha":1080,"x_min":68,"x_max":1021,"o":"m 503 -14 q 182 92 296 -14 q 68 389 68 198 q 140 691 68 557 q 341 897 211 824 q 640 970 472 970 q 887 913 791 970 q 1021 745 983 856 l 890 708 q 799 825 865 786 q 632 864 733 864 q 404 806 502 864 q 254 640 306 747 q 201 391 201 532 q 281 170 201 248 q 507 92 361 92 q 686 118 601 92 q 835 197 772 145 l 869 370 l 584 370 l 606 478 l 1010 478 l 943 142 q 740 24 848 61 q 503 -14 633 -14 m 648 1031 q 504 1078 558 1031 q 448 1200 449 1124 l 526 1200 q 563 1141 528 1160 q 654 1123 598 1123 q 819 1200 776 1123 l 899 1200 q 799 1074 863 1118 q 648 1031 734 1031 z "},"ğ":{"ha":772,"x_min":3,"x_max":760,"o":"m 269 -288 q 3 -117 39 -288 l 113 -89 q 272 -195 137 -195 q 421 -145 368 -195 q 496 18 474 -96 l 519 136 l 517 136 q 443 50 475 76 q 371 9 411 23 q 278 -5 330 -5 q 111 63 174 -5 q 47 243 47 131 q 73 438 47 334 q 142 612 98 543 q 250 714 186 681 q 399 747 313 747 q 537 708 481 747 q 610 608 594 669 l 612 608 q 629 681 616 633 q 644 734 641 728 l 760 734 l 747 678 l 727 582 l 618 21 q 501 -216 585 -143 q 269 -288 417 -288 m 176 253 q 211 128 176 171 q 316 85 247 85 q 449 138 389 85 q 542 284 509 191 q 574 477 574 377 q 531 609 574 562 q 412 656 488 656 q 310 631 351 656 q 241 553 269 606 q 195 410 214 499 q 176 253 176 321 m 458 814 q 313 872 368 814 q 257 1024 258 930 l 336 1024 q 373 940 338 966 q 464 913 408 913 q 629 1024 585 913 l 708 1024 q 609 869 673 924 q 458 814 544 814 z "},"Ġ":{"ha":1080,"x_min":68,"x_max":1021,"o":"m 503 -14 q 182 92 296 -14 q 68 389 68 198 q 140 691 68 557 q 341 897 211 824 q 640 970 472 970 q 887 913 791 970 q 1021 745 983 856 l 890 708 q 799 825 865 786 q 632 864 733 864 q 404 806 502 864 q 254 640 306 747 q 201 391 201 532 q 281 170 201 248 q 507 92 361 92 q 686 118 601 92 q 835 197 772 145 l 869 370 l 584 370 l 606 478 l 1010 478 l 943 142 q 740 24 848 61 q 503 -14 633 -14 m 589 1038 l 612 1154 l 734 1154 l 711 1038 l 589 1038 z "},"ġ":{"ha":772,"x_min":3,"x_max":760,"o":"m 269 -288 q 3 -117 39 -288 l 113 -89 q 272 -195 137 -195 q 421 -145 368 -195 q 496 18 474 -96 l 519 136 l 517 136 q 443 50 475 76 q 371 9 411 23 q 278 -5 330 -5 q 111 63 174 -5 q 47 243 47 131 q 73 438 47 334 q 142 612 98 543 q 250 714 186 681 q 399 747 313 747 q 537 708 481 747 q 610 608 594 669 l 612 608 q 629 681 616 633 q 644 734 641 728 l 760 734 l 747 678 l 727 582 l 618 21 q 501 -216 585 -143 q 269 -288 417 -288 m 176 253 q 211 128 176 171 q 316 85 247 85 q 449 138 389 85 q 542 284 509 191 q 574 477 574 377 q 531 609 574 562 q 412 656 488 656 q 310 631 351 656 q 241 553 269 606 q 195 410 214 499 q 176 253 176 321 m 422 890 l 446 1006 l 568 1006 l 545 890 l 422 890 z "},"Ģ":{"ha":1080,"x_min":68,"x_max":1021,"o":"m 503 -14 q 182 92 296 -14 q 68 389 68 198 q 140 691 68 557 q 341 897 211 824 q 640 970 472 970 q 887 913 791 970 q 1021 745 983 856 l 890 708 q 799 825 865 786 q 632 864 733 864 q 404 806 502 864 q 254 640 306 747 q 201 391 201 532 q 281 170 201 248 q 507 92 361 92 q 686 118 601 92 q 835 197 772 145 l 869 370 l 584 370 l 606 478 l 1010 478 l 943 142 q 740 24 848 61 q 503 -14 633 -14 m 471 -309 l 391 -309 q 480 -180 469 -240 l 420 -180 l 442 -66 l 574 -66 l 561 -138 q 527 -237 549 -197 q 471 -309 504 -277 z "},"ģ":{"ha":772,"x_min":3,"x_max":760,"o":"m 269 -288 q 3 -117 39 -288 l 113 -89 q 272 -195 137 -195 q 421 -145 368 -195 q 496 18 474 -96 l 519 136 l 517 136 q 443 50 475 76 q 371 9 411 23 q 278 -5 330 -5 q 111 63 174 -5 q 47 243 47 131 q 73 438 47 334 q 142 612 98 543 q 250 714 186 681 q 399 747 313 747 q 537 708 481 747 q 610 608 594 669 l 612 608 q 629 681 616 633 q 644 734 641 728 l 760 734 l 747 678 l 727 582 l 618 21 q 501 -216 585 -143 q 269 -288 417 -288 m 176 253 q 211 128 176 171 q 316 85 247 85 q 449 138 389 85 q 542 284 509 191 q 574 477 574 377 q 531 609 574 562 q 412 656 488 656 q 310 631 351 656 q 241 553 269 606 q 195 410 214 499 q 176 253 176 321 m 497 1063 l 576 1063 q 488 935 499 995 l 547 935 l 526 821 l 393 821 l 407 893 q 441 992 418 952 q 497 1063 464 1031 z "},"Ĥ":{"ha":1003,"x_min":43,"x_max":1004,"o":"m 692 0 l 779 443 l 258 443 l 172 0 l 43 0 l 229 956 l 358 956 l 279 551 l 800 551 l 878 956 l 1004 956 l 819 0 l 692 0 m 853 1051 l 850 1038 l 786 1038 l 656 1132 l 654 1132 l 479 1038 l 402 1038 l 405 1051 l 595 1214 l 733 1214 l 853 1051 z "},"ĥ":{"ha":772,"x_min":23,"x_max":764,"o":"m 260 608 q 373 716 316 686 q 507 747 429 747 q 658 697 608 747 q 709 554 709 648 q 694 443 709 511 l 608 0 l 486 0 l 571 437 q 583 539 583 497 q 462 652 583 652 q 311 587 376 652 q 224 411 246 522 l 144 0 l 23 0 l 218 1006 l 340 1006 l 290 745 q 258 608 277 677 l 260 608 m 764 1105 l 762 1091 l 697 1091 l 567 1185 l 566 1185 l 390 1091 l 313 1091 l 316 1105 l 506 1267 l 644 1267 l 764 1105 z "},"Ħ":{"ha":1003,"x_min":42,"x_max":1077,"o":"m 692 0 l 777 443 l 257 443 l 172 0 l 42 0 l 177 695 l 73 695 l 93 800 l 197 800 l 227 956 l 357 956 l 327 800 l 847 800 l 877 956 l 1003 956 l 973 800 l 1077 800 l 1057 695 l 953 695 l 818 0 l 692 0 m 799 551 l 827 695 l 307 695 l 279 551 l 799 551 z "},"ħ":{"ha":772,"x_min":23,"x_max":703,"o":"m 254 581 q 367 689 311 659 q 502 720 424 720 q 653 670 602 720 q 703 527 703 621 q 689 416 703 484 l 608 0 l 486 0 l 566 410 q 578 512 578 470 q 456 625 578 625 q 306 560 371 625 q 219 384 241 495 l 144 0 l 23 0 l 182 818 l 93 818 l 110 907 l 199 907 l 218 1006 l 340 1006 l 321 907 l 525 907 l 508 818 l 304 818 q 265 632 275 669 q 252 581 256 595 l 254 581 z "},"Ĩ":{"ha":386,"x_min":55,"x_max":602,"o":"m 55 0 l 241 956 l 370 956 l 184 0 l 55 0 m 432 1038 q 378 1051 404 1038 q 329 1081 352 1065 q 284 1112 305 1098 q 241 1125 262 1125 q 189 1105 210 1125 q 151 1038 168 1085 l 83 1038 q 156 1180 115 1141 q 254 1219 197 1219 q 309 1206 283 1219 q 358 1176 335 1192 q 402 1145 381 1159 q 444 1132 423 1132 q 533 1219 505 1132 l 602 1219 q 557 1111 578 1145 q 505 1057 535 1077 q 432 1038 474 1038 z "},"ĩ":{"ha":309,"x_min":-9,"x_max":509,"o":"m 23 0 l 165 734 l 288 734 l 144 0 l 23 0 m 339 814 q 285 827 311 814 q 236 855 259 840 q 191 883 212 870 q 148 895 169 895 q 52 814 80 895 l -9 814 q 63 957 22 918 q 161 996 104 996 q 216 984 191 996 q 266 956 242 971 q 310 928 289 941 q 351 916 331 916 q 447 996 420 916 l 509 996 q 464 888 486 922 q 412 834 442 854 q 339 814 381 814 z "},"Ī":{"ha":386,"x_min":55,"x_max":522,"o":"m 55 0 l 241 956 l 370 956 l 184 0 l 55 0 m 505 1065 l 132 1065 l 149 1151 l 522 1151 l 505 1065 z "},"ī":{"ha":309,"x_min":23,"x_max":445,"o":"m 23 0 l 165 734 l 288 734 l 144 0 l 23 0 m 427 838 l 54 838 l 72 924 l 445 924 l 427 838 z "},"Ĭ":{"ha":386,"x_min":55,"x_max":565,"o":"m 55 0 l 241 956 l 370 956 l 184 0 l 55 0 m 315 1031 q 170 1078 224 1031 q 114 1200 115 1124 l 193 1200 q 230 1141 195 1160 q 321 1123 264 1123 q 486 1200 442 1123 l 565 1200 q 465 1074 530 1118 q 315 1031 400 1031 z "},"ĭ":{"ha":309,"x_min":23,"x_max":493,"o":"m 23 0 l 165 734 l 288 734 l 144 0 l 23 0 m 243 814 q 98 872 153 814 q 42 1024 43 930 l 121 1024 q 158 940 123 966 q 249 913 193 913 q 414 1024 370 913 l 493 1024 q 394 869 458 924 q 243 814 329 814 z "},"Į":{"ha":386,"x_min":-43,"x_max":370,"o":"m 55 0 l 241 956 l 370 956 l 184 0 l 55 0 m 77 -290 q -13 -258 18 -290 q -43 -176 -43 -226 q -5 -72 -43 -119 q 96 0 34 -24 l 186 0 q 89 -75 123 -33 q 55 -160 55 -117 q 68 -199 55 -183 q 108 -215 82 -215 q 185 -200 144 -215 l 175 -271 q 77 -290 130 -290 z "},"į":{"ha":309,"x_min":-85,"x_max":340,"o":"m 195 890 l 218 1006 l 340 1006 l 317 890 l 195 890 m 22 0 l 165 734 l 287 734 l 144 0 l 22 0 m 36 -290 q -54 -258 -24 -290 q -85 -176 -85 -226 q -46 -72 -85 -119 q 54 0 -7 -24 l 144 0 q 47 -75 81 -33 q 14 -160 14 -117 q 27 -199 14 -183 q 66 -215 41 -215 q 144 -200 103 -215 l 134 -271 q 36 -290 88 -290 z "},"İ":{"ha":386,"x_min":55,"x_max":400,"o":"m 55 0 l 241 956 l 370 956 l 184 0 l 55 0 m 255 1038 l 278 1154 l 400 1154 l 377 1038 l 255 1038 z "},"ı":{"ha":386,"x_min":60,"x_max":325,"o":"m 60 0 l 203 734 l 325 734 l 182 0 l 60 0 z "},"Ĳ":{"ha":1019,"x_min":55,"x_max":1029,"o":"m 55 0 l 241 956 l 370 956 l 184 0 l 55 0 m 583 -14 q 407 50 475 -14 q 321 233 338 113 l 435 255 q 488 134 450 176 q 594 92 526 92 q 709 141 665 92 q 774 298 753 190 l 880 850 l 683 850 l 703 956 l 1029 956 l 899 287 q 792 61 869 135 q 583 -14 715 -14 z "},"ĳ":{"ha":616,"x_min":22,"x_max":648,"o":"m 195 890 l 218 1006 l 340 1006 l 317 890 l 195 890 m 22 0 l 165 734 l 287 734 l 144 0 l 22 0 m 504 890 l 526 1006 l 648 1006 l 626 890 l 504 890 m 240 -288 q 153 -279 202 -288 l 168 -186 q 224 -192 203 -192 q 285 -163 264 -192 q 317 -73 305 -135 l 473 734 l 595 734 l 435 -91 q 366 -243 414 -198 q 240 -288 319 -288 z "},"Ĵ":{"ha":694,"x_min":-3,"x_max":794,"o":"m 258 -14 q 82 50 151 -14 q -3 233 14 113 l 111 255 q 164 134 126 176 q 270 92 202 92 q 385 141 341 92 q 450 298 429 190 l 556 850 l 359 850 l 379 956 l 705 956 l 574 287 q 468 61 545 135 q 258 -14 391 -14 m 794 1051 l 791 1038 l 727 1038 l 597 1132 l 595 1132 l 420 1038 l 343 1038 l 346 1051 l 536 1214 l 674 1214 l 794 1051 z "},"ĵ":{"ha":309,"x_min":-155,"x_max":454,"o":"m 454 828 l 451 814 l 389 814 l 262 929 l 261 929 l 81 814 l 3 814 l 5 828 l 199 1011 l 338 1011 l 454 828 m -68 -288 q -155 -279 -106 -288 l -140 -186 q -83 -192 -104 -192 q -23 -163 -43 -192 q 9 -73 -3 -135 l 165 734 l 288 734 l 127 -91 q 58 -243 106 -198 q -68 -288 11 -288 z "},"Ķ":{"ha":926,"x_min":43,"x_max":977,"o":"m 693 0 l 373 457 l 244 370 l 172 0 l 43 0 l 228 956 l 357 956 l 265 487 l 360 574 l 811 956 l 977 956 l 469 528 l 846 0 l 693 0 m 384 -309 l 304 -309 q 393 -180 382 -240 l 334 -180 l 355 -66 l 488 -66 l 474 -138 q 440 -237 463 -197 q 384 -309 417 -277 z "},"ķ":{"ha":694,"x_min":23,"x_max":753,"o":"m 489 0 l 307 340 l 193 256 l 144 0 l 23 0 l 218 1006 l 340 1006 l 219 385 l 357 513 l 602 734 l 753 734 l 393 418 l 621 0 l 489 0 m 281 -309 l 201 -309 q 290 -180 279 -240 l 231 -180 l 252 -66 l 385 -66 l 371 -138 q 337 -237 359 -197 q 281 -309 314 -277 z "},"ĸ":{"ha":694,"x_min":23,"x_max":753,"o":"m 489 0 l 307 340 l 193 256 l 144 0 l 23 0 l 165 734 l 288 734 l 219 385 l 357 513 l 602 734 l 753 734 l 393 418 l 621 0 l 489 0 z "},"Ĺ":{"ha":772,"x_min":43,"x_max":675,"o":"m 43 0 l 228 956 l 357 956 l 193 106 l 675 106 l 655 0 l 43 0 m 299 1038 l 301 1051 l 478 1204 l 618 1204 l 615 1185 l 376 1038 l 299 1038 z "},"ĺ":{"ha":309,"x_min":22,"x_max":529,"o":"m 22 0 l 218 1006 l 340 1006 l 144 0 l 22 0 m 210 1091 l 212 1105 l 389 1258 l 529 1258 l 526 1238 l 287 1091 l 210 1091 z "},"Ļ":{"ha":772,"x_min":43,"x_max":675,"o":"m 43 0 l 228 956 l 357 956 l 193 106 l 675 106 l 655 0 l 43 0 m 318 -309 l 239 -309 q 328 -180 316 -240 l 268 -180 l 290 -66 l 422 -66 l 408 -138 q 374 -237 397 -197 q 318 -309 351 -277 z "},"ļ":{"ha":309,"x_min":-46,"x_max":340,"o":"m 22 0 l 218 1006 l 340 1006 l 144 0 l 22 0 m 33 -309 l -46 -309 q 43 -180 31 -240 l -17 -180 l 5 -66 l 137 -66 l 123 -138 q 89 -237 112 -197 q 33 -309 66 -277 z "},"Ľ":{"ha":772,"x_min":43,"x_max":713,"o":"m 43 0 l 228 956 l 357 956 l 193 106 l 675 106 l 655 0 l 43 0 m 609 713 l 530 713 q 618 842 607 782 l 559 842 l 581 956 l 713 956 l 699 884 q 665 785 688 825 q 609 713 642 745 z "},"ľ":{"ha":391,"x_min":22,"x_max":536,"o":"m 22 0 l 218 1006 l 340 1006 l 144 0 l 22 0 m 432 764 l 353 764 q 441 893 430 833 l 382 893 l 404 1006 l 536 1006 l 522 935 q 488 836 511 876 q 432 764 465 796 z "},"Ŀ":{"ha":772,"x_min":43,"x_max":675,"o":"m 43 0 l 228 956 l 357 956 l 193 106 l 675 106 l 655 0 l 43 0 m 459 465 l 482 582 l 604 582 l 581 465 l 459 465 z "},"ŀ":{"ha":555,"x_min":22,"x_max":513,"o":"m 22 0 l 218 1006 l 340 1006 l 144 0 l 22 0 m 368 465 l 391 582 l 513 582 l 490 465 l 368 465 z "},"Ł":{"ha":772,"x_min":1,"x_max":674,"o":"m 191 106 l 674 106 l 653 0 l 41 0 l 112 365 l 1 307 l 21 414 l 133 472 l 227 956 l 356 956 l 277 547 l 484 647 l 463 541 l 256 439 l 191 106 z "},"ł":{"ha":309,"x_min":1,"x_max":343,"o":"m 22 0 l 93 368 l 1 321 l 22 429 l 113 475 l 217 1006 l 339 1006 l 250 545 l 343 594 l 322 486 l 229 438 l 143 0 l 22 0 z "},"Ń":{"ha":1003,"x_min":43,"x_max":1004,"o":"m 669 0 l 309 821 q 281 640 294 705 l 158 0 l 43 0 l 228 956 l 372 956 l 734 132 q 764 324 751 260 l 887 956 l 1004 956 l 819 0 l 669 0 m 541 1038 l 543 1051 l 720 1204 l 860 1204 l 857 1185 l 618 1038 l 541 1038 z "},"ń":{"ha":772,"x_min":26,"x_max":712,"o":"m 489 0 l 574 437 q 587 539 587 497 q 465 652 587 652 q 315 587 380 652 q 228 411 250 522 l 148 0 l 26 0 l 138 577 q 165 734 152 642 l 280 734 q 273 681 280 726 q 261 608 266 636 l 263 608 q 376 716 319 686 q 511 747 433 747 q 662 697 611 747 q 712 554 712 648 q 698 443 712 511 l 612 0 l 489 0 m 382 814 l 384 828 l 555 1023 l 703 1023 l 699 1003 l 446 814 l 382 814 z "},"Ņ":{"ha":1003,"x_min":43,"x_max":1004,"o":"m 669 0 l 309 821 q 281 640 294 705 l 158 0 l 43 0 l 228 956 l 372 956 l 734 132 q 764 324 751 260 l 887 956 l 1004 956 l 819 0 l 669 0 m 389 -309 l 310 -309 q 399 -180 387 -240 l 339 -180 l 361 -66 l 493 -66 l 479 -138 q 445 -237 468 -197 q 389 -309 422 -277 z "},"ņ":{"ha":772,"x_min":26,"x_max":712,"o":"m 489 0 l 574 437 q 587 539 587 497 q 465 652 587 652 q 315 587 380 652 q 228 411 250 522 l 148 0 l 26 0 l 138 577 q 165 734 152 642 l 280 734 q 273 681 280 726 q 261 608 266 636 l 263 608 q 376 716 319 686 q 511 747 433 747 q 662 697 611 747 q 712 554 712 648 q 698 443 712 511 l 612 0 l 489 0 m 281 -309 l 201 -309 q 290 -180 279 -240 l 231 -180 l 252 -66 l 385 -66 l 371 -138 q 337 -237 359 -197 q 281 -309 314 -277 z "},"Ň":{"ha":1003,"x_min":43,"x_max":1004,"o":"m 669 0 l 309 821 q 281 640 294 705 l 158 0 l 43 0 l 228 956 l 372 956 l 734 132 q 764 324 751 260 l 887 956 l 1004 956 l 819 0 l 669 0 m 696 1038 l 558 1038 l 431 1200 l 434 1214 l 497 1214 l 636 1120 l 637 1120 l 804 1214 l 883 1214 l 880 1200 l 696 1038 z "},"ň":{"ha":772,"x_min":26,"x_max":723,"o":"m 489 0 l 574 437 q 587 539 587 497 q 465 652 587 652 q 315 587 380 652 q 228 411 250 522 l 148 0 l 26 0 l 138 577 q 165 734 152 642 l 280 734 q 273 681 280 726 q 261 608 266 636 l 263 608 q 376 716 319 686 q 511 747 433 747 q 662 697 611 747 q 712 554 712 648 q 698 443 712 511 l 612 0 l 489 0 m 532 814 l 394 814 l 271 998 l 274 1011 l 340 1011 l 475 897 l 476 897 l 647 1011 l 723 1011 l 720 998 l 532 814 z "},"ŉ":{"ha":854,"x_min":35,"x_max":791,"o":"m 568 0 l 653 437 q 665 539 665 497 q 544 652 665 652 q 393 587 458 652 q 307 411 328 522 l 227 0 l 104 0 l 217 577 q 243 734 231 642 l 359 734 q 352 681 359 726 q 340 608 345 636 l 342 608 q 455 716 398 686 q 589 747 511 747 q 740 697 690 747 q 791 554 791 648 q 777 443 791 511 l 690 0 l 568 0 m 118 646 l 35 646 q 133 822 115 738 l 73 822 l 99 956 l 231 956 l 212 857 q 178 742 200 793 q 118 646 155 692 z "},"Ŋ":{"ha":1004,"x_min":43,"x_max":955,"o":"m 578 -14 q 449 16 503 -14 q 366 92 396 45 l 462 165 q 517 111 485 132 q 586 90 549 90 q 667 114 635 90 q 721 191 699 138 q 768 370 743 244 l 817 627 q 827 711 827 674 q 641 864 827 864 q 484 828 560 864 q 355 733 407 793 q 290 604 303 673 l 172 0 l 43 0 l 186 741 l 225 956 l 350 956 q 322 785 342 894 l 325 785 q 480 922 391 876 q 676 969 570 969 q 955 727 955 969 q 943 613 955 675 l 896 368 q 825 119 861 187 q 730 19 789 51 q 578 -14 671 -14 z "},"ŋ":{"ha":772,"x_min":23,"x_max":709,"o":"m 396 -288 q 309 -279 358 -288 l 324 -186 q 380 -192 359 -192 q 441 -163 420 -192 q 473 -73 461 -135 l 572 437 q 584 539 584 497 q 463 652 584 652 q 312 587 377 652 q 225 411 247 522 l 145 0 l 23 0 l 136 577 q 162 734 149 642 l 277 734 q 270 681 277 726 q 258 608 263 636 l 260 608 q 373 716 317 686 q 508 747 430 747 q 659 697 608 747 q 709 554 709 648 q 695 443 709 511 l 591 -91 q 522 -243 570 -198 q 396 -288 475 -288 z "},"Ō":{"ha":1080,"x_min":75,"x_max":1042,"o":"m 636 970 q 933 863 824 970 q 1042 577 1042 757 q 966 263 1038 395 q 767 58 893 130 q 481 -14 641 -14 q 182 93 288 -14 q 75 389 75 200 q 147 687 75 551 q 347 896 218 823 q 636 970 475 970 m 630 865 q 400 805 494 865 q 255 625 305 745 q 205 382 205 505 q 277 166 205 240 q 487 92 349 92 q 714 150 621 92 q 860 326 808 209 q 912 574 912 444 q 839 790 912 715 q 630 865 765 865 m 832 1065 l 459 1065 l 477 1151 l 850 1151 l 832 1065 z "},"ō":{"ha":772,"x_min":45,"x_max":728,"o":"m 728 463 q 701 280 728 375 q 624 118 674 184 q 500 19 573 52 q 333 -14 427 -14 q 123 66 200 -14 q 45 284 45 146 q 96 530 48 422 q 227 692 143 637 q 435 747 311 747 q 653 672 578 747 q 728 463 728 598 m 602 463 q 434 657 602 657 q 287 610 342 657 q 201 467 232 563 q 171 282 171 372 q 214 129 171 182 q 340 77 258 77 q 453 100 410 77 q 527 173 495 123 q 579 300 559 223 q 602 463 599 378 m 635 838 l 262 838 l 279 924 l 652 924 l 635 838 z "},"Ŏ":{"ha":1080,"x_min":75,"x_max":1042,"o":"m 636 970 q 933 863 824 970 q 1042 577 1042 757 q 966 263 1038 395 q 767 58 893 130 q 481 -14 641 -14 q 182 93 288 -14 q 75 389 75 200 q 147 687 75 551 q 347 896 218 823 q 636 970 475 970 m 630 865 q 400 805 494 865 q 255 625 305 745 q 205 382 205 505 q 277 166 205 240 q 487 92 349 92 q 714 150 621 92 q 860 326 808 209 q 912 574 912 444 q 839 790 912 715 q 630 865 765 865 m 644 1031 q 499 1078 554 1031 q 444 1200 445 1124 l 522 1200 q 559 1141 524 1160 q 650 1123 594 1123 q 815 1200 772 1123 l 895 1200 q 794 1074 859 1118 q 644 1031 730 1031 z "},"ŏ":{"ha":772,"x_min":45,"x_max":728,"o":"m 728 463 q 701 280 728 375 q 624 118 674 184 q 500 19 573 52 q 333 -14 427 -14 q 123 66 200 -14 q 45 284 45 146 q 96 530 48 422 q 227 692 143 637 q 435 747 311 747 q 653 672 578 747 q 728 463 728 598 m 602 463 q 434 657 602 657 q 287 610 342 657 q 201 467 232 563 q 171 282 171 372 q 214 129 171 182 q 340 77 258 77 q 453 100 410 77 q 527 173 495 123 q 579 300 559 223 q 602 463 599 378 m 473 814 q 329 872 383 814 q 273 1024 274 930 l 351 1024 q 388 940 353 966 q 479 913 423 913 q 644 1024 601 913 l 724 1024 q 624 869 689 924 q 473 814 559 814 z "},"Ő":{"ha":1080,"x_min":75,"x_max":1042,"o":"m 636 970 q 933 863 824 970 q 1042 577 1042 757 q 966 263 1038 395 q 767 58 893 130 q 481 -14 641 -14 q 182 93 288 -14 q 75 389 75 200 q 147 687 75 551 q 347 896 218 823 q 636 970 475 970 m 630 865 q 400 805 494 865 q 255 625 305 745 q 205 382 205 505 q 277 166 205 240 q 487 92 349 92 q 714 150 621 92 q 860 326 808 209 q 912 574 912 444 q 839 790 912 715 q 630 865 765 865 m 453 1038 l 455 1051 l 606 1205 l 746 1205 l 743 1185 l 516 1038 l 453 1038 m 688 1038 l 690 1051 l 841 1205 l 981 1205 l 978 1185 l 751 1038 l 688 1038 z "},"ő":{"ha":772,"x_min":45,"x_max":789,"o":"m 728 463 q 701 280 728 375 q 624 118 674 184 q 500 19 573 52 q 333 -14 427 -14 q 123 66 200 -14 q 45 284 45 146 q 96 530 48 422 q 227 692 143 637 q 435 747 311 747 q 653 672 578 747 q 728 463 728 598 m 602 463 q 434 657 602 657 q 287 610 342 657 q 201 467 232 563 q 171 282 171 372 q 214 129 171 182 q 340 77 258 77 q 453 100 410 77 q 527 173 495 123 q 579 300 559 223 q 602 463 599 378 m 240 814 l 242 828 l 413 1023 l 553 1023 l 550 1003 l 303 814 l 240 814 m 475 814 l 477 828 l 648 1023 l 789 1023 l 785 1003 l 538 814 l 475 814 z "},"Œ":{"ha":1389,"x_min":68,"x_max":1402,"o":"m 606 0 q 476 -7 554 -7 q 177 99 285 -7 q 68 389 68 205 q 141 687 68 555 q 340 891 213 819 q 627 963 467 963 q 810 956 709 963 l 1402 956 l 1381 850 l 900 850 l 840 543 l 1281 543 l 1261 439 l 820 439 l 755 106 l 1265 106 l 1244 0 l 606 0 m 483 98 q 626 106 570 98 l 770 851 q 621 859 713 859 q 394 800 488 859 q 249 627 299 742 q 198 382 198 511 q 272 171 198 244 q 483 98 347 98 z "},"œ":{"ha":1311,"x_min":47,"x_max":1259,"o":"m 715 341 q 708 264 708 307 q 753 126 708 174 q 889 78 798 78 q 1007 110 954 78 q 1090 199 1059 142 l 1183 157 q 1057 26 1133 66 q 875 -14 981 -14 q 622 117 693 -14 q 333 -10 522 -10 q 122 68 198 -10 q 47 284 47 147 q 97 529 50 421 q 228 691 144 636 q 435 747 312 747 q 694 616 626 747 q 816 713 746 680 q 968 747 886 747 q 1183 677 1106 747 q 1259 480 1259 608 q 1243 341 1259 409 l 715 341 m 602 463 q 434 657 602 657 q 288 609 342 657 q 202 466 233 562 q 172 282 172 370 q 340 80 172 80 q 485 125 433 80 q 568 262 538 170 q 602 463 598 354 m 1135 435 l 1138 484 q 1096 612 1138 568 q 970 657 1053 657 q 818 599 880 657 q 730 435 755 541 l 1135 435 z "},"Ŕ":{"ha":1003,"x_min":43,"x_max":960,"o":"m 713 0 l 548 397 l 249 397 l 172 0 l 43 0 l 228 956 l 643 956 q 874 886 788 956 q 960 705 960 817 q 887 503 960 577 q 671 408 814 428 l 852 0 l 713 0 m 581 499 q 766 550 704 499 q 829 694 829 602 q 778 811 829 770 q 627 852 728 852 l 338 852 l 269 499 l 581 499 m 487 1038 l 489 1051 l 666 1204 l 806 1204 l 803 1185 l 564 1038 l 487 1038 z "},"ŕ":{"ha":463,"x_min":23,"x_max":563,"o":"m 487 636 q 426 645 457 645 q 297 570 355 645 q 220 382 240 496 l 145 0 l 23 0 l 133 563 l 150 656 l 162 734 l 277 734 l 254 584 l 256 584 q 345 711 301 674 q 445 747 388 747 q 509 738 476 747 l 487 636 m 242 814 l 244 828 l 416 1023 l 563 1023 l 559 1003 l 306 814 l 242 814 z "},"Ŗ":{"ha":1003,"x_min":43,"x_max":960,"o":"m 713 0 l 548 397 l 249 397 l 172 0 l 43 0 l 228 956 l 643 956 q 874 886 788 956 q 960 705 960 817 q 887 503 960 577 q 671 408 814 428 l 852 0 l 713 0 m 581 499 q 766 550 704 499 q 829 694 829 602 q 778 811 829 770 q 627 852 728 852 l 338 852 l 269 499 l 581 499 m 406 -309 l 327 -309 q 416 -180 404 -240 l 356 -180 l 378 -66 l 510 -66 l 496 -138 q 462 -237 485 -197 q 406 -309 439 -277 z "},"ŗ":{"ha":463,"x_min":-36,"x_max":509,"o":"m 487 636 q 426 645 457 645 q 297 570 355 645 q 220 382 240 496 l 145 0 l 23 0 l 133 563 l 150 656 l 162 734 l 277 734 l 254 584 l 256 584 q 345 711 301 674 q 445 747 388 747 q 509 738 476 747 l 487 636 m 43 -309 l -36 -309 q 53 -180 41 -240 l -7 -180 l 15 -66 l 147 -66 l 134 -138 q 99 -237 122 -197 q 43 -309 77 -277 z "},"Ř":{"ha":1003,"x_min":43,"x_max":960,"o":"m 713 0 l 548 397 l 249 397 l 172 0 l 43 0 l 228 956 l 643 956 q 874 886 788 956 q 960 705 960 817 q 887 503 960 577 q 671 408 814 428 l 852 0 l 713 0 m 581 499 q 766 550 704 499 q 829 694 829 602 q 778 811 829 770 q 627 852 728 852 l 338 852 l 269 499 l 581 499 m 647 1038 l 509 1038 l 382 1200 l 385 1214 l 448 1214 l 587 1120 l 588 1120 l 755 1214 l 833 1214 l 831 1200 l 647 1038 z "},"ř":{"ha":463,"x_min":23,"x_max":593,"o":"m 487 636 q 426 645 457 645 q 297 570 355 645 q 220 382 240 496 l 145 0 l 23 0 l 133 563 l 150 656 l 162 734 l 277 734 l 254 584 l 256 584 q 345 711 301 674 q 445 747 388 747 q 509 738 476 747 l 487 636 m 402 814 l 264 814 l 141 998 l 144 1011 l 210 1011 l 345 897 l 346 897 l 517 1011 l 593 1011 l 590 998 l 402 814 z "},"Ś":{"ha":926,"x_min":39,"x_max":911,"o":"m 418 -14 q 156 46 249 -14 q 39 229 62 106 l 159 254 q 241 127 178 167 q 427 88 304 88 q 644 133 576 88 q 713 269 713 177 q 693 341 713 314 q 626 391 673 369 q 463 446 578 413 q 289 511 347 477 q 202 592 232 545 q 173 706 173 640 q 277 900 173 829 q 559 970 381 970 q 798 918 708 970 q 911 768 888 867 l 794 733 q 714 838 772 804 q 558 872 656 872 q 303 712 303 872 q 320 646 303 671 q 377 601 338 620 q 535 549 417 581 q 725 479 667 513 q 814 396 783 445 q 845 277 845 348 q 740 62 845 137 q 418 -14 635 -14 m 477 1038 l 479 1051 l 651 1246 l 798 1246 l 795 1226 l 541 1038 l 477 1038 z "},"ś":{"ha":694,"x_min":3,"x_max":666,"o":"m 615 215 q 531 46 615 105 q 288 -14 447 -14 q 101 26 170 -14 q 3 151 31 66 l 103 189 q 173 102 125 130 q 299 75 220 75 q 446 108 396 75 q 496 204 496 141 q 462 274 496 246 q 315 337 427 302 q 185 393 229 366 q 119 456 142 420 q 96 541 96 492 q 174 692 96 639 q 396 745 253 745 q 666 572 636 745 l 555 555 q 499 633 541 609 q 388 656 458 656 q 259 630 304 656 q 214 554 214 603 q 228 506 214 526 q 269 471 242 486 q 393 425 296 456 q 523 370 479 398 q 591 304 566 342 q 615 215 615 267 m 331 814 l 333 828 l 505 1023 l 652 1023 l 648 1003 l 395 814 l 331 814 z "},"Ŝ":{"ha":926,"x_min":39,"x_max":911,"o":"m 418 -14 q 156 46 249 -14 q 39 229 62 106 l 159 254 q 241 127 178 167 q 427 88 304 88 q 644 133 576 88 q 713 269 713 177 q 693 341 713 314 q 626 391 673 369 q 463 446 578 413 q 289 511 347 477 q 202 592 232 545 q 173 706 173 640 q 277 900 173 829 q 559 970 381 970 q 798 918 708 970 q 911 768 888 867 l 794 733 q 714 838 772 804 q 558 872 656 872 q 303 712 303 872 q 320 646 303 671 q 377 601 338 620 q 535 549 417 581 q 725 479 667 513 q 814 396 783 445 q 845 277 845 348 q 740 62 845 137 q 418 -14 635 -14 m 800 1050 l 797 1036 l 734 1036 l 608 1151 l 607 1151 l 427 1036 l 349 1036 l 351 1050 l 545 1233 l 684 1233 l 800 1050 z "},"ŝ":{"ha":694,"x_min":3,"x_max":666,"o":"m 615 215 q 531 46 615 105 q 288 -14 447 -14 q 101 26 170 -14 q 3 151 31 66 l 103 189 q 173 102 125 130 q 299 75 220 75 q 446 108 396 75 q 496 204 496 141 q 462 274 496 246 q 315 337 427 302 q 185 393 229 366 q 119 456 142 420 q 96 541 96 492 q 174 692 96 639 q 396 745 253 745 q 666 572 636 745 l 555 555 q 499 633 541 609 q 388 656 458 656 q 259 630 304 656 q 214 554 214 603 q 228 506 214 526 q 269 471 242 486 q 393 425 296 456 q 523 370 479 398 q 591 304 566 342 q 615 215 615 267 m 635 828 l 633 814 l 570 814 l 444 929 l 443 929 l 263 814 l 184 814 l 187 828 l 381 1011 l 519 1011 l 635 828 z "},"Ş":{"ha":926,"x_min":39,"x_max":911,"o":"m 418 -14 q 156 46 249 -14 q 39 229 62 106 l 159 254 q 241 127 178 167 q 427 88 304 88 q 644 133 576 88 q 713 269 713 177 q 693 341 713 314 q 626 391 673 369 q 463 446 578 413 q 289 511 347 477 q 202 592 232 545 q 173 706 173 640 q 277 900 173 829 q 559 970 381 970 q 798 918 708 970 q 911 768 888 867 l 794 733 q 714 838 772 804 q 558 872 656 872 q 303 712 303 872 q 320 646 303 671 q 377 601 338 620 q 535 549 417 581 q 725 479 667 513 q 814 396 783 445 q 845 277 845 348 q 740 62 845 137 q 418 -14 635 -14 m 430 -65 q 512 -93 485 -68 q 540 -157 540 -117 q 334 -288 540 -288 q 262 -283 300 -288 l 277 -222 q 336 -226 309 -226 q 424 -211 398 -226 q 449 -165 449 -196 q 368 -117 449 -117 q 329 -118 338 -117 l 397 0 l 470 0 l 430 -65 z "},"ş":{"ha":694,"x_min":3,"x_max":666,"o":"m 615 215 q 531 46 615 105 q 288 -14 447 -14 q 101 26 170 -14 q 3 151 31 66 l 103 189 q 173 102 125 130 q 299 75 220 75 q 446 108 396 75 q 496 204 496 141 q 462 274 496 246 q 315 337 427 302 q 185 393 229 366 q 119 456 142 420 q 96 541 96 492 q 174 692 96 639 q 396 745 253 745 q 666 572 636 745 l 555 555 q 499 633 541 609 q 388 656 458 656 q 259 630 304 656 q 214 554 214 603 q 228 506 214 526 q 269 471 242 486 q 393 425 296 456 q 523 370 479 398 q 591 304 566 342 q 615 215 615 267 m 313 -65 q 395 -93 368 -68 q 422 -157 422 -117 q 217 -288 422 -288 q 145 -283 183 -288 l 159 -222 q 219 -226 192 -226 q 306 -211 281 -226 q 332 -165 332 -196 q 251 -117 332 -117 q 212 -118 221 -117 l 280 0 l 353 0 l 313 -65 z "},"Š":{"ha":926,"x_min":39,"x_max":911,"o":"m 418 -14 q 156 46 249 -14 q 39 229 62 106 l 159 254 q 241 127 178 167 q 427 88 304 88 q 644 133 576 88 q 713 269 713 177 q 693 341 713 314 q 626 391 673 369 q 463 446 578 413 q 289 511 347 477 q 202 592 232 545 q 173 706 173 640 q 277 900 173 829 q 559 970 381 970 q 798 918 708 970 q 911 768 888 867 l 794 733 q 714 838 772 804 q 558 872 656 872 q 303 712 303 872 q 320 646 303 671 q 377 601 338 620 q 535 549 417 581 q 725 479 667 513 q 814 396 783 445 q 845 277 845 348 q 740 62 845 137 q 418 -14 635 -14 m 642 1038 l 504 1038 l 377 1200 l 380 1214 l 443 1214 l 582 1120 l 583 1120 l 750 1214 l 829 1214 l 826 1200 l 642 1038 z "},"š":{"ha":694,"x_min":3,"x_max":674,"o":"m 615 215 q 531 46 615 105 q 288 -14 447 -14 q 101 26 170 -14 q 3 151 31 66 l 103 189 q 173 102 125 130 q 299 75 220 75 q 446 108 396 75 q 496 204 496 141 q 462 274 496 246 q 315 337 427 302 q 185 393 229 366 q 119 456 142 420 q 96 541 96 492 q 174 692 96 639 q 396 745 253 745 q 666 572 636 745 l 555 555 q 499 633 541 609 q 388 656 458 656 q 259 630 304 656 q 214 554 214 603 q 228 506 214 526 q 269 471 242 486 q 393 425 296 456 q 523 370 479 398 q 591 304 566 342 q 615 215 615 267 m 484 814 l 345 814 l 222 998 l 225 1011 l 291 1011 l 426 897 l 427 897 l 598 1011 l 674 1011 l 671 998 l 484 814 z "},"Ţ":{"ha":848,"x_min":125,"x_max":930,"o":"m 582 850 l 416 0 l 288 0 l 453 850 l 125 850 l 145 956 l 930 956 l 910 850 l 582 850 m 352 -65 q 434 -93 407 -68 q 462 -157 462 -117 q 256 -288 462 -288 q 184 -283 222 -288 l 199 -222 q 258 -226 231 -226 q 346 -211 320 -226 q 371 -165 371 -196 q 290 -117 371 -117 q 251 -118 260 -117 l 319 0 l 392 0 l 352 -65 z "},"ţ":{"ha":386,"x_min":9,"x_max":434,"o":"m 186 -14 q 96 21 129 -14 q 63 113 63 56 q 73 201 63 150 l 159 645 l 74 645 l 92 734 l 178 734 l 249 898 l 330 898 l 298 734 l 434 734 l 416 645 l 281 645 l 196 208 q 188 143 188 167 q 249 83 188 83 q 317 93 277 83 l 304 3 q 186 -14 237 -14 m 177 -65 q 259 -93 232 -68 q 287 -157 287 -117 q 81 -288 287 -288 q 9 -283 47 -288 l 24 -222 q 83 -226 56 -226 q 171 -211 145 -226 q 196 -165 196 -196 q 115 -117 196 -117 q 76 -118 85 -117 l 144 0 l 217 0 l 177 -65 z "},"Ť":{"ha":848,"x_min":125,"x_max":930,"o":"m 582 850 l 416 0 l 288 0 l 453 850 l 125 850 l 145 956 l 930 956 l 910 850 l 582 850 m 618 1038 l 479 1038 l 353 1200 l 355 1214 l 418 1214 l 557 1120 l 559 1120 l 726 1214 l 804 1214 l 802 1200 l 618 1038 z "},"ť":{"ha":492,"x_min":63,"x_max":636,"o":"m 186 -14 q 96 21 129 -14 q 63 113 63 56 q 73 201 63 150 l 159 645 l 74 645 l 92 734 l 178 734 l 249 898 l 330 898 l 298 734 l 434 734 l 416 645 l 281 645 l 196 208 q 188 143 188 167 q 249 83 188 83 q 317 93 277 83 l 304 3 q 186 -14 237 -14 m 532 764 l 453 764 q 542 893 530 833 l 482 893 l 504 1006 l 636 1006 l 623 935 q 588 836 611 876 q 532 764 566 796 z "},"Ŧ":{"ha":848,"x_min":125,"x_max":930,"o":"m 582 850 l 522 543 l 713 543 l 692 439 l 502 439 l 417 0 l 288 0 l 373 439 l 184 439 l 204 543 l 393 543 l 453 850 l 125 850 l 145 956 l 930 956 l 910 850 l 582 850 z "},"ŧ":{"ha":386,"x_min":17,"x_max":434,"o":"m 188 143 q 249 83 188 83 q 317 93 277 83 l 304 3 q 186 -14 237 -14 q 96 21 129 -14 q 63 113 63 56 q 73 201 63 150 l 102 350 l 17 350 l 34 439 l 119 439 l 159 645 l 74 645 l 92 734 l 178 734 l 249 898 l 330 898 l 298 734 l 434 734 l 416 645 l 281 645 l 241 439 l 376 439 l 359 350 l 223 350 l 196 208 q 188 143 188 167 z "},"Ũ":{"ha":1003,"x_min":104,"x_max":1010,"o":"m 444 -14 q 195 68 286 -14 q 104 292 104 150 q 109 364 104 322 q 119 431 114 406 l 221 956 l 351 956 l 241 384 q 229 287 229 325 q 289 143 229 195 q 454 92 348 92 q 767 367 715 92 l 881 956 l 1010 956 l 895 359 q 744 80 858 174 q 444 -14 630 -14 m 740 1038 q 686 1051 711 1038 q 636 1081 660 1065 q 592 1112 613 1098 q 549 1125 570 1125 q 497 1105 518 1125 q 459 1038 476 1085 l 391 1038 q 464 1180 423 1141 q 562 1219 505 1219 q 617 1206 591 1219 q 666 1176 643 1192 q 710 1145 689 1159 q 751 1132 731 1132 q 841 1219 813 1132 l 910 1219 q 865 1111 886 1145 q 812 1057 843 1077 q 740 1038 782 1038 z "},"ũ":{"ha":772,"x_min":58,"x_max":745,"o":"m 281 734 l 196 296 q 184 195 184 237 q 305 81 184 81 q 456 146 391 81 q 543 323 521 212 l 623 734 l 745 734 l 632 157 q 606 0 618 92 l 490 0 q 497 53 490 7 q 509 125 505 98 l 507 125 q 394 17 451 47 q 260 -13 338 -13 q 109 37 159 -13 q 58 180 58 86 q 73 291 58 223 l 159 734 l 281 734 m 568 814 q 514 827 540 814 q 465 855 488 840 q 420 883 441 870 q 377 895 398 895 q 281 814 309 895 l 220 814 q 293 957 252 918 q 390 996 334 996 q 446 984 420 996 q 495 956 471 971 q 539 928 518 941 q 581 916 560 916 q 676 996 649 916 l 739 996 q 693 888 715 922 q 641 834 671 854 q 568 814 610 814 z "},"Ū":{"ha":1003,"x_min":104,"x_max":1010,"o":"m 444 -14 q 195 68 286 -14 q 104 292 104 150 q 109 364 104 322 q 119 431 114 406 l 221 956 l 351 956 l 241 384 q 229 287 229 325 q 289 143 229 195 q 454 92 348 92 q 767 367 715 92 l 881 956 l 1010 956 l 895 359 q 744 80 858 174 q 444 -14 630 -14 m 811 1061 l 438 1061 l 456 1147 l 829 1147 l 811 1061 z "},"ū":{"ha":772,"x_min":58,"x_max":745,"o":"m 281 734 l 196 296 q 184 195 184 237 q 305 81 184 81 q 456 146 391 81 q 543 323 521 212 l 623 734 l 745 734 l 632 157 q 606 0 618 92 l 490 0 q 497 53 490 7 q 509 125 505 98 l 507 125 q 394 17 451 47 q 260 -13 338 -13 q 109 37 159 -13 q 58 180 58 86 q 73 291 58 223 l 159 734 l 281 734 m 650 838 l 277 838 l 294 924 l 667 924 l 650 838 z "},"Ŭ":{"ha":1003,"x_min":104,"x_max":1010,"o":"m 444 -14 q 195 68 286 -14 q 104 292 104 150 q 109 364 104 322 q 119 431 114 406 l 221 956 l 351 956 l 241 384 q 229 287 229 325 q 289 143 229 195 q 454 92 348 92 q 767 367 715 92 l 881 956 l 1010 956 l 895 359 q 744 80 858 174 q 444 -14 630 -14 m 619 1031 q 474 1078 529 1031 q 418 1200 420 1124 l 497 1200 q 534 1141 499 1160 q 625 1123 569 1123 q 790 1200 747 1123 l 869 1200 q 769 1074 834 1118 q 619 1031 705 1031 z "},"ŭ":{"ha":772,"x_min":58,"x_max":745,"o":"m 281 734 l 196 296 q 184 195 184 237 q 305 81 184 81 q 456 146 391 81 q 543 323 521 212 l 623 734 l 745 734 l 632 157 q 606 0 618 92 l 490 0 q 497 53 490 7 q 509 125 505 98 l 507 125 q 394 17 451 47 q 260 -13 338 -13 q 109 37 159 -13 q 58 180 58 86 q 73 291 58 223 l 159 734 l 281 734 m 463 814 q 318 872 372 814 q 262 1024 263 930 l 340 1024 q 377 940 342 966 q 469 913 412 913 q 633 1024 590 913 l 713 1024 q 613 869 678 924 q 463 814 549 814 z "},"Ů":{"ha":1003,"x_min":104,"x_max":1010,"o":"m 444 -14 q 195 68 286 -14 q 104 292 104 150 q 109 364 104 322 q 119 431 114 406 l 221 956 l 351 956 l 241 384 q 229 287 229 325 q 289 143 229 195 q 454 92 348 92 q 767 367 715 92 l 881 956 l 1010 956 l 895 359 q 744 80 858 174 q 444 -14 630 -14 m 788 1183 q 740 1067 788 1115 q 624 1019 692 1019 q 508 1067 556 1019 q 460 1183 460 1115 q 508 1299 460 1251 q 624 1346 556 1346 q 740 1298 691 1346 q 788 1183 788 1251 m 715 1183 q 689 1248 715 1222 q 624 1274 663 1274 q 558 1247 584 1274 q 532 1183 532 1220 q 558 1118 532 1145 q 624 1090 584 1090 q 689 1117 663 1090 q 715 1183 715 1144 z "},"ů":{"ha":772,"x_min":58,"x_max":745,"o":"m 281 734 l 196 296 q 184 195 184 237 q 305 81 184 81 q 456 146 391 81 q 543 323 521 212 l 623 734 l 745 734 l 632 157 q 606 0 618 92 l 490 0 q 497 53 490 7 q 509 125 505 98 l 507 125 q 394 17 451 47 q 260 -13 338 -13 q 109 37 159 -13 q 58 180 58 86 q 73 291 58 223 l 159 734 l 281 734 m 631 956 q 583 840 631 888 q 467 792 535 792 q 351 840 399 792 q 303 956 303 888 q 351 1072 303 1025 q 467 1120 399 1120 q 583 1072 534 1120 q 631 956 631 1024 m 558 956 q 532 1021 558 996 q 467 1047 507 1047 q 401 1020 427 1047 q 376 956 376 994 q 401 891 376 919 q 467 863 427 863 q 532 890 507 863 q 558 956 558 918 z "},"Ű":{"ha":1003,"x_min":104,"x_max":1010,"o":"m 444 -14 q 195 68 286 -14 q 104 292 104 150 q 109 364 104 322 q 119 431 114 406 l 221 956 l 351 956 l 241 384 q 229 287 229 325 q 289 143 229 195 q 454 92 348 92 q 767 367 715 92 l 881 956 l 1010 956 l 895 359 q 744 80 858 174 q 444 -14 630 -14 m 418 1038 l 420 1051 l 570 1205 l 711 1205 l 707 1185 l 481 1038 l 418 1038 m 652 1038 l 654 1051 l 806 1205 l 946 1205 l 943 1185 l 716 1038 l 652 1038 z "},"ű":{"ha":772,"x_min":58,"x_max":804,"o":"m 281 734 l 196 296 q 184 195 184 237 q 305 81 184 81 q 456 146 391 81 q 543 323 521 212 l 623 734 l 745 734 l 632 157 q 606 0 618 92 l 490 0 q 497 53 490 7 q 509 125 505 98 l 507 125 q 394 17 451 47 q 260 -13 338 -13 q 109 37 159 -13 q 58 180 58 86 q 73 291 58 223 l 159 734 l 281 734 m 255 814 l 257 828 l 428 1023 l 568 1023 l 565 1003 l 318 814 l 255 814 m 490 814 l 492 828 l 663 1023 l 804 1023 l 800 1003 l 553 814 l 490 814 z "},"Ų":{"ha":1003,"x_min":104,"x_max":1010,"o":"m 444 -14 q 195 68 286 -14 q 104 292 104 150 q 109 364 104 322 q 119 431 114 406 l 221 956 l 351 956 l 241 384 q 229 287 229 325 q 289 143 229 195 q 454 92 348 92 q 767 367 715 92 l 881 956 l 1010 956 l 895 359 q 744 80 858 174 q 444 -14 630 -14 m 463 -290 q 373 -258 404 -290 q 342 -176 342 -226 q 381 -72 342 -119 q 481 0 420 -24 l 572 0 q 475 -75 509 -33 q 441 -160 441 -117 q 454 -199 441 -183 q 494 -215 468 -215 q 571 -200 530 -215 l 561 -271 q 463 -290 515 -290 z "},"ų":{"ha":772,"x_min":58,"x_max":745,"o":"m 281 734 l 196 296 q 184 195 184 237 q 305 81 184 81 q 456 146 391 81 q 543 323 521 212 l 623 734 l 745 734 l 632 157 q 606 0 618 92 l 490 0 q 497 53 490 7 q 509 125 505 98 l 507 125 q 394 17 451 47 q 260 -13 338 -13 q 109 37 159 -13 q 58 180 58 86 q 73 291 58 223 l 159 734 l 281 734 m 473 -290 q 382 -258 413 -290 q 352 -176 352 -226 q 391 -72 352 -119 q 491 0 429 -24 l 581 0 q 484 -75 518 -33 q 450 -160 450 -117 q 464 -199 450 -183 q 503 -215 477 -215 q 581 -200 540 -215 l 570 -271 q 473 -290 525 -290 z "},"Ŵ":{"ha":1311,"x_min":120,"x_max":1420,"o":"m 954 0 l 802 0 l 754 607 q 743 827 745 793 q 652 607 692 692 l 368 0 l 216 0 l 120 956 l 254 956 l 307 349 q 318 114 315 243 q 407 319 372 241 q 707 956 441 396 l 831 956 l 882 361 q 894 114 892 256 l 905 138 q 958 262 937 216 q 1284 956 978 309 l 1420 956 l 954 0 m 994 1051 l 991 1038 l 926 1038 l 796 1132 l 795 1132 l 619 1038 l 543 1038 l 545 1051 l 735 1214 l 873 1214 l 994 1051 z "},"ŵ":{"ha":1003,"x_min":69,"x_max":1078,"o":"m 724 0 l 583 0 l 557 473 l 553 633 q 517 544 533 583 q 273 0 500 506 l 132 0 l 69 734 l 190 734 l 217 235 l 222 101 l 277 230 l 508 734 l 639 734 l 669 230 q 673 101 673 157 q 958 734 695 155 l 1078 734 l 724 0 m 790 828 l 787 814 l 725 814 l 599 929 l 597 929 l 418 814 l 339 814 l 342 828 l 536 1011 l 674 1011 l 790 828 z "},"Ŷ":{"ha":926,"x_min":144,"x_max":1010,"o":"m 456 0 l 327 0 l 405 396 l 144 956 l 277 956 l 485 498 l 865 956 l 1010 956 l 532 396 l 456 0 m 811 1051 l 808 1038 l 744 1038 l 614 1132 l 612 1132 l 437 1038 l 360 1038 l 363 1051 l 553 1214 l 691 1214 l 811 1051 z "},"ŷ":{"ha":694,"x_min":-79,"x_max":764,"o":"m 11 -288 q -79 -279 -38 -288 l -58 -188 q -5 -193 -27 -193 q 108 -150 59 -193 q 205 -24 157 -106 l 223 8 l 76 734 l 200 734 l 276 328 q 295 213 286 274 q 304 133 304 151 q 322 170 311 148 q 629 734 333 191 l 764 734 l 340 0 q 219 -183 264 -131 q 123 -262 173 -236 q 11 -288 73 -288 m 651 828 l 648 814 l 586 814 l 460 929 l 458 929 l 279 814 l 200 814 l 203 828 l 397 1011 l 535 1011 l 651 828 z "},"Ÿ":{"ha":926,"x_min":144,"x_max":1010,"o":"m 456 0 l 327 0 l 405 396 l 144 956 l 277 956 l 485 498 l 865 956 l 1010 956 l 532 396 l 456 0 m 645 1038 l 669 1162 l 786 1162 l 762 1038 l 645 1038 m 385 1038 l 408 1162 l 527 1162 l 503 1038 l 385 1038 z "},"Ź":{"ha":848,"x_min":-27,"x_max":887,"o":"m 734 0 l -27 0 l -9 97 l 706 850 l 187 850 l 208 956 l 887 956 l 869 861 l 154 106 l 754 106 l 734 0 m 464 1038 l 466 1051 l 643 1204 l 783 1204 l 780 1185 l 541 1038 l 464 1038 z "},"ź":{"ha":694,"x_min":-8,"x_max":675,"o":"m -8 0 l 7 93 l 511 640 l 127 640 l 144 734 l 675 734 l 659 641 l 156 94 l 577 94 l 560 0 l -8 0 m 328 814 l 330 828 l 502 1023 l 649 1023 l 646 1003 l 392 814 l 328 814 z "},"Ż":{"ha":848,"x_min":-27,"x_max":887,"o":"m 734 0 l -27 0 l -9 97 l 706 850 l 187 850 l 208 956 l 887 956 l 869 861 l 154 106 l 754 106 l 734 0 m 473 1038 l 496 1154 l 618 1154 l 595 1038 l 473 1038 z "},"ż":{"ha":694,"x_min":-8,"x_max":675,"o":"m -8 0 l 7 93 l 511 640 l 127 640 l 144 734 l 675 734 l 659 641 l 156 94 l 577 94 l 560 0 l -8 0 m 374 890 l 397 1006 l 519 1006 l 496 890 l 374 890 z "},"Ž":{"ha":848,"x_min":-27,"x_max":887,"o":"m 734 0 l -27 0 l -9 97 l 706 850 l 187 850 l 208 956 l 887 956 l 869 861 l 154 106 l 754 106 l 734 0 m 610 1038 l 471 1038 l 345 1200 l 347 1214 l 410 1214 l 549 1120 l 551 1120 l 718 1214 l 796 1214 l 793 1200 l 610 1038 z "},"ž":{"ha":694,"x_min":-16,"x_max":680,"o":"m -16 0 l 0 93 l 503 640 l 119 640 l 136 734 l 668 734 l 652 641 l 149 94 l 570 94 l 553 0 l -16 0 m 489 814 l 351 814 l 228 998 l 231 1011 l 296 1011 l 431 897 l 433 897 l 604 1011 l 680 1011 l 677 998 l 489 814 z "},"ſ":{"ha":309,"x_min":22,"x_max":468,"o":"m 22 0 l 181 817 q 250 964 201 922 q 388 1006 298 1006 q 468 998 435 1006 l 452 905 q 395 911 422 911 q 350 901 368 911 q 322 871 333 891 q 300 800 311 852 l 144 0 l 22 0 z "},"ƀ":{"ha":772,"x_min":20,"x_max":730,"o":"m 113 907 l 199 907 l 219 1006 l 341 1006 l 321 907 l 528 907 l 511 818 l 304 818 l 285 720 q 262 625 276 677 l 264 625 q 369 718 314 689 q 505 747 424 747 q 670 683 611 747 q 730 507 730 619 q 688 240 730 370 q 571 49 646 111 q 378 -14 495 -14 q 242 22 294 -14 q 168 121 190 57 l 166 121 q 137 0 163 103 l 20 0 q 53 151 25 17 l 182 818 l 96 818 l 113 907 m 469 653 q 354 626 402 653 q 273 543 307 598 q 221 405 240 488 q 202 256 202 321 q 245 124 202 171 q 365 77 288 77 q 496 126 448 77 q 573 287 544 175 q 602 486 602 398 q 570 611 602 569 q 469 653 538 653 z "},"Ɓ":{"ha":1015,"x_min":56,"x_max":967,"o":"m 297 855 l 286 855 q 191 821 222 855 q 159 724 159 786 l 162 690 l 62 678 q 56 718 56 698 q 118 894 56 833 q 296 956 179 956 l 662 956 q 885 897 804 956 q 967 737 967 838 q 737 504 967 544 q 882 433 831 488 q 934 298 934 378 q 828 77 934 153 q 534 0 722 0 l 131 0 l 297 855 m 280 104 l 530 104 q 738 154 672 104 q 804 300 804 203 q 750 410 804 372 q 595 448 696 448 l 347 448 l 280 104 m 367 549 l 591 549 q 832 724 832 549 q 650 852 832 852 l 426 852 l 367 549 z "},"Ƃ":{"ha":904,"x_min":42,"x_max":856,"o":"m 228 956 l 856 956 l 836 850 l 337 850 l 279 551 l 499 551 q 740 485 654 551 q 827 296 827 418 q 727 78 827 156 q 451 0 627 0 l 42 0 l 228 956 m 191 102 l 445 102 q 695 290 695 102 q 644 407 695 366 q 493 448 593 448 l 259 448 l 191 102 z "},"ƃ":{"ha":772,"x_min":20,"x_max":730,"o":"m 505 747 q 670 683 611 747 q 730 507 730 619 q 688 240 730 370 q 571 49 646 111 q 378 -14 495 -14 q 242 22 294 -14 q 168 121 190 57 l 166 121 q 137 0 163 103 l 20 0 q 53 151 25 17 l 219 1006 l 724 1006 l 703 899 l 320 899 q 286 724 298 789 q 262 625 273 659 l 264 625 q 369 718 314 689 q 505 747 424 747 m 469 653 q 354 626 402 653 q 273 543 307 598 q 221 405 240 488 q 202 256 202 321 q 245 124 202 171 q 365 77 288 77 q 496 126 448 77 q 573 287 544 175 q 602 486 602 398 q 570 611 602 569 q 469 653 538 653 z "},"Ƅ":{"ha":904,"x_min":41,"x_max":819,"o":"m 279 551 l 491 551 q 732 485 646 551 q 819 296 819 418 q 719 78 819 156 q 443 0 618 0 l 41 0 l 175 686 l 90 798 l 94 820 l 319 956 l 357 956 l 279 551 m 191 102 l 437 102 q 687 290 687 102 q 636 407 687 366 q 485 448 585 448 l 258 448 l 191 102 z "},"ƅ":{"ha":772,"x_min":20,"x_max":730,"o":"m 505 747 q 670 683 611 747 q 730 507 730 619 q 688 240 730 370 q 571 49 646 111 q 378 -14 495 -14 q 242 22 294 -14 q 168 121 190 57 l 166 121 q 137 0 163 103 l 20 0 q 53 151 25 17 l 166 736 l 103 859 l 108 881 l 307 1006 l 341 1006 l 285 720 q 262 625 276 677 l 264 625 q 369 718 314 689 q 505 747 424 747 m 469 653 q 354 626 402 653 q 273 543 307 598 q 221 405 240 488 q 202 256 202 321 q 245 124 202 171 q 365 77 288 77 q 496 126 448 77 q 573 287 544 175 q 602 486 602 398 q 570 611 602 569 q 469 653 538 653 z "},"Ɔ":{"ha":1003,"x_min":29,"x_max":963,"o":"m 119 728 q 313 912 204 855 q 565 970 421 970 q 778 921 688 970 q 916 781 869 871 q 963 570 963 690 q 892 269 963 404 q 694 60 821 134 q 412 -14 568 -14 q 163 48 264 -14 q 29 220 62 109 l 151 258 q 246 137 176 182 q 418 92 316 92 q 638 152 543 92 q 784 321 733 212 q 835 572 835 430 q 761 786 835 708 q 556 865 687 865 q 369 815 456 865 q 216 667 282 765 l 119 728 z "},"Ƈ":{"ha":1003,"x_min":77,"x_max":1227,"o":"m 921 229 q 727 44 836 101 q 475 -14 618 -14 q 261 36 352 -14 q 124 176 171 85 q 77 386 77 267 q 148 688 77 553 q 346 896 219 823 q 628 970 472 970 q 926 869 820 970 l 932 896 q 1007 1046 953 996 q 1147 1096 1062 1096 q 1227 1082 1190 1096 l 1208 979 q 1149 991 1177 991 q 1076 962 1103 991 q 1036 871 1048 933 l 1010 736 l 888 699 q 793 819 863 774 q 621 864 724 864 q 401 804 496 864 q 256 635 307 744 q 205 384 205 526 q 279 170 205 248 q 484 92 353 92 q 671 141 584 92 q 824 289 758 191 l 921 229 z "},"ƈ":{"ha":694,"x_min":45,"x_max":878,"o":"m 318 83 q 434 120 386 83 q 514 239 483 157 l 620 205 q 315 -14 538 -14 q 115 61 184 -14 q 45 268 45 136 q 95 520 45 404 q 225 692 144 637 q 424 747 306 747 q 601 694 534 747 q 800 874 648 874 q 878 860 844 874 l 859 758 q 805 771 826 771 q 738 740 762 771 q 700 642 713 708 l 679 532 l 559 515 q 518 616 555 581 q 420 652 481 652 q 281 606 334 652 q 199 460 229 560 q 170 264 170 361 q 318 83 170 83 z "},"Ɖ":{"ha":1003,"x_min":23,"x_max":972,"o":"m 518 956 q 851 844 730 956 q 972 536 972 732 q 905 257 972 378 q 709 68 838 136 q 415 0 580 0 l 43 0 l 127 439 l 23 439 l 43 543 l 148 543 l 228 956 l 518 956 m 277 543 l 553 543 l 532 439 l 257 439 l 192 104 l 398 104 q 631 156 530 104 q 786 308 732 209 q 840 538 840 406 q 755 769 840 686 q 515 852 669 852 l 338 852 l 277 543 z "},"Ɗ":{"ha":1089,"x_min":54,"x_max":1044,"o":"m 591 956 q 923 844 802 956 q 1044 536 1044 732 q 975 256 1044 376 q 773 68 905 136 q 476 0 642 0 l 129 0 l 294 855 l 284 855 q 189 821 220 855 q 157 724 157 786 l 160 690 l 60 678 q 54 718 54 698 q 116 894 54 833 q 294 956 177 956 l 591 956 m 278 104 l 471 104 q 705 156 604 104 q 859 308 805 209 q 913 538 913 406 q 827 769 913 686 q 588 852 742 852 l 424 852 l 278 104 z "},"Ƌ":{"ha":904,"x_min":48,"x_max":905,"o":"m 376 0 q 135 66 221 0 q 48 255 48 133 q 148 473 48 395 q 424 551 248 551 l 697 551 l 755 850 l 240 850 l 260 956 l 905 956 l 720 0 l 376 0 m 677 449 l 430 449 q 180 262 180 449 q 231 144 180 185 q 382 103 282 103 l 615 103 l 677 449 z "},"ƌ":{"ha":772,"x_min":47,"x_max":809,"o":"m 272 -14 q 106 50 165 -14 q 47 226 47 114 q 89 493 47 363 q 206 684 130 622 q 399 747 281 747 q 535 711 482 747 q 609 612 587 676 l 612 612 l 631 722 l 666 899 l 283 899 l 304 1006 l 809 1006 l 643 151 l 621 21 l 617 0 l 500 0 q 515 109 500 35 l 511 109 q 407 15 462 44 q 272 -14 352 -14 m 307 80 q 422 107 374 80 q 503 190 470 135 q 555 329 536 245 q 574 477 574 412 q 531 609 574 562 q 412 656 488 656 q 279 605 328 656 q 202 443 230 554 q 174 248 174 331 q 206 122 174 164 q 307 80 238 80 z "},"ƍ":{"ha":772,"x_min":31,"x_max":728,"o":"m 728 463 q 684 229 728 344 q 556 52 640 113 q 352 -13 473 -9 l 549 -199 l 532 -288 l 31 -288 l 50 -190 l 298 -190 l 401 -195 l 151 37 q 69 151 93 90 q 45 284 45 211 q 92 521 45 410 q 223 689 138 632 q 435 747 309 747 q 653 672 578 747 q 728 463 728 598 m 602 463 q 434 657 602 657 q 287 610 342 657 q 201 467 232 563 q 171 282 171 372 q 214 129 171 182 q 340 77 258 77 q 454 101 411 77 q 530 178 497 125 q 582 315 562 231 q 602 463 602 399 z "},"Ǝ":{"ha":926,"x_min":-20,"x_max":935,"o":"m -20 0 l 2 106 l 625 106 l 696 439 l 141 439 l 163 543 l 718 543 l 783 850 l 188 850 l 210 956 l 935 956 l 732 0 l -20 0 z "},"Ə":{"ha":1080,"x_min":83,"x_max":1018,"o":"m 477 85 q 732 178 630 85 q 876 442 835 271 l 210 442 q 203 366 203 404 q 274 158 203 230 q 477 85 345 85 m 892 549 q 894 589 894 579 q 824 791 894 718 q 629 864 753 864 q 445 823 524 864 q 304 692 366 781 l 191 733 q 381 912 271 854 q 635 970 492 970 q 917 867 815 970 q 1018 583 1018 764 q 951 274 1018 410 q 761 62 885 137 q 471 -14 637 -14 q 184 86 286 -14 q 83 366 83 186 q 108 549 83 448 l 892 549 z "},"Ɛ":{"ha":852,"x_min":54,"x_max":844,"o":"m 370 -14 q 138 53 222 -14 q 54 234 54 119 q 126 416 54 345 q 321 505 197 488 q 208 569 248 524 q 168 684 168 615 q 267 891 168 814 q 529 969 366 969 q 742 912 665 969 q 844 738 819 856 l 725 703 q 651 828 700 792 q 520 864 603 864 q 358 813 419 864 q 298 676 298 762 q 351 576 298 609 q 515 544 405 544 l 557 544 l 537 444 l 489 444 q 186 241 186 444 q 238 131 186 171 q 381 90 290 90 q 671 275 555 90 l 770 216 q 656 80 712 127 q 529 10 600 33 q 370 -14 458 -14 z "},"Ƒ":{"ha":848,"x_min":-160,"x_max":913,"o":"m 337 850 l 268 494 l 808 494 l 787 387 l 247 387 l 155 -87 q 80 -237 136 -186 q -78 -288 24 -288 q -160 -273 -123 -288 l -140 -168 q -81 -180 -109 -180 q -8 -151 -36 -180 q 31 -60 19 -122 l 228 956 l 913 956 l 893 850 l 337 850 z "},"ƒ":{"ha":772,"x_min":193,"x_max":718,"o":"m 697 890 q 623 900 663 900 q 560 875 582 900 q 526 786 538 850 l 508 693 l 651 693 l 634 604 l 490 604 l 315 -309 l 193 -309 l 368 604 l 264 604 l 283 693 l 385 693 l 405 796 q 476 943 426 900 q 617 986 527 986 q 718 972 671 986 l 697 890 z "},"Ɠ":{"ha":1080,"x_min":68,"x_max":1236,"o":"m 503 -14 q 182 92 296 -14 q 68 389 68 198 q 140 691 68 557 q 341 897 211 824 q 640 970 472 970 q 937 876 834 970 l 941 896 q 1015 1044 960 993 q 1156 1096 1070 1096 q 1236 1082 1199 1096 l 1217 979 q 1158 991 1186 991 q 1085 962 1112 991 q 1045 871 1057 933 l 1021 745 l 890 708 q 799 825 865 786 q 632 864 733 864 q 404 806 502 864 q 254 640 306 747 q 201 391 201 532 q 281 170 201 248 q 507 92 361 92 q 690 119 603 92 q 835 197 777 147 l 869 370 l 584 370 l 606 478 l 1010 478 l 943 142 q 740 24 848 61 q 503 -14 633 -14 z "},"Ɣ":{"ha":690,"x_min":33,"x_max":886,"o":"m 233 -288 q 122 -249 163 -288 q 81 -139 81 -209 q 97 -62 81 -104 q 138 26 112 -20 q 239 174 165 72 l 33 956 l 168 956 l 326 279 l 747 956 l 886 956 l 374 168 q 417 10 408 59 q 426 -76 426 -39 q 402 -186 426 -135 q 334 -263 378 -237 q 233 -288 290 -288 m 243 -186 q 296 -155 277 -186 q 315 -65 315 -123 q 293 88 315 11 q 220 -37 248 23 q 193 -131 193 -98 q 207 -172 193 -157 q 243 -186 220 -186 z "},"ƕ":{"ha":1221,"x_min":23,"x_max":1187,"o":"m 776 -14 q 589 39 652 -14 q 526 184 526 92 q 533 245 526 212 l 573 448 q 583 538 583 502 q 554 624 583 596 q 463 652 525 652 q 311 587 376 652 q 225 414 246 522 l 144 0 l 23 0 l 218 1006 l 340 1006 l 290 745 q 258 608 276 670 l 260 608 q 368 714 310 681 q 508 747 426 747 q 658 697 607 747 q 709 556 709 648 q 699 464 709 515 l 660 265 q 651 194 651 222 q 681 109 651 138 q 781 79 711 79 q 908 120 864 79 q 974 267 953 161 l 1065 734 l 1187 734 l 1093 248 q 988 47 1065 109 q 776 -14 910 -14 z "},"Ɩ":{"ha":309,"x_min":22,"x_max":340,"o":"m 22 0 l 218 1006 l 340 1006 l 144 0 l 22 0 z "},"Ɨ":{"ha":386,"x_min":33,"x_max":399,"o":"m 56 0 l 144 456 l 33 456 l 51 551 l 163 551 l 251 1006 l 373 1006 l 284 551 l 399 551 l 381 456 l 266 456 l 177 0 l 56 0 z "},"Ƙ":{"ha":926,"x_min":43,"x_max":977,"o":"m 421 966 q 507 952 465 966 l 486 844 q 427 857 455 857 q 355 830 382 857 q 315 741 328 804 l 265 487 l 360 574 l 811 956 l 977 956 l 469 528 l 846 0 l 693 0 l 373 457 l 244 370 l 172 0 l 43 0 l 191 766 q 265 916 210 865 q 421 966 319 966 z "},"ƙ":{"ha":694,"x_min":23,"x_max":753,"o":"m 489 0 l 307 340 l 193 256 l 144 0 l 23 0 l 184 828 q 254 967 201 918 q 390 1016 308 1016 q 475 1002 437 1016 l 455 899 q 401 913 423 913 q 334 880 359 913 q 296 782 309 848 l 219 385 l 357 513 l 602 734 l 753 734 l 393 418 l 621 0 l 489 0 z "},"ƚ":{"ha":309,"x_min":16,"x_max":338,"o":"m 18 0 l 106 452 l 16 452 l 35 543 l 123 543 l 214 1006 l 336 1006 l 245 543 l 338 543 l 319 452 l 227 452 l 140 0 l 18 0 z "},"ƛ":{"ha":684,"x_min":-62,"x_max":610,"o":"m 576 862 l 460 823 l 610 0 l 488 0 l 425 391 q 408 536 411 466 q 398 519 404 529 q 387 498 393 509 q 321 390 380 487 l 70 0 l -62 0 l 377 665 l 355 786 l 215 741 l 199 821 l 337 867 l 313 1006 l 427 1006 l 445 906 l 560 945 l 576 862 z "},"Ɯ":{"ha":1175,"x_min":52,"x_max":1203,"o":"m 706 -14 q 517 100 567 -14 q 401 12 455 37 q 283 -14 347 -14 q 111 43 170 -14 q 52 210 52 100 q 66 332 52 258 l 188 956 l 315 956 l 194 331 q 182 224 182 268 q 211 123 182 155 q 307 92 241 92 q 436 144 389 92 q 503 298 483 196 l 631 956 l 759 956 l 633 309 q 623 218 623 256 q 651 123 623 154 q 739 92 679 92 q 949 311 907 92 l 1075 956 l 1203 956 l 1048 157 q 1024 0 1034 90 l 910 0 l 923 99 q 827 16 884 46 q 706 -14 770 -14 z "},"Ɲ":{"ha":1003,"x_min":-160,"x_max":1004,"o":"m 669 0 l 309 821 q 281 640 286 667 l 142 -87 q 69 -240 121 -192 q -78 -288 17 -288 q -160 -273 -123 -288 l -140 -168 q -81 -180 -109 -180 q -8 -151 -36 -180 q 31 -60 19 -122 l 228 956 l 372 956 l 734 132 q 764 324 751 260 l 887 956 l 1004 956 l 819 0 l 669 0 z "},"ƞ":{"ha":772,"x_min":23,"x_max":709,"o":"m 430 -288 l 572 437 q 584 539 584 497 q 463 652 584 652 q 312 587 377 652 q 225 411 247 522 l 145 0 l 23 0 l 128 535 q 138 594 134 560 q 142 640 142 629 q 140 688 142 648 q 136 734 138 728 l 248 734 q 258 608 258 693 l 260 608 q 373 716 317 686 q 508 747 430 747 q 659 697 608 747 q 709 554 709 648 q 695 443 709 511 l 553 -288 l 430 -288 z "},"Ɵ":{"ha":1080,"x_min":75,"x_max":1042,"o":"m 636 970 q 852 921 760 970 q 993 783 944 873 q 1042 577 1042 694 q 1003 347 1042 456 q 888 155 964 237 q 708 30 813 73 q 481 -14 604 -14 q 182 93 288 -14 q 75 389 75 200 q 147 687 75 551 q 347 896 218 823 q 636 970 475 970 m 487 92 q 751 177 648 92 q 895 430 854 262 l 207 430 l 205 382 q 277 166 205 240 q 487 92 349 92 m 630 865 q 368 782 469 865 q 226 538 267 699 l 911 538 l 912 574 q 839 790 912 715 q 630 865 765 865 z "},"Ơ":{"ha":1127,"x_min":75,"x_max":1272,"o":"m 636 970 q 895 896 791 970 q 1029 688 998 822 q 1132 757 1099 720 q 1175 842 1164 793 l 1116 842 l 1139 956 l 1272 956 l 1257 884 q 1188 733 1237 791 q 1038 633 1139 675 q 1042 577 1042 599 q 1003 347 1042 456 q 888 155 964 237 q 708 30 813 73 q 481 -14 604 -14 q 182 93 288 -14 q 75 389 75 200 q 147 687 75 551 q 347 896 218 823 q 636 970 475 970 m 630 865 q 451 832 529 865 q 319 734 374 799 q 235 571 265 669 q 205 382 205 473 q 277 166 205 240 q 487 92 349 92 q 714 150 621 92 q 860 326 808 209 q 912 574 912 444 q 839 790 912 715 q 630 865 765 865 z "},"ơ":{"ha":840,"x_min":45,"x_max":934,"o":"m 333 -14 q 123 66 200 -14 q 45 284 45 145 q 92 521 45 410 q 223 689 138 632 q 435 747 309 747 q 646 679 570 747 q 728 488 721 612 q 838 625 820 538 l 778 625 l 802 738 l 934 738 l 919 666 q 857 524 901 581 q 727 427 813 467 q 694 257 723 345 q 616 109 666 170 q 494 17 566 47 q 333 -14 423 -14 m 602 463 q 434 657 602 657 q 287 610 342 657 q 201 467 232 563 q 171 282 171 372 q 214 129 171 182 q 340 77 258 77 q 453 100 410 77 q 527 173 495 123 q 579 300 559 223 q 602 463 599 378 z "},"Ƣ":{"ha":1206,"x_min":75,"x_max":1209,"o":"m 481 -14 q 182 93 288 -14 q 75 389 75 200 q 147 687 75 551 q 347 896 218 823 q 636 970 475 970 q 865 918 753 970 l 1180 965 l 1209 965 l 966 -288 l 844 -288 l 1061 828 l 907 829 l 755 49 q 616 0 680 14 q 481 -14 552 -14 m 786 833 q 630 865 722 865 q 451 832 529 865 q 319 734 374 799 q 235 571 265 669 q 205 382 205 473 q 276 166 205 241 q 486 92 348 92 q 648 123 578 92 l 786 833 z "},"ƣ":{"ha":927,"x_min":45,"x_max":905,"o":"m 333 -14 q 123 66 200 -14 q 45 284 45 145 q 92 521 45 410 q 223 689 138 632 q 435 747 309 747 q 639 695 547 747 l 876 741 l 905 741 l 705 -288 l 587 -288 l 764 623 l 635 623 l 518 26 q 333 -14 439 -14 m 522 644 q 434 657 479 657 q 287 610 342 657 q 201 467 232 563 q 171 282 171 372 q 214 129 171 182 q 340 77 258 77 q 414 84 382 77 l 522 644 z "},"Ƥ":{"ha":1015,"x_min":56,"x_max":1006,"o":"m 666 956 q 914 885 823 956 q 1006 692 1006 814 q 902 457 1006 543 q 620 372 799 372 l 332 372 l 260 0 l 131 0 l 296 855 l 286 855 q 191 821 222 855 q 159 724 159 786 l 162 690 l 62 678 q 56 718 56 698 q 118 894 56 833 q 296 956 179 956 l 666 956 m 353 475 l 615 475 q 874 686 874 475 q 821 809 874 766 q 663 852 767 852 l 426 852 l 353 475 z "},"ƥ":{"ha":772,"x_min":-35,"x_max":728,"o":"m 376 -14 q 240 22 292 -14 q 165 121 187 57 l 162 121 l 161 108 l 150 39 l 87 -288 l -35 -288 l 182 828 q 252 967 199 918 q 388 1016 306 1016 q 473 1002 435 1016 l 453 899 q 399 913 421 913 q 332 880 357 913 q 294 782 307 848 l 264 627 l 265 627 q 371 720 316 692 q 503 747 425 747 q 668 683 609 747 q 728 507 728 619 q 686 240 728 370 q 569 49 644 111 q 376 -14 493 -14 m 467 653 q 352 626 400 653 q 271 543 304 598 q 219 405 238 488 q 200 256 200 321 q 243 124 200 171 q 363 77 286 77 q 494 126 446 77 q 571 287 542 175 q 600 486 600 398 q 568 611 600 569 q 467 653 536 653 z "},"Ʀ":{"ha":926,"x_min":43,"x_max":906,"o":"m 661 -216 l 494 292 l 229 292 l 172 0 l 43 0 l 228 956 l 355 956 l 334 851 l 589 851 q 819 782 732 851 q 906 600 906 713 q 833 398 906 473 q 616 304 760 323 l 800 -216 l 661 -216 m 527 395 q 712 446 650 395 q 774 590 774 497 q 724 707 774 666 q 573 747 673 747 l 317 747 l 249 395 l 527 395 z "},"Ƨ":{"ha":926,"x_min":56,"x_max":903,"o":"m 778 743 q 725 839 778 806 q 574 872 672 872 q 401 832 469 872 q 294 704 332 791 l 172 726 q 328 914 233 859 q 585 970 423 970 q 819 911 734 970 q 903 746 903 852 q 887 647 903 689 q 842 575 871 606 q 773 524 813 545 q 687 488 734 503 q 515 448 640 473 l 442 434 q 244 358 304 407 q 185 233 185 310 q 245 125 185 163 q 410 87 306 87 q 559 110 496 87 q 665 177 621 132 q 744 306 708 221 l 863 274 q 687 53 799 119 q 402 -14 576 -14 q 147 51 237 -14 q 56 233 56 115 q 74 337 56 292 q 124 414 92 382 q 199 470 155 447 q 295 511 243 494 q 477 553 348 528 q 670 604 616 581 q 751 660 724 627 q 778 743 778 693 z "},"ƨ":{"ha":694,"x_min":30,"x_max":654,"o":"m 393 652 q 276 629 317 652 q 214 551 235 606 l 112 583 q 402 748 165 748 q 588 700 523 748 q 654 564 654 652 q 629 471 654 509 q 552 402 605 432 q 384 339 499 373 q 228 286 265 304 q 172 244 191 267 q 154 186 154 220 q 308 82 154 82 q 437 107 391 82 q 504 189 483 132 l 604 151 q 304 -14 551 -14 q 101 36 172 -14 q 30 182 30 86 q 58 286 30 243 q 144 361 86 330 q 326 428 201 393 q 451 469 407 450 q 515 509 496 488 q 534 565 534 530 q 497 630 534 608 q 393 652 460 652 z "},"Ʃ":{"ha":833,"x_min":-4,"x_max":870,"o":"m -4 0 l 18 116 l 460 510 l 173 852 l 193 956 l 870 956 l 850 850 l 314 850 l 574 540 l 558 462 l 159 106 l 747 106 l 726 0 l -4 0 z "},"ƪ":{"ha":463,"x_min":119,"x_max":433,"o":"m 119 867 q 165 973 119 933 q 283 1013 211 1013 q 395 976 357 1013 q 433 871 433 940 q 425 801 433 844 l 252 -84 q 249 -118 249 -103 q 313 -181 249 -181 q 387 -172 351 -181 l 366 -279 q 275 -288 319 -288 q 166 -248 205 -288 q 126 -137 126 -208 q 132 -77 126 -110 l 300 779 q 227 759 269 759 q 148 789 177 759 q 119 867 119 819 m 260 960 q 199 934 224 960 q 174 871 174 908 q 190 827 174 842 q 234 812 205 812 q 297 838 272 812 q 323 899 323 863 q 307 944 323 928 q 260 960 290 960 z "},"ƫ":{"ha":386,"x_min":10,"x_max":434,"o":"m 88 -288 q 10 -274 44 -288 l 30 -170 q 83 -184 62 -184 q 148 -153 126 -184 q 180 -55 169 -121 l 187 -14 l 186 -14 q 96 21 129 -14 q 63 113 63 56 q 73 201 63 150 l 159 645 l 74 645 l 92 734 l 178 734 l 249 898 l 330 898 l 298 734 l 434 734 l 416 645 l 281 645 l 196 208 q 188 143 188 167 q 249 83 188 83 q 317 93 277 83 l 287 -106 q 88 -288 259 -288 z "},"Ƭ":{"ha":848,"x_min":88,"x_max":930,"o":"m 582 850 l 416 0 l 288 0 l 453 850 l 316 850 q 191 724 191 850 l 194 690 l 94 678 q 88 718 88 698 q 150 894 88 833 q 328 956 211 956 l 930 956 l 910 850 l 582 850 z "},"ƭ":{"ha":386,"x_min":63,"x_max":486,"o":"m 186 -14 q 96 21 129 -14 q 63 113 63 56 q 73 201 63 150 l 159 645 l 74 645 l 92 734 l 177 734 l 196 827 q 265 965 214 914 q 401 1016 316 1016 q 486 1002 448 1016 l 466 899 q 412 913 434 913 q 345 880 370 913 q 307 779 321 847 l 298 734 l 434 734 l 416 645 l 281 645 l 196 208 q 188 143 188 167 q 249 83 188 83 q 317 93 277 83 l 304 3 q 186 -14 237 -14 z "},"Ʈ":{"ha":848,"x_min":125,"x_max":930,"o":"m 125 850 l 145 956 l 930 956 l 910 850 l 582 850 l 402 -74 q 397 -121 397 -101 q 452 -180 397 -180 q 526 -170 491 -180 l 505 -277 q 414 -288 457 -288 q 302 -251 340 -288 q 264 -146 264 -213 q 272 -79 264 -120 l 453 850 l 125 850 z "},"Ư":{"ha":1102,"x_min":104,"x_max":1247,"o":"m 444 -14 q 195 68 286 -14 q 104 292 104 149 q 119 431 104 353 l 221 956 l 351 956 l 241 384 q 229 287 229 325 q 289 143 229 195 q 454 92 348 92 q 767 367 715 92 l 881 956 l 1010 956 l 957 682 q 1151 842 1124 714 l 1091 842 l 1115 956 l 1247 956 l 1233 887 q 1139 704 1208 767 q 945 621 1070 641 l 895 359 q 746 82 860 177 q 444 -14 632 -14 z "},"ư":{"ha":880,"x_min":58,"x_max":962,"o":"m 281 734 l 196 296 q 184 195 184 237 q 305 81 184 81 q 456 146 391 81 q 543 323 521 212 l 623 734 l 745 734 l 690 456 q 805 516 758 474 q 865 621 852 559 l 806 621 l 829 734 l 962 734 l 947 665 q 858 484 924 551 q 678 393 792 417 q 629 144 648 236 q 606 0 611 52 l 490 0 q 497 53 490 7 q 509 125 505 98 l 507 125 q 394 17 451 47 q 260 -13 338 -13 q 109 37 159 -13 q 58 180 58 86 q 73 291 58 223 l 159 734 l 281 734 z "},"Ʊ":{"ha":1057,"x_min":82,"x_max":1070,"o":"m 488 -14 q 273 31 366 -14 q 132 162 181 77 q 82 361 82 247 q 181 672 82 546 q 469 857 281 798 q 323 850 357 850 l 151 850 l 172 956 l 571 956 l 542 804 q 294 642 378 751 q 210 376 210 532 q 284 166 210 241 q 493 90 359 90 q 679 138 596 90 q 807 273 762 185 q 853 480 853 361 q 809 669 853 591 q 669 804 766 747 l 699 956 l 1070 956 l 1050 850 l 912 850 q 752 857 876 850 q 922 694 862 796 q 983 467 983 592 q 920 217 983 327 q 743 46 857 106 q 488 -14 629 -14 z "},"Ʋ":{"ha":1003,"x_min":101,"x_max":959,"o":"m 416 -14 q 252 22 323 -14 q 140 126 180 58 q 101 286 101 193 q 113 395 101 338 l 221 956 l 351 956 l 239 373 q 230 288 230 329 q 282 142 230 192 q 434 92 334 92 q 590 144 519 92 q 712 299 661 197 q 797 541 764 402 q 829 743 829 679 q 742 856 829 856 q 671 849 706 856 l 686 956 q 775 963 730 963 q 913 908 867 963 q 959 751 959 852 q 925 523 959 683 q 824 239 891 363 q 653 51 757 115 q 416 -14 549 -14 z "},"Ƴ":{"ha":996,"x_min":144,"x_max":1133,"o":"m 975 964 q 1133 899 1061 964 l 1064 808 q 1019 840 1041 827 q 967 853 996 853 q 922 842 941 853 q 878 801 902 831 l 532 396 l 456 0 l 327 0 l 405 396 l 144 956 l 277 956 l 485 498 l 785 859 q 879 942 836 920 q 975 964 921 964 z "},"ƴ":{"ha":694,"x_min":-79,"x_max":1068,"o":"m 6 -288 q -79 -279 -37 -288 l -58 -188 q -2 -193 -33 -193 q 105 -152 56 -193 q 205 -22 155 -111 l 223 8 l 76 734 l 200 734 l 276 329 l 283 285 q 304 134 301 179 l 345 212 l 690 847 q 788 971 736 930 q 919 1012 841 1012 q 1068 949 1004 1012 l 1002 862 q 917 904 964 904 q 798 811 852 904 l 342 0 q 175 -228 247 -168 q 6 -288 103 -288 z "},"Ƶ":{"ha":848,"x_min":-27,"x_max":887,"o":"m 77 552 l 423 552 l 706 850 l 187 850 l 208 956 l 887 956 l 869 861 l 576 552 l 841 552 l 823 462 l 490 462 l 154 106 l 754 106 l 734 0 l -27 0 l -9 97 l 338 462 l 60 462 l 77 552 z "},"ƶ":{"ha":694,"x_min":-30,"x_max":699,"o":"m 50 418 l 310 418 l 529 640 l 121 640 l 140 734 l 699 734 l 680 641 l 459 418 l 663 418 l 646 328 l 370 328 l 138 94 l 599 94 l 581 0 l -30 0 l -12 93 l 222 328 l 33 328 l 50 418 z "},"Ʒ":{"ha":848,"x_min":-49,"x_max":880,"o":"m 701 850 l 168 850 l 189 956 l 880 956 l 858 846 l 450 514 q 679 411 600 497 q 757 182 757 325 q 726 -3 757 85 q 634 -156 695 -91 q 488 -255 574 -221 q 302 -289 403 -289 q 73 -227 163 -289 q -49 -44 -17 -165 l 65 -4 q 155 -145 95 -102 q 304 -188 214 -188 q 436 -160 376 -188 q 542 -78 497 -133 q 607 46 586 -24 q 628 182 628 115 q 552 358 628 298 q 332 419 477 419 l 278 419 l 296 515 l 701 850 z "},"Ƹ":{"ha":848,"x_min":-14,"x_max":882,"o":"m 574 419 l 535 419 q 228 316 340 419 q 115 35 115 212 q 173 -129 115 -70 q 327 -188 230 -188 q 633 -4 517 -188 l 728 -60 q 550 -238 646 -187 q 317 -289 454 -289 q 77 -202 167 -289 q -14 34 -14 -115 q 44 271 -14 166 q 208 439 102 376 q 453 514 315 502 l 170 846 l 192 956 l 882 956 l 861 850 l 310 850 l 592 515 l 574 419 z "},"ƹ":{"ha":694,"x_min":-44,"x_max":719,"o":"m 701 639 l 218 639 l 439 372 l 420 279 l 393 279 q 233 243 304 279 q 121 144 161 208 q 81 -2 81 79 q 127 -141 81 -89 q 248 -194 173 -194 q 394 -154 337 -194 q 484 -24 451 -115 l 596 -33 q 240 -290 519 -290 q 90 -254 155 -290 q -9 -153 26 -218 q -44 -6 -44 -87 q 47 241 -44 140 q 299 367 138 342 l 97 614 l 120 734 l 719 734 l 701 639 z "},"ƺ":{"ha":694,"x_min":-56,"x_max":715,"o":"m 608 -68 q 218 -289 509 -289 q 78 -266 141 -289 q -21 -201 15 -243 q -56 -101 -56 -158 q -39 -22 -56 -56 q 8 39 -22 13 q 91 87 38 65 q 261 135 144 109 q 396 171 356 155 q 457 206 435 186 q 479 254 479 226 q 453 307 479 289 q 369 333 427 324 q 220 342 311 342 l 238 437 l 519 639 l 108 639 l 126 734 l 715 734 l 699 653 l 384 432 q 544 380 489 422 q 599 269 599 338 q 511 113 599 168 q 413 73 470 88 q 290 43 355 58 q 214 24 253 34 q 143 0 175 15 q 90 -38 111 -15 q 70 -96 70 -61 q 112 -166 70 -141 q 237 -192 153 -192 q 494 -56 423 -192 l 608 -68 z "},"ƻ":{"ha":772,"x_min":-8,"x_max":752,"o":"m 112 509 l 508 509 q 597 610 570 559 q 624 721 624 661 q 582 828 624 787 q 467 869 539 869 q 338 829 393 869 q 258 708 283 789 l 143 733 q 264 909 180 848 q 475 970 348 970 q 675 903 598 970 q 752 731 752 837 q 655 509 752 610 l 751 509 l 732 416 l 549 416 q 437 341 495 378 q 326 268 379 305 q 226 190 272 230 q 151 104 180 150 l 644 104 l 624 0 l -8 0 l 8 86 q 92 200 45 149 q 198 297 140 251 q 374 416 256 342 l 94 416 l 112 509 z "},"Ƽ":{"ha":709,"x_min":-3,"x_max":740,"o":"m 281 -14 q 131 17 193 -14 q 34 103 68 47 q -3 234 -1 159 l 119 248 q 169 123 125 163 q 289 83 212 83 q 424 120 366 83 q 516 225 482 156 q 549 371 549 294 q 497 496 549 453 q 347 539 445 539 l 205 539 l 265 850 l 149 850 l 169 956 l 740 956 l 720 850 l 390 850 l 350 644 l 382 644 q 601 574 524 644 q 678 378 678 504 q 630 176 678 269 q 493 35 581 83 q 281 -14 404 -14 z "},"ƽ":{"ha":608,"x_min":-7,"x_max":627,"o":"m 247 77 q 379 120 329 77 q 429 242 429 164 q 384 341 429 310 q 251 373 339 373 l 144 373 l 196 639 l 79 639 l 98 734 l 627 734 l 608 639 l 306 639 l 273 467 l 302 467 q 488 412 420 467 q 555 259 555 357 q 473 59 555 132 q 244 -14 391 -14 q 57 44 121 -14 q -7 211 -7 102 l 109 219 q 148 115 110 154 q 247 77 186 77 z "},"ƾ":{"ha":694,"x_min":15,"x_max":610,"o":"m 303 645 l 289 572 q 282 516 282 541 q 306 462 282 481 q 391 427 330 443 q 524 376 482 401 q 587 315 565 351 q 610 227 610 279 q 529 48 610 111 q 291 -14 448 -14 q 90 32 156 -14 q 15 172 24 77 l 124 193 q 173 106 132 132 q 296 79 214 79 q 439 116 391 79 q 488 218 488 152 q 466 272 488 251 q 391 309 444 292 q 232 370 268 347 q 177 426 196 393 q 159 505 159 458 q 160 528 159 517 q 181 645 161 539 l 92 645 l 110 734 l 199 734 l 245 969 l 376 1022 l 321 734 l 446 734 l 429 645 l 303 645 z "},"ƿ":{"ha":772,"x_min":-35,"x_max":733,"o":"m 87 -288 l -35 -288 l 164 734 l 277 734 q 270 676 273 706 q 261 616 267 647 l 264 616 q 370 715 307 682 q 509 747 433 747 q 675 689 618 747 q 733 517 733 631 q 427 41 733 226 q 279 -31 357 -1 q 126 -85 201 -60 l 87 -288 m 603 508 q 465 653 603 653 q 304 581 368 653 q 215 370 241 509 l 146 14 q 412 146 319 75 q 554 312 505 218 q 603 508 603 406 z "},"ǀ":{"ha":361,"x_min":133,"x_max":255,"o":"m 133 0 l 133 1006 l 255 1006 l 255 0 l 133 0 z "},"ǁ":{"ha":574,"x_min":135,"x_max":466,"o":"m 135 0 l 135 1006 l 247 1006 l 247 0 l 135 0 m 354 0 l 354 1006 l 466 1006 l 466 0 l 354 0 z "},"ǂ":{"ha":811,"x_min":91,"x_max":747,"o":"m 91 699 l 359 699 l 359 1006 l 477 1006 l 477 699 l 747 699 l 747 595 l 477 595 l 477 386 l 747 386 l 747 282 l 477 282 l 477 0 l 359 0 l 359 282 l 91 282 l 91 386 l 359 386 l 359 595 l 91 595 l 91 699 z "},"ǃ":{"ha":386,"x_min":52,"x_max":372,"o":"m 223 269 l 123 269 l 239 956 l 372 956 l 223 269 m 52 0 l 79 136 l 211 136 l 184 0 l 52 0 z "},"Ǆ":{"ha":1851,"x_min":43,"x_max":1890,"o":"m 505 956 q 837 844 716 956 q 958 536 958 732 q 888 256 958 376 q 687 68 819 136 q 390 0 556 0 l 43 0 l 228 956 l 505 956 m 192 104 l 385 104 q 618 156 517 104 q 773 308 719 209 q 827 538 827 406 q 741 769 827 686 q 502 852 656 852 l 338 852 l 192 104 m 1737 0 l 976 0 l 994 97 l 1709 850 l 1190 850 l 1211 956 l 1890 956 l 1872 861 l 1157 106 l 1757 106 l 1737 0 m 1613 1038 l 1474 1038 l 1348 1200 l 1350 1214 l 1413 1214 l 1552 1120 l 1554 1120 l 1721 1214 l 1799 1214 l 1796 1200 l 1613 1038 z "},"ǅ":{"ha":1697,"x_min":43,"x_max":1691,"o":"m 505 956 q 837 844 716 956 q 958 536 958 732 q 888 256 958 376 q 687 68 819 136 q 390 0 556 0 l 43 0 l 228 956 l 505 956 m 192 104 l 385 104 q 618 156 517 104 q 773 308 719 209 q 827 538 827 406 q 741 769 827 686 q 502 852 656 852 l 338 852 l 192 104 m 995 0 l 1010 93 l 1514 640 l 1130 640 l 1147 734 l 1678 734 l 1662 641 l 1159 94 l 1580 94 l 1563 0 l 995 0 m 1500 814 l 1362 814 l 1239 998 l 1242 1011 l 1308 1011 l 1442 897 l 1444 897 l 1615 1011 l 1691 1011 l 1688 998 l 1500 814 z "},"ǆ":{"ha":1467,"x_min":47,"x_max":1460,"o":"m 272 -14 q 106 50 165 -14 q 47 226 47 114 q 89 493 47 363 q 206 684 130 622 q 399 747 281 747 q 535 711 482 747 q 609 612 587 676 l 612 612 l 631 722 l 687 1006 l 809 1006 l 643 151 q 617 0 623 56 l 500 0 q 515 109 500 35 l 511 109 q 407 15 462 44 q 272 -14 352 -14 m 307 80 q 422 107 374 80 q 503 190 470 135 q 555 329 536 245 q 574 477 574 412 q 531 609 574 562 q 412 656 488 656 q 281 607 329 656 q 203 447 233 558 q 174 248 174 335 q 206 122 174 164 q 307 80 238 80 m 1270 814 l 1131 814 l 1008 998 l 1011 1011 l 1077 1011 l 1212 897 l 1213 897 l 1384 1011 l 1460 1011 l 1457 998 l 1270 814 m 764 0 l 780 93 l 1283 640 l 899 640 l 916 734 l 1448 734 l 1432 641 l 928 94 l 1350 94 l 1333 0 l 764 0 z "},"Ǉ":{"ha":1467,"x_min":43,"x_max":1478,"o":"m 43 0 l 228 956 l 357 956 l 193 106 l 675 106 l 655 0 l 43 0 m 1031 -14 q 855 50 923 -14 q 769 233 787 113 l 883 255 q 937 134 899 176 q 1042 92 975 92 q 1158 141 1114 92 q 1222 298 1202 190 l 1329 850 l 1131 850 l 1152 956 l 1478 956 l 1347 287 q 1240 61 1318 135 q 1031 -14 1163 -14 z "},"ǈ":{"ha":1081,"x_min":43,"x_max":1113,"o":"m 43 0 l 228 956 l 357 956 l 193 106 l 675 106 l 655 0 l 43 0 m 968 890 l 991 1006 l 1113 1006 l 1090 890 l 968 890 m 705 -288 q 617 -279 667 -288 l 633 -186 q 689 -192 668 -192 q 749 -163 729 -192 q 781 -73 770 -135 l 938 734 l 1060 734 l 899 -91 q 831 -243 878 -198 q 705 -288 783 -288 z "},"ǉ":{"ha":617,"x_min":22,"x_max":649,"o":"m 22 0 l 218 1006 l 340 1006 l 144 0 l 22 0 m 505 890 l 527 1006 l 649 1006 l 627 890 l 505 890 m 241 -288 q 153 -279 203 -288 l 169 -186 q 225 -192 204 -192 q 286 -163 265 -192 q 317 -73 306 -135 l 474 734 l 596 734 l 435 -91 q 367 -243 414 -198 q 241 -288 319 -288 z "},"Ǌ":{"ha":1697,"x_min":43,"x_max":1708,"o":"m 669 0 l 309 821 q 281 640 294 705 l 158 0 l 43 0 l 228 956 l 372 956 l 734 132 q 764 324 751 260 l 887 956 l 1004 956 l 819 0 l 669 0 m 1261 -14 q 1085 50 1154 -14 q 1000 233 1017 113 l 1114 255 q 1167 134 1129 176 q 1273 92 1205 92 q 1388 141 1344 92 q 1453 298 1432 190 l 1559 850 l 1362 850 l 1382 956 l 1708 956 l 1577 287 q 1471 61 1548 135 q 1261 -14 1394 -14 z "},"ǋ":{"ha":1312,"x_min":43,"x_max":1343,"o":"m 669 0 l 309 821 q 281 640 294 705 l 158 0 l 43 0 l 228 956 l 372 956 l 734 132 q 764 324 751 260 l 887 956 l 1004 956 l 819 0 l 669 0 m 1199 890 l 1221 1006 l 1343 1006 l 1321 890 l 1199 890 m 935 -288 q 848 -279 897 -288 l 863 -186 q 920 -192 899 -192 q 980 -163 960 -192 q 1012 -73 1000 -135 l 1168 734 l 1291 734 l 1130 -91 q 1061 -243 1109 -198 q 935 -288 1014 -288 z "},"ǌ":{"ha":1081,"x_min":23,"x_max":1113,"o":"m 486 0 l 572 437 q 584 539 584 497 q 463 652 584 652 q 312 587 377 652 q 225 411 247 522 l 145 0 l 23 0 l 136 577 q 162 734 149 642 l 277 734 q 270 681 277 726 q 258 608 263 636 l 260 608 q 373 716 317 686 q 508 747 430 747 q 659 697 608 747 q 709 554 709 648 q 695 443 709 511 l 609 0 l 486 0 m 968 890 l 991 1006 l 1113 1006 l 1090 890 l 968 890 m 705 -288 q 617 -279 667 -288 l 633 -186 q 689 -192 668 -192 q 749 -163 729 -192 q 781 -73 770 -135 l 938 734 l 1060 734 l 899 -91 q 831 -243 878 -198 q 705 -288 783 -288 z "},"Ǎ":{"ha":926,"x_min":-68,"x_max":852,"o":"m 720 0 l 669 279 l 235 279 l 73 0 l -68 0 l 507 956 l 654 956 l 852 0 l 720 0 m 563 858 q 538 811 554 840 q 292 380 522 782 l 650 380 l 581 755 l 563 858 m 647 1038 l 509 1038 l 382 1200 l 385 1214 l 448 1214 l 587 1120 l 588 1120 l 755 1214 l 833 1214 l 831 1200 l 647 1038 z "},"ǎ":{"ha":772,"x_min":31,"x_max":725,"o":"m 629 -7 q 537 19 566 -7 q 508 97 508 45 l 511 140 l 507 140 q 391 21 451 55 q 245 -14 330 -14 q 91 43 150 -14 q 31 189 31 100 q 121 378 31 314 q 408 446 211 443 l 565 448 q 578 534 578 514 q 542 625 578 595 q 442 654 506 654 q 320 626 361 654 q 260 538 279 597 l 140 557 q 246 702 170 657 q 449 747 321 747 q 632 693 565 747 q 700 547 700 639 q 687 441 700 504 l 637 184 q 629 125 629 152 q 684 75 629 75 q 725 80 703 75 l 715 4 q 629 -7 671 -7 m 549 363 l 414 361 q 287 346 333 359 q 215 314 241 334 q 175 266 190 295 q 161 194 161 236 q 194 111 161 143 q 279 79 227 79 q 397 107 345 79 q 485 181 450 136 q 530 279 519 227 l 549 363 m 528 814 l 390 814 l 267 998 l 270 1011 l 336 1011 l 471 897 l 472 897 l 643 1011 l 719 1011 l 716 998 l 528 814 z "},"Ǐ":{"ha":386,"x_min":55,"x_max":574,"o":"m 55 0 l 241 956 l 370 956 l 184 0 l 55 0 m 387 1038 l 249 1038 l 122 1200 l 125 1214 l 188 1214 l 327 1120 l 328 1120 l 495 1214 l 574 1214 l 571 1200 l 387 1038 z "},"ǐ":{"ha":309,"x_min":23,"x_max":498,"o":"m 23 0 l 165 734 l 288 734 l 144 0 l 23 0 m 307 814 l 169 814 l 46 998 l 49 1011 l 115 1011 l 250 897 l 251 897 l 422 1011 l 498 1011 l 495 998 l 307 814 z "},"Ǒ":{"ha":1080,"x_min":75,"x_max":1042,"o":"m 636 970 q 933 863 824 970 q 1042 577 1042 757 q 966 263 1038 395 q 767 58 893 130 q 481 -14 641 -14 q 182 93 288 -14 q 75 389 75 200 q 147 687 75 551 q 347 896 218 823 q 636 970 475 970 m 630 865 q 400 805 494 865 q 255 625 305 745 q 205 382 205 505 q 277 166 205 240 q 487 92 349 92 q 714 150 621 92 q 860 326 808 209 q 912 574 912 444 q 839 790 912 715 q 630 865 765 865 m 714 1038 l 576 1038 l 449 1200 l 452 1214 l 515 1214 l 654 1120 l 655 1120 l 822 1214 l 901 1214 l 898 1200 l 714 1038 z "},"ǒ":{"ha":772,"x_min":45,"x_max":728,"o":"m 728 463 q 701 280 728 375 q 624 118 674 184 q 500 19 573 52 q 333 -14 427 -14 q 123 66 200 -14 q 45 284 45 146 q 96 530 48 422 q 227 692 143 637 q 435 747 311 747 q 653 672 578 747 q 728 463 728 598 m 602 463 q 434 657 602 657 q 287 610 342 657 q 201 467 232 563 q 171 282 171 372 q 214 129 171 182 q 340 77 258 77 q 453 100 410 77 q 527 173 495 123 q 579 300 559 223 q 602 463 599 378 m 523 814 l 385 814 l 262 998 l 264 1011 l 330 1011 l 465 897 l 467 897 l 637 1011 l 713 1011 l 711 998 l 523 814 z "},"Ǔ":{"ha":1003,"x_min":104,"x_max":1010,"o":"m 444 -14 q 195 68 286 -14 q 104 292 104 150 q 109 364 104 322 q 119 431 114 406 l 221 956 l 351 956 l 241 384 q 229 287 229 325 q 289 143 229 195 q 454 92 348 92 q 767 367 715 92 l 881 956 l 1010 956 l 895 359 q 744 80 858 174 q 444 -14 630 -14 m 679 1038 l 541 1038 l 414 1200 l 416 1214 l 479 1214 l 618 1120 l 620 1120 l 787 1214 l 865 1214 l 863 1200 l 679 1038 z "},"ǔ":{"ha":772,"x_min":58,"x_max":745,"o":"m 281 734 l 196 296 q 184 195 184 237 q 305 81 184 81 q 456 146 391 81 q 543 323 521 212 l 623 734 l 745 734 l 632 157 q 606 0 618 92 l 490 0 q 497 53 490 7 q 509 125 505 98 l 507 125 q 394 17 451 47 q 260 -13 338 -13 q 109 37 159 -13 q 58 180 58 86 q 73 291 58 223 l 159 734 l 281 734 m 533 814 l 395 814 l 272 998 l 275 1011 l 340 1011 l 475 897 l 477 897 l 648 1011 l 724 1011 l 721 998 l 533 814 z "},"Ǖ":{"ha":1003,"x_min":104,"x_max":1010,"o":"m 444 -14 q 195 68 286 -14 q 104 292 104 150 q 109 364 104 322 q 119 431 114 406 l 221 956 l 351 956 l 241 384 q 229 287 229 325 q 289 143 229 195 q 454 92 348 92 q 767 367 715 92 l 881 956 l 1010 956 l 895 359 q 744 80 858 174 q 444 -14 630 -14 m 709 989 l 734 1114 l 844 1114 l 820 989 l 709 989 m 416 989 l 440 1114 l 551 1114 l 526 989 l 416 989 m 836 1158 l 465 1158 l 481 1244 l 853 1244 l 836 1158 z "},"ǖ":{"ha":772,"x_min":58,"x_max":745,"o":"m 281 734 l 196 296 q 184 195 184 237 q 305 81 184 81 q 456 146 391 81 q 543 323 521 212 l 623 734 l 745 734 l 632 157 q 606 0 618 92 l 490 0 q 497 53 490 7 q 509 125 505 98 l 507 125 q 394 17 451 47 q 260 -13 338 -13 q 109 37 159 -13 q 58 180 58 86 q 73 291 58 223 l 159 734 l 281 734 m 540 827 l 564 951 l 681 951 l 657 827 l 540 827 m 279 827 l 303 951 l 422 951 l 398 827 l 279 827 m 694 1028 l 321 1028 l 339 1114 l 712 1114 l 694 1028 z "},"Ǘ":{"ha":1003,"x_min":104,"x_max":1010,"o":"m 444 -14 q 195 68 286 -14 q 104 292 104 150 q 109 364 104 322 q 119 431 114 406 l 221 956 l 351 956 l 241 384 q 229 287 229 325 q 289 143 229 195 q 454 92 348 92 q 767 367 715 92 l 881 956 l 1010 956 l 895 359 q 744 80 858 174 q 444 -14 630 -14 m 706 1244 l 859 1244 l 858 1236 l 659 1120 l 571 1120 l 572 1127 l 706 1244 m 705 982 l 730 1107 l 840 1107 l 816 982 l 705 982 m 412 982 l 436 1107 l 547 1107 l 522 982 l 412 982 z "},"ǘ":{"ha":772,"x_min":58,"x_max":755,"o":"m 281 734 l 196 296 q 184 195 184 237 q 305 81 184 81 q 456 146 391 81 q 543 323 521 212 l 623 734 l 745 734 l 632 157 q 606 0 618 92 l 490 0 q 497 53 490 7 q 509 125 505 98 l 507 125 q 394 17 451 47 q 260 -13 338 -13 q 109 37 159 -13 q 58 180 58 86 q 73 291 58 223 l 159 734 l 281 734 m 532 827 l 556 951 l 673 951 l 650 827 l 532 827 m 272 827 l 296 951 l 414 951 l 391 827 l 272 827 m 435 1004 l 437 1018 l 608 1213 l 755 1213 l 752 1193 l 498 1004 l 435 1004 z "},"Ǚ":{"ha":1003,"x_min":104,"x_max":1010,"o":"m 444 -14 q 195 68 286 -14 q 104 292 104 150 q 109 364 104 322 q 119 431 114 406 l 221 956 l 351 956 l 241 384 q 229 287 229 325 q 289 143 229 195 q 454 92 348 92 q 767 367 715 92 l 881 956 l 1010 956 l 895 359 q 744 80 858 174 q 444 -14 630 -14 m 764 1244 l 869 1244 l 867 1238 l 704 1120 l 572 1120 l 453 1236 l 454 1244 l 559 1244 l 648 1179 l 764 1244 m 702 982 l 726 1107 l 837 1107 l 812 982 l 702 982 m 408 982 l 433 1107 l 543 1107 l 519 982 l 408 982 z "},"ǚ":{"ha":772,"x_min":58,"x_max":762,"o":"m 281 734 l 196 296 q 184 195 184 237 q 305 81 184 81 q 456 146 391 81 q 543 323 521 212 l 623 734 l 745 734 l 632 157 q 606 0 618 92 l 490 0 q 497 53 490 7 q 509 125 505 98 l 507 125 q 394 17 451 47 q 260 -13 338 -13 q 109 37 159 -13 q 58 180 58 86 q 73 291 58 223 l 159 734 l 281 734 m 543 827 l 567 951 l 684 951 l 661 827 l 543 827 m 283 827 l 307 951 l 425 951 l 401 827 l 283 827 m 572 1004 l 433 1004 l 311 1187 l 313 1201 l 379 1201 l 514 1086 l 515 1086 l 686 1201 l 762 1201 l 760 1187 l 572 1004 z "},"Ǜ":{"ha":1003,"x_min":104,"x_max":1010,"o":"m 444 -14 q 195 68 286 -14 q 104 292 104 150 q 109 364 104 322 q 119 431 114 406 l 221 956 l 351 956 l 241 384 q 229 287 229 325 q 289 143 229 195 q 454 92 348 92 q 767 367 715 92 l 881 956 l 1010 956 l 895 359 q 744 80 858 174 q 444 -14 630 -14 m 718 1127 l 717 1120 l 629 1120 l 475 1236 l 476 1244 l 629 1244 l 718 1127 m 418 982 l 442 1107 l 553 1107 l 528 982 l 418 982 m 711 982 l 736 1107 l 846 1107 l 822 982 l 711 982 z "},"ǜ":{"ha":772,"x_min":58,"x_max":745,"o":"m 281 734 l 196 296 q 184 195 184 237 q 305 81 184 81 q 456 146 391 81 q 543 323 521 212 l 623 734 l 745 734 l 632 157 q 606 0 618 92 l 490 0 q 497 53 490 7 q 509 125 505 98 l 507 125 q 394 17 451 47 q 260 -13 338 -13 q 109 37 159 -13 q 58 180 58 86 q 73 291 58 223 l 159 734 l 281 734 m 530 827 l 554 951 l 671 951 l 648 827 l 530 827 m 270 827 l 294 951 l 412 951 l 389 827 l 270 827 m 486 1004 l 294 1193 l 298 1213 l 438 1213 l 547 1018 l 545 1004 l 486 1004 z "},"ǝ":{"ha":772,"x_min":44,"x_max":718,"o":"m 591 393 q 597 469 597 430 q 552 608 597 559 q 416 656 507 656 q 297 623 351 656 q 214 534 243 591 l 120 577 q 246 707 170 666 q 431 747 322 747 q 643 672 567 747 q 718 459 718 596 q 670 215 718 323 q 534 46 622 106 q 338 -14 447 -14 q 121 56 199 -14 q 44 254 44 126 q 60 393 44 325 l 591 393 m 168 299 l 165 250 q 209 121 165 166 q 335 77 253 77 q 488 135 426 77 q 575 299 550 193 l 168 299 z "},"Ǟ":{"ha":926,"x_min":-68,"x_max":852,"o":"m 720 0 l 669 279 l 235 279 l 73 0 l -68 0 l 507 956 l 654 956 l 852 0 l 720 0 m 563 858 q 538 811 554 840 q 292 380 522 782 l 650 380 l 581 755 l 563 858 m 675 1004 l 699 1128 l 810 1128 l 785 1004 l 675 1004 m 381 1004 l 406 1128 l 516 1128 l 492 1004 l 381 1004 m 802 1173 l 430 1173 l 447 1259 l 819 1259 l 802 1173 z "},"ǟ":{"ha":772,"x_min":31,"x_max":725,"o":"m 629 -7 q 537 19 566 -7 q 508 97 508 45 l 511 140 l 507 140 q 391 21 451 55 q 245 -14 330 -14 q 91 43 150 -14 q 31 189 31 100 q 121 378 31 314 q 408 446 211 443 l 565 448 q 578 534 578 514 q 542 625 578 595 q 442 654 506 654 q 320 626 361 654 q 260 538 279 597 l 140 557 q 246 702 170 657 q 449 747 321 747 q 632 693 565 747 q 700 547 700 639 q 687 441 700 504 l 637 184 q 629 125 629 152 q 684 75 629 75 q 725 80 703 75 l 715 4 q 629 -7 671 -7 m 549 363 l 414 361 q 287 346 333 359 q 215 314 241 334 q 175 266 190 295 q 161 194 161 236 q 194 111 161 143 q 279 79 227 79 q 397 107 345 79 q 485 181 450 136 q 530 279 519 227 l 549 363 m 543 827 l 566 951 l 684 951 l 660 827 l 543 827 m 282 827 l 306 951 l 425 951 l 401 827 l 282 827 m 698 1028 l 325 1028 l 342 1114 l 715 1114 l 698 1028 z "},"Ǡ":{"ha":926,"x_min":-68,"x_max":852,"o":"m 720 0 l 669 279 l 235 279 l 73 0 l -68 0 l 507 956 l 654 956 l 852 0 l 720 0 m 563 858 q 538 811 554 840 q 292 380 522 782 l 650 380 l 581 755 l 563 858 m 528 996 l 552 1120 l 662 1120 l 637 996 l 528 996 m 804 1158 l 432 1158 l 449 1244 l 821 1244 l 804 1158 z "},"ǡ":{"ha":772,"x_min":31,"x_max":725,"o":"m 629 -7 q 537 19 566 -7 q 508 97 508 45 l 511 140 l 507 140 q 391 21 451 55 q 245 -14 330 -14 q 91 43 150 -14 q 31 189 31 100 q 121 378 31 314 q 408 446 211 443 l 565 448 q 578 534 578 514 q 542 625 578 595 q 442 654 506 654 q 320 626 361 654 q 260 538 279 597 l 140 557 q 246 702 170 657 q 449 747 321 747 q 632 693 565 747 q 700 547 700 639 q 687 441 700 504 l 637 184 q 629 125 629 152 q 684 75 629 75 q 725 80 703 75 l 715 4 q 629 -7 671 -7 m 549 363 l 414 361 q 287 346 333 359 q 215 314 241 334 q 175 266 190 295 q 161 194 161 236 q 194 111 161 143 q 279 79 227 79 q 397 107 345 79 q 485 181 450 136 q 530 279 519 227 l 549 363 m 398 836 l 421 952 l 543 952 l 520 836 l 398 836 m 684 1028 l 311 1028 l 328 1114 l 701 1114 l 684 1028 z "},"Ǣ":{"ha":1389,"x_min":-55,"x_max":1402,"o":"m 585 0 l 640 279 l 272 279 l 83 0 l -55 0 l 595 956 l 1402 956 l 1381 850 l 880 850 l 821 543 l 1281 543 l 1261 439 l 800 439 l 736 106 l 1265 106 l 1244 0 l 585 0 m 752 856 l 650 856 l 557 709 l 339 380 l 660 380 l 752 856 m 1182 1066 l 809 1066 l 827 1152 l 1200 1152 l 1182 1066 z "},"ǣ":{"ha":1235,"x_min":22,"x_max":1184,"o":"m 671 341 q 665 264 667 317 q 706 126 665 174 q 830 78 748 78 q 937 109 889 78 q 1015 199 985 140 l 1108 157 q 988 27 1060 67 q 815 -14 916 -14 q 648 34 713 -14 q 560 168 584 81 q 413 30 494 74 q 235 -14 332 -14 q 122 12 171 -14 q 48 84 74 38 q 22 189 22 131 q 114 378 22 314 q 408 446 205 442 l 569 448 q 582 534 582 514 q 441 654 582 654 q 314 626 357 654 q 251 538 271 597 l 130 557 q 240 702 162 657 q 451 747 319 747 q 671 640 602 747 q 905 747 755 747 q 1111 677 1038 747 q 1184 480 1184 606 q 1179 406 1184 448 q 1168 341 1174 364 l 671 341 m 552 362 l 412 359 q 258 338 313 357 q 177 284 203 320 q 151 194 151 248 q 183 111 151 142 q 267 79 214 79 q 394 110 336 79 q 491 192 452 140 q 541 302 530 243 l 552 362 m 1060 435 l 1063 484 q 1023 612 1063 568 q 907 657 983 657 q 767 600 824 657 q 687 435 710 542 l 1060 435 m 895 838 l 522 838 l 540 924 l 913 924 l 895 838 z "},"Ǥ":{"ha":1080,"x_min":81,"x_max":1074,"o":"m 986 297 l 1074 297 l 1057 209 l 968 209 l 956 142 q 753 24 861 61 q 516 -14 646 -14 q 195 92 309 -14 q 81 389 81 198 q 153 691 81 557 q 354 897 224 824 q 653 970 485 970 q 900 913 804 970 q 1034 745 997 856 l 903 708 q 812 825 878 786 q 645 864 746 864 q 417 806 515 864 q 267 640 319 747 q 214 391 214 532 q 294 170 214 248 q 520 92 374 92 q 703 119 616 92 q 848 197 790 147 l 850 209 l 566 209 l 583 297 l 867 297 l 885 385 l 600 385 l 621 494 l 1026 494 l 986 297 z "},"ǥ":{"ha":772,"x_min":-40,"x_max":760,"o":"m 596 -63 q 478 -234 558 -179 q 269 -288 398 -288 q 5 -127 41 -288 l 117 -102 q 272 -195 140 -195 q 398 -164 350 -195 q 473 -63 447 -132 l -40 -63 l -28 0 l 492 0 l 528 184 l 527 184 q 417 74 475 106 q 288 42 360 42 q 117 106 182 42 q 52 275 52 171 q 78 458 52 361 q 147 619 103 555 q 253 715 191 684 q 399 747 316 747 q 535 709 479 747 q 610 608 591 672 l 612 608 q 629 681 616 633 q 644 734 641 728 l 760 734 l 755 713 q 727 582 740 653 l 614 0 l 659 0 l 646 -63 l 596 -63 m 180 286 q 218 172 180 211 q 326 132 256 132 q 453 179 395 132 q 543 307 511 225 q 574 477 574 389 q 531 609 574 562 q 412 656 488 656 q 284 611 332 656 q 208 466 236 565 q 180 286 180 366 z "},"Ǧ":{"ha":1080,"x_min":68,"x_max":1021,"o":"m 503 -14 q 182 92 296 -14 q 68 389 68 198 q 140 691 68 557 q 341 897 211 824 q 640 970 472 970 q 887 913 791 970 q 1021 745 983 856 l 890 708 q 799 825 865 786 q 632 864 733 864 q 404 806 502 864 q 254 640 306 747 q 201 391 201 532 q 281 170 201 248 q 507 92 361 92 q 686 118 601 92 q 835 197 772 145 l 869 370 l 584 370 l 606 478 l 1010 478 l 943 142 q 740 24 848 61 q 503 -14 633 -14 m 708 1038 l 570 1038 l 443 1200 l 446 1214 l 509 1214 l 648 1120 l 649 1120 l 816 1214 l 895 1214 l 892 1200 l 708 1038 z "},"ǧ":{"ha":772,"x_min":3,"x_max":760,"o":"m 269 -288 q 3 -117 39 -288 l 113 -89 q 272 -195 137 -195 q 421 -145 368 -195 q 496 18 474 -96 l 519 136 l 517 136 q 443 50 475 76 q 371 9 411 23 q 278 -5 330 -5 q 111 63 174 -5 q 47 243 47 131 q 73 438 47 334 q 142 612 98 543 q 250 714 186 681 q 399 747 313 747 q 537 708 481 747 q 610 608 594 669 l 612 608 q 629 681 616 633 q 644 734 641 728 l 760 734 l 747 678 l 727 582 l 618 21 q 501 -216 585 -143 q 269 -288 417 -288 m 176 253 q 211 128 176 171 q 316 85 247 85 q 449 138 389 85 q 542 284 509 191 q 574 477 574 377 q 531 609 574 562 q 412 656 488 656 q 310 631 351 656 q 241 553 269 606 q 195 410 214 499 q 176 253 176 321 m 493 814 l 355 814 l 232 998 l 235 1011 l 300 1011 l 435 897 l 437 897 l 608 1011 l 684 1011 l 681 998 l 493 814 z "},"Ǩ":{"ha":926,"x_min":43,"x_max":977,"o":"m 693 0 l 373 457 l 244 370 l 172 0 l 43 0 l 228 956 l 357 956 l 265 487 l 360 574 l 811 956 l 977 956 l 469 528 l 846 0 l 693 0 m 647 1038 l 509 1038 l 382 1200 l 385 1214 l 448 1214 l 587 1120 l 588 1120 l 755 1214 l 833 1214 l 831 1200 l 647 1038 z "},"ǩ":{"ha":694,"x_min":23,"x_max":753,"o":"m 489 0 l 307 340 l 193 256 l 144 0 l 23 0 l 218 1006 l 340 1006 l 219 385 l 357 513 l 602 734 l 753 734 l 393 418 l 621 0 l 489 0 m 489 1053 l 351 1053 l 228 1236 l 231 1249 l 296 1249 l 431 1135 l 433 1135 l 604 1249 l 680 1249 l 677 1236 l 489 1053 z "},"Ǫ":{"ha":1080,"x_min":75,"x_max":1042,"o":"m 636 970 q 933 863 824 970 q 1042 577 1042 757 q 966 263 1038 395 q 767 58 893 130 q 481 -14 641 -14 q 182 93 288 -14 q 75 389 75 200 q 147 687 75 551 q 347 896 218 823 q 636 970 475 970 m 630 865 q 400 805 494 865 q 255 625 305 745 q 205 382 205 505 q 277 166 205 240 q 487 92 349 92 q 714 150 621 92 q 860 326 808 209 q 912 574 912 444 q 839 790 912 715 q 630 865 765 865 m 500 -290 q 410 -258 440 -290 q 379 -176 379 -226 q 418 -72 379 -119 q 518 0 456 -24 l 608 0 q 511 -75 545 -33 q 477 -160 477 -117 q 491 -199 477 -183 q 530 -215 505 -215 q 608 -200 567 -215 l 597 -271 q 500 -290 552 -290 z "},"ǫ":{"ha":772,"x_min":45,"x_max":728,"o":"m 728 463 q 701 280 728 375 q 624 118 674 184 q 500 19 573 52 q 333 -14 427 -14 q 123 66 200 -14 q 45 284 45 146 q 96 530 48 422 q 227 692 143 637 q 435 747 311 747 q 653 672 578 747 q 728 463 728 598 m 602 463 q 434 657 602 657 q 287 610 342 657 q 201 467 232 563 q 171 282 171 372 q 214 129 171 182 q 340 77 258 77 q 453 100 410 77 q 527 173 495 123 q 579 300 559 223 q 602 463 599 378 m 332 -290 q 242 -258 273 -290 q 212 -176 212 -226 q 250 -72 212 -119 q 351 0 289 -24 l 441 0 q 344 -75 378 -33 q 310 -160 310 -117 q 323 -199 310 -183 q 363 -215 337 -215 q 440 -200 399 -215 l 430 -271 q 332 -290 385 -290 z "},"Ǭ":{"ha":1080,"x_min":75,"x_max":1042,"o":"m 636 970 q 933 863 824 970 q 1042 577 1042 757 q 966 263 1038 395 q 767 58 893 130 q 481 -14 641 -14 q 182 93 288 -14 q 75 389 75 200 q 147 687 75 551 q 347 896 218 823 q 636 970 475 970 m 630 865 q 400 805 494 865 q 255 625 305 745 q 205 382 205 505 q 277 166 205 240 q 487 92 349 92 q 714 150 621 92 q 860 326 808 209 q 912 574 912 444 q 839 790 912 715 q 630 865 765 865 m 492 -290 q 402 -258 433 -290 q 372 -176 372 -226 q 410 -72 372 -119 q 511 0 449 -24 l 601 0 q 504 -75 538 -33 q 470 -160 470 -117 q 484 -199 470 -183 q 523 -215 497 -215 q 600 -200 559 -215 l 590 -271 q 492 -290 545 -290 m 857 1076 l 484 1076 l 501 1162 l 874 1162 l 857 1076 z "},"ǭ":{"ha":772,"x_min":45,"x_max":728,"o":"m 728 463 q 701 280 728 375 q 624 118 674 184 q 500 19 573 52 q 333 -14 427 -14 q 123 66 200 -14 q 45 284 45 146 q 96 530 48 422 q 227 692 143 637 q 435 747 311 747 q 653 672 578 747 q 728 463 728 598 m 602 463 q 434 657 602 657 q 287 610 342 657 q 201 467 232 563 q 171 282 171 372 q 214 129 171 182 q 340 77 258 77 q 453 100 410 77 q 527 173 495 123 q 579 300 559 223 q 602 463 599 378 m 335 -289 q 245 -257 275 -289 q 214 -175 214 -225 q 253 -71 214 -119 q 353 1 292 -23 l 444 1 q 347 -74 380 -32 q 313 -159 313 -117 q 326 -198 313 -182 q 366 -214 340 -214 q 443 -199 402 -214 l 433 -271 q 335 -289 387 -289 m 669 838 l 296 838 l 313 924 l 686 924 l 669 838 z "},"Ǯ":{"ha":848,"x_min":-49,"x_max":880,"o":"m 701 850 l 168 850 l 189 956 l 880 956 l 858 846 l 450 514 q 679 411 600 497 q 757 182 757 325 q 726 -3 757 85 q 634 -156 695 -91 q 488 -255 574 -221 q 302 -289 403 -289 q 73 -227 163 -289 q -49 -44 -17 -165 l 65 -4 q 155 -145 95 -102 q 304 -188 214 -188 q 436 -160 376 -188 q 542 -78 497 -133 q 607 46 586 -24 q 628 182 628 115 q 552 358 628 298 q 332 419 477 419 l 278 419 l 296 515 l 701 850 m 581 1038 l 443 1038 l 316 1200 l 319 1214 l 382 1214 l 521 1120 l 522 1120 l 689 1214 l 768 1214 l 765 1200 l 581 1038 z "},"ǯ":{"ha":694,"x_min":-71,"x_max":698,"o":"m 139 734 l 698 734 l 675 613 l 374 366 q 535 280 475 352 q 594 100 594 208 q 547 -95 594 -3 q 413 -238 500 -187 q 210 -288 326 -288 q 12 -237 83 -288 q -71 -83 -60 -185 l 46 -69 q 214 -193 66 -193 q 349 -153 290 -193 q 440 -41 408 -113 q 472 100 472 31 q 419 231 472 183 q 277 279 366 279 l 221 279 l 240 376 l 552 638 l 121 638 l 139 734 m 489 814 l 351 814 l 228 998 l 231 1011 l 296 1011 l 431 897 l 433 897 l 604 1011 l 680 1011 l 677 998 l 489 814 z "},"ǰ":{"ha":309,"x_min":-155,"x_max":496,"o":"m -68 -288 q -155 -279 -106 -288 l -140 -186 q -83 -192 -104 -192 q -23 -163 -43 -192 q 9 -73 -3 -135 l 165 734 l 288 734 l 127 -91 q 58 -243 106 -198 q -68 -288 11 -288 m 305 814 l 167 814 l 44 998 l 47 1011 l 113 1011 l 248 897 l 249 897 l 420 1011 l 496 1011 l 493 998 l 305 814 z "},"Ǳ":{"ha":1851,"x_min":43,"x_max":1890,"o":"m 505 956 q 837 844 716 956 q 958 536 958 732 q 888 256 958 376 q 687 68 819 136 q 390 0 556 0 l 43 0 l 228 956 l 505 956 m 192 104 l 385 104 q 618 156 517 104 q 773 308 719 209 q 827 538 827 406 q 741 769 827 686 q 502 852 656 852 l 338 852 l 192 104 m 1737 0 l 976 0 l 994 97 l 1709 850 l 1190 850 l 1211 956 l 1890 956 l 1872 861 l 1157 106 l 1757 106 l 1737 0 z "},"ǲ":{"ha":1697,"x_min":43,"x_max":1678,"o":"m 505 956 q 837 844 716 956 q 958 536 958 732 q 888 256 958 376 q 687 68 819 136 q 390 0 556 0 l 43 0 l 228 956 l 505 956 m 192 104 l 385 104 q 618 156 517 104 q 773 308 719 209 q 827 538 827 406 q 741 769 827 686 q 502 852 656 852 l 338 852 l 192 104 m 995 0 l 1010 93 l 1514 640 l 1130 640 l 1147 734 l 1678 734 l 1662 641 l 1159 94 l 1580 94 l 1563 0 l 995 0 z "},"ǳ":{"ha":1467,"x_min":47,"x_max":1448,"o":"m 272 -14 q 106 50 165 -14 q 47 226 47 114 q 89 493 47 363 q 206 684 130 622 q 399 747 281 747 q 535 711 482 747 q 609 612 587 676 l 612 612 l 631 722 l 687 1006 l 809 1006 l 643 151 q 617 0 623 56 l 500 0 q 515 109 500 35 l 511 109 q 407 15 462 44 q 272 -14 352 -14 m 307 80 q 422 107 374 80 q 503 190 470 135 q 555 329 536 245 q 574 477 574 412 q 531 609 574 562 q 412 656 488 656 q 281 607 329 656 q 203 447 233 558 q 174 248 174 335 q 206 122 174 164 q 307 80 238 80 m 764 0 l 780 93 l 1283 640 l 899 640 l 916 734 l 1448 734 l 1432 641 l 928 94 l 1350 94 l 1333 0 l 764 0 z "},"Ǵ":{"ha":1080,"x_min":68,"x_max":1021,"o":"m 503 -14 q 182 92 296 -14 q 68 389 68 198 q 140 691 68 557 q 341 897 211 824 q 640 970 472 970 q 887 913 791 970 q 1021 745 983 856 l 890 708 q 799 825 865 786 q 632 864 733 864 q 404 806 502 864 q 254 640 306 747 q 201 391 201 532 q 281 170 201 248 q 507 92 361 92 q 686 118 601 92 q 835 197 772 145 l 869 370 l 584 370 l 606 478 l 1010 478 l 943 142 q 740 24 848 61 q 503 -14 633 -14 m 590 1038 l 592 1051 l 769 1204 l 909 1204 l 906 1185 l 667 1038 l 590 1038 z "},"ǵ":{"ha":772,"x_min":3,"x_max":760,"o":"m 269 -288 q 3 -117 39 -288 l 113 -89 q 272 -195 137 -195 q 421 -145 368 -195 q 496 18 474 -96 l 519 136 l 517 136 q 443 50 475 76 q 371 9 411 23 q 278 -5 330 -5 q 111 63 174 -5 q 47 243 47 131 q 73 438 47 334 q 142 612 98 543 q 250 714 186 681 q 399 747 313 747 q 537 708 481 747 q 610 608 594 669 l 612 608 q 629 681 616 633 q 644 734 641 728 l 760 734 l 747 678 l 727 582 l 618 21 q 501 -216 585 -143 q 269 -288 417 -288 m 176 253 q 211 128 176 171 q 316 85 247 85 q 449 138 389 85 q 542 284 509 191 q 574 477 574 377 q 531 609 574 562 q 412 656 488 656 q 310 631 351 656 q 241 553 269 606 q 195 410 214 499 q 176 253 176 321 m 371 814 l 373 828 l 545 1023 l 692 1023 l 688 1003 l 435 814 l 371 814 z "},"Ƕ":{"ha":1436,"x_min":43,"x_max":1417,"o":"m 863 200 q 1003 79 863 79 q 1136 122 1088 79 q 1204 267 1183 165 l 1294 734 l 1417 734 l 1322 248 q 1216 48 1295 110 q 996 -14 1136 -14 q 804 41 871 -14 q 736 195 736 96 q 743 258 736 227 l 779 443 l 258 443 l 172 0 l 43 0 l 229 956 l 358 956 l 279 551 l 800 551 l 878 956 l 1004 956 l 871 267 q 863 200 863 228 z "},"Ƿ":{"ha":858,"x_min":-16,"x_max":855,"o":"m 113 -288 l -16 -288 l 226 956 l 351 956 l 328 840 q 593 970 443 970 q 787 902 719 970 q 855 710 855 834 q 762 389 855 554 q 503 89 668 224 q 149 -109 337 -45 l 113 -288 m 723 704 q 684 822 723 780 q 564 865 644 865 q 441 830 499 865 q 341 734 382 795 q 286 604 300 673 l 171 7 q 441 179 310 58 q 647 443 572 299 q 723 704 723 586 z "},"Ǹ":{"ha":1003,"x_min":43,"x_max":1004,"o":"m 669 0 l 309 821 q 281 640 294 705 l 158 0 l 43 0 l 228 956 l 372 956 l 734 132 q 764 324 751 260 l 887 956 l 1004 956 l 819 0 l 669 0 m 625 1038 l 426 1185 l 429 1204 l 570 1204 l 687 1051 l 685 1038 l 625 1038 z "},"ǹ":{"ha":772,"x_min":23,"x_max":709,"o":"m 486 0 l 572 437 q 584 539 584 497 q 463 652 584 652 q 312 587 377 652 q 225 411 247 522 l 145 0 l 23 0 l 136 577 q 162 734 149 642 l 277 734 q 270 681 277 726 q 258 608 263 636 l 260 608 q 373 716 317 686 q 508 747 430 747 q 659 697 608 747 q 709 554 709 648 q 695 443 709 511 l 609 0 l 486 0 m 451 814 l 260 1003 l 263 1023 l 404 1023 l 513 828 l 511 814 l 451 814 z "},"Ǻ":{"ha":926,"x_min":-68,"x_max":857,"o":"m 720 0 l 669 279 l 235 279 l 73 0 l -68 0 l 507 956 l 654 956 l 852 0 l 720 0 m 563 858 q 538 811 554 840 q 292 380 522 782 l 650 380 l 581 755 l 563 858 m 745 1048 q 696 932 745 981 q 581 884 648 884 q 465 932 513 884 q 416 1048 416 981 q 465 1164 416 1117 q 581 1212 513 1212 q 696 1164 648 1212 q 745 1048 745 1116 m 671 1048 q 646 1114 671 1088 q 581 1139 620 1139 q 515 1113 541 1139 q 489 1048 489 1086 q 515 983 489 1011 q 581 956 541 956 q 646 983 620 956 q 671 1048 671 1010 m 537 1242 l 539 1255 l 716 1409 l 857 1409 l 853 1389 l 614 1242 l 537 1242 z "},"ǻ":{"ha":772,"x_min":31,"x_max":784,"o":"m 629 -7 q 537 19 566 -7 q 508 97 508 45 l 511 140 l 507 140 q 391 21 451 55 q 245 -14 330 -14 q 91 43 150 -14 q 31 189 31 100 q 121 378 31 314 q 408 446 211 443 l 565 448 q 578 534 578 514 q 542 625 578 595 q 442 654 506 654 q 320 626 361 654 q 260 538 279 597 l 140 557 q 246 702 170 657 q 449 747 321 747 q 632 693 565 747 q 700 547 700 639 q 687 441 700 504 l 637 184 q 629 125 629 152 q 684 75 629 75 q 725 80 703 75 l 715 4 q 629 -7 671 -7 m 549 363 l 414 361 q 287 346 333 359 q 215 314 241 334 q 175 266 190 295 q 161 194 161 236 q 194 111 161 143 q 279 79 227 79 q 397 107 345 79 q 485 181 450 136 q 530 279 519 227 l 549 363 m 652 956 q 604 840 652 888 q 488 792 555 792 q 372 840 420 792 q 323 956 323 888 q 372 1072 323 1025 q 488 1120 420 1120 q 603 1072 555 1120 q 652 956 652 1024 m 578 956 q 553 1021 578 996 q 488 1047 527 1047 q 422 1020 448 1047 q 396 956 396 994 q 422 891 396 919 q 488 863 448 863 q 553 890 527 863 q 578 956 578 918 m 465 1160 l 467 1174 l 644 1327 l 784 1327 l 781 1308 l 542 1160 l 465 1160 z "},"Ǽ":{"ha":1389,"x_min":-55,"x_max":1402,"o":"m 585 0 l 640 279 l 272 279 l 83 0 l -55 0 l 595 956 l 1402 956 l 1381 850 l 880 850 l 821 543 l 1281 543 l 1261 439 l 800 439 l 736 106 l 1265 106 l 1244 0 l 585 0 m 752 856 l 650 856 l 557 709 l 339 380 l 660 380 l 752 856 m 857 1038 l 859 1051 l 1036 1204 l 1177 1204 l 1173 1185 l 935 1038 l 857 1038 z "},"ǽ":{"ha":1235,"x_min":22,"x_max":1184,"o":"m 671 341 q 665 264 667 317 q 706 126 665 174 q 830 78 748 78 q 937 109 889 78 q 1015 199 985 140 l 1108 157 q 988 27 1060 67 q 815 -14 916 -14 q 648 34 713 -14 q 560 168 584 81 q 413 30 494 74 q 235 -14 332 -14 q 122 12 171 -14 q 48 84 74 38 q 22 189 22 131 q 114 378 22 314 q 408 446 205 442 l 569 448 q 582 534 582 514 q 441 654 582 654 q 314 626 357 654 q 251 538 271 597 l 130 557 q 240 702 162 657 q 451 747 319 747 q 671 640 602 747 q 905 747 755 747 q 1111 677 1038 747 q 1184 480 1184 606 q 1179 406 1184 448 q 1168 341 1174 364 l 671 341 m 552 362 l 412 359 q 258 338 313 357 q 177 284 203 320 q 151 194 151 248 q 183 111 151 142 q 267 79 214 79 q 394 110 336 79 q 491 192 452 140 q 541 302 530 243 l 552 362 m 1060 435 l 1063 484 q 1023 612 1063 568 q 907 657 983 657 q 767 600 824 657 q 687 435 710 542 l 1060 435 m 606 814 l 608 828 l 779 1023 l 926 1023 l 923 1003 l 669 814 l 606 814 z "},"Ǿ":{"ha":1080,"x_min":-38,"x_max":1147,"o":"m 965 817 q 1035 577 1035 719 q 959 263 1031 395 q 760 58 886 130 q 474 -14 634 -14 q 199 71 303 -14 l 90 -36 l -38 -36 l 138 136 q 68 389 68 237 q 140 687 68 551 q 340 896 212 823 q 629 970 468 970 q 903 884 798 970 l 1017 994 l 1147 994 l 965 817 m 623 865 q 393 805 488 865 q 248 625 298 745 q 198 382 198 505 q 229 225 198 290 l 819 802 q 623 865 745 865 m 905 574 q 874 728 905 665 l 284 153 q 480 92 355 92 q 708 150 614 92 q 853 326 802 209 q 905 574 905 444 m 580 1038 l 582 1051 l 759 1204 l 899 1204 l 896 1185 l 657 1038 l 580 1038 z "},"ǿ":{"ha":848,"x_min":30,"x_max":817,"o":"m 136 98 q 85 284 85 172 q 135 530 87 422 q 267 692 182 637 q 475 747 351 747 q 656 701 585 747 l 703 757 l 817 757 l 718 642 q 768 463 768 572 q 750 317 768 391 q 372 -10 675 -10 q 197 38 268 -10 l 143 -26 l 30 -26 l 136 98 m 210 282 q 220 196 210 233 l 587 621 q 473 657 544 657 q 327 610 382 657 q 241 467 271 563 q 210 282 210 372 m 642 463 q 632 543 642 508 l 266 117 q 380 80 309 80 q 525 125 472 80 q 607 262 577 170 q 642 463 637 354 m 413 814 l 415 828 l 587 1023 l 734 1023 l 730 1003 l 477 814 l 413 814 z "},"Ȁ":{"ha":926,"x_min":-68,"x_max":852,"o":"m 720 0 l 669 279 l 235 279 l 73 0 l -68 0 l 507 956 l 654 956 l 852 0 l 720 0 m 563 858 q 538 811 554 840 q 292 380 522 782 l 650 380 l 581 755 l 563 858 m 452 1038 l 284 1207 l 287 1227 l 425 1227 l 515 1051 l 513 1038 l 452 1038 m 676 1038 l 509 1207 l 511 1227 l 649 1227 l 740 1051 l 737 1038 l 676 1038 z "},"ȁ":{"ha":772,"x_min":31,"x_max":725,"o":"m 629 -7 q 537 19 566 -7 q 508 97 508 45 l 511 140 l 507 140 q 391 21 451 55 q 245 -14 330 -14 q 91 43 150 -14 q 31 189 31 100 q 121 378 31 314 q 408 446 211 443 l 565 448 q 578 534 578 514 q 542 625 578 595 q 442 654 506 654 q 320 626 361 654 q 260 538 279 597 l 140 557 q 246 702 170 657 q 449 747 321 747 q 632 693 565 747 q 700 547 700 639 q 687 441 700 504 l 637 184 q 629 125 629 152 q 684 75 629 75 q 725 80 703 75 l 715 4 q 629 -7 671 -7 m 549 363 l 414 361 q 287 346 333 359 q 215 314 241 334 q 175 266 190 295 q 161 194 161 236 q 194 111 161 143 q 279 79 227 79 q 397 107 345 79 q 485 181 450 136 q 530 279 519 227 l 549 363 m 359 815 l 191 985 l 194 1004 l 332 1004 l 422 829 l 420 815 l 359 815 m 583 815 l 416 985 l 418 1004 l 556 1004 l 647 829 l 644 815 l 583 815 z "},"Ȃ":{"ha":926,"x_min":-68,"x_max":852,"o":"m 720 0 l 669 279 l 235 279 l 73 0 l -68 0 l 507 956 l 654 956 l 852 0 l 720 0 m 563 858 q 538 811 554 840 q 292 380 522 782 l 650 380 l 581 755 l 563 858 m 619 1214 q 740 1171 696 1214 q 784 1051 783 1128 l 783 1038 l 712 1038 q 682 1103 711 1079 q 603 1127 652 1127 q 517 1105 557 1127 q 458 1038 477 1083 l 388 1038 q 476 1166 414 1118 q 619 1214 537 1214 z "},"ȃ":{"ha":772,"x_min":31,"x_max":725,"o":"m 629 -7 q 537 19 566 -7 q 508 97 508 45 l 511 140 l 507 140 q 391 21 451 55 q 245 -14 330 -14 q 91 43 150 -14 q 31 189 31 100 q 121 378 31 314 q 408 446 211 443 l 565 448 q 578 534 578 514 q 542 625 578 595 q 442 654 506 654 q 320 626 361 654 q 260 538 279 597 l 140 557 q 246 702 170 657 q 449 747 321 747 q 632 693 565 747 q 700 547 700 639 q 687 441 700 504 l 637 184 q 629 125 629 152 q 684 75 629 75 q 725 80 703 75 l 715 4 q 629 -7 671 -7 m 549 363 l 414 361 q 287 346 333 359 q 215 314 241 334 q 175 266 190 295 q 161 194 161 236 q 194 111 161 143 q 279 79 227 79 q 397 107 345 79 q 485 181 450 136 q 530 279 519 227 l 549 363 m 500 994 q 621 951 578 994 q 665 831 665 908 l 665 818 l 593 818 q 563 883 592 859 q 484 907 534 907 q 399 885 439 907 q 340 818 359 863 l 269 818 q 357 946 296 899 q 500 994 418 994 z "},"Ȅ":{"ha":926,"x_min":43,"x_max":939,"o":"m 43 0 l 228 956 l 939 956 l 919 850 l 337 850 l 277 543 l 819 543 l 798 439 l 257 439 l 193 106 l 802 106 l 782 0 l 43 0 m 502 1038 l 334 1208 l 337 1227 l 475 1227 l 566 1052 l 563 1038 l 502 1038 m 726 1038 l 559 1208 l 562 1227 l 699 1227 l 790 1052 l 787 1038 l 726 1038 z "},"ȅ":{"ha":772,"x_min":47,"x_max":721,"o":"m 174 341 q 168 264 170 317 q 213 126 168 174 q 349 78 258 78 q 468 111 414 78 q 551 199 522 143 l 645 157 q 519 27 595 68 q 334 -14 443 -14 q 122 62 198 -14 q 47 275 47 138 q 95 519 47 411 q 231 687 143 627 q 427 747 318 747 q 644 677 566 747 q 721 480 721 608 q 705 341 721 409 l 174 341 m 597 435 l 600 484 q 556 612 600 568 q 430 657 512 657 q 277 599 339 657 q 190 435 215 541 l 597 435 m 344 808 l 176 977 l 179 997 l 317 997 l 408 821 l 405 808 l 344 808 m 568 808 l 401 977 l 404 997 l 541 997 l 632 821 l 629 808 l 568 808 z "},"Ȇ":{"ha":926,"x_min":43,"x_max":939,"o":"m 43 0 l 228 956 l 939 956 l 919 850 l 337 850 l 277 543 l 819 543 l 798 439 l 257 439 l 193 106 l 802 106 l 782 0 l 43 0 m 631 1214 q 752 1171 709 1214 q 796 1051 795 1128 l 795 1038 l 724 1038 q 694 1103 723 1079 q 615 1127 665 1127 q 530 1105 570 1127 q 471 1038 490 1083 l 400 1038 q 488 1166 427 1118 q 631 1214 549 1214 z "},"ȇ":{"ha":772,"x_min":47,"x_max":721,"o":"m 174 341 q 168 264 170 317 q 213 126 168 174 q 349 78 258 78 q 468 111 414 78 q 551 199 522 143 l 645 157 q 519 27 595 68 q 334 -14 443 -14 q 122 62 198 -14 q 47 275 47 138 q 95 519 47 411 q 231 687 143 627 q 427 747 318 747 q 644 677 566 747 q 721 480 721 608 q 705 341 721 409 l 174 341 m 597 435 l 600 484 q 556 612 600 568 q 430 657 512 657 q 277 599 339 657 q 190 435 215 541 l 597 435 m 488 994 q 608 951 565 994 q 652 831 652 908 l 652 818 l 581 818 q 550 883 579 859 q 471 907 521 907 q 386 885 426 907 q 327 818 346 863 l 256 818 q 344 946 283 899 q 488 994 406 994 z "},"Ȉ":{"ha":386,"x_min":40,"x_max":496,"o":"m 55 0 l 241 956 l 370 956 l 184 0 l 55 0 m 208 1038 l 40 1207 l 43 1227 l 180 1227 l 271 1051 l 269 1038 l 208 1038 m 432 1038 l 264 1207 l 267 1227 l 405 1227 l 496 1051 l 493 1038 l 432 1038 z "},"ȉ":{"ha":386,"x_min":20,"x_max":476,"o":"m 60 0 l 203 734 l 325 734 l 182 0 l 60 0 m 188 808 l 20 977 l 23 997 l 161 997 l 252 821 l 249 808 l 188 808 m 412 808 l 245 977 l 248 997 l 385 997 l 476 821 l 473 808 l 412 808 z "},"Ȋ":{"ha":386,"x_min":55,"x_max":519,"o":"m 55 0 l 241 956 l 370 956 l 184 0 l 55 0 m 355 1214 q 475 1171 432 1214 q 519 1051 519 1128 l 519 1038 l 448 1038 q 417 1103 446 1079 q 338 1127 388 1127 q 253 1105 293 1127 q 194 1038 213 1083 l 123 1038 q 211 1166 150 1118 q 355 1214 273 1214 z "},"ȋ":{"ha":386,"x_min":60,"x_max":477,"o":"m 60 0 l 203 734 l 325 734 l 182 0 l 60 0 m 312 994 q 433 951 389 994 q 477 831 476 908 l 476 818 l 405 818 q 374 883 404 859 q 296 907 345 907 q 210 885 250 907 q 151 818 170 863 l 81 818 q 169 946 107 899 q 312 994 230 994 z "},"Ȍ":{"ha":1080,"x_min":75,"x_max":1042,"o":"m 636 970 q 933 863 824 970 q 1042 577 1042 757 q 966 263 1038 395 q 767 58 893 130 q 481 -14 641 -14 q 182 93 288 -14 q 75 389 75 200 q 147 687 75 551 q 347 896 218 823 q 636 970 475 970 m 630 865 q 400 805 494 865 q 255 625 305 745 q 205 382 205 505 q 277 166 205 240 q 487 92 349 92 q 714 150 621 92 q 860 326 808 209 q 912 574 912 444 q 839 790 912 715 q 630 865 765 865 m 526 1038 l 358 1207 l 361 1227 l 498 1227 l 589 1051 l 587 1038 l 526 1038 m 750 1038 l 583 1207 l 585 1227 l 723 1227 l 814 1051 l 811 1038 l 750 1038 z "},"ȍ":{"ha":772,"x_min":45,"x_max":728,"o":"m 728 463 q 701 280 728 375 q 624 118 674 184 q 500 19 573 52 q 333 -14 427 -14 q 123 66 200 -14 q 45 284 45 146 q 96 530 48 422 q 227 692 143 637 q 435 747 311 747 q 653 672 578 747 q 728 463 728 598 m 602 463 q 434 657 602 657 q 287 610 342 657 q 201 467 232 563 q 171 282 171 372 q 214 129 171 182 q 340 77 258 77 q 453 100 410 77 q 527 173 495 123 q 579 300 559 223 q 602 463 599 378 m 344 808 l 176 977 l 179 997 l 317 997 l 408 821 l 405 808 l 344 808 m 568 808 l 401 977 l 404 997 l 541 997 l 632 821 l 629 808 l 568 808 z "},"Ȏ":{"ha":1080,"x_min":75,"x_max":1042,"o":"m 636 970 q 933 863 824 970 q 1042 577 1042 757 q 966 263 1038 395 q 767 58 893 130 q 481 -14 641 -14 q 182 93 288 -14 q 75 389 75 200 q 147 687 75 551 q 347 896 218 823 q 636 970 475 970 m 630 865 q 400 805 494 865 q 255 625 305 745 q 205 382 205 505 q 277 166 205 240 q 487 92 349 92 q 714 150 621 92 q 860 326 808 209 q 912 574 912 444 q 839 790 912 715 q 630 865 765 865 m 673 1214 q 793 1171 750 1214 q 838 1051 837 1128 l 837 1038 l 766 1038 q 735 1103 764 1079 q 656 1127 706 1127 q 571 1105 611 1127 q 512 1038 531 1083 l 441 1038 q 529 1166 468 1118 q 673 1214 591 1214 z "},"ȏ":{"ha":772,"x_min":45,"x_max":728,"o":"m 728 463 q 701 280 728 375 q 624 118 674 184 q 500 19 573 52 q 333 -14 427 -14 q 123 66 200 -14 q 45 284 45 146 q 96 530 48 422 q 227 692 143 637 q 435 747 311 747 q 653 672 578 747 q 728 463 728 598 m 602 463 q 434 657 602 657 q 287 610 342 657 q 201 467 232 563 q 171 282 171 372 q 214 129 171 182 q 340 77 258 77 q 453 100 410 77 q 527 173 495 123 q 579 300 559 223 q 602 463 599 378 m 481 994 q 602 951 558 994 q 646 831 645 908 l 645 818 l 574 818 q 543 883 572 859 q 465 907 514 907 q 379 885 419 907 q 320 818 339 863 l 250 818 q 337 946 276 899 q 481 994 399 994 z "},"Ȑ":{"ha":1003,"x_min":43,"x_max":960,"o":"m 713 0 l 548 397 l 249 397 l 172 0 l 43 0 l 228 956 l 643 956 q 874 886 788 956 q 960 705 960 817 q 887 503 960 577 q 671 408 814 428 l 852 0 l 713 0 m 581 499 q 766 550 704 499 q 829 694 829 602 q 778 811 829 770 q 627 852 728 852 l 338 852 l 269 499 l 581 499 m 455 1038 l 288 1207 l 290 1227 l 428 1227 l 519 1051 l 516 1038 l 455 1038 m 680 1038 l 512 1207 l 515 1227 l 652 1227 l 743 1051 l 741 1038 l 680 1038 z "},"ȑ":{"ha":463,"x_min":23,"x_max":515,"o":"m 487 636 q 426 645 457 645 q 297 570 355 645 q 220 382 240 496 l 145 0 l 23 0 l 133 563 l 150 656 l 162 734 l 277 734 l 254 584 l 256 584 q 345 711 301 674 q 445 747 388 747 q 509 738 476 747 l 487 636 m 227 808 l 59 977 l 62 997 l 199 997 l 290 821 l 288 808 l 227 808 m 451 808 l 283 977 l 286 997 l 424 997 l 515 821 l 512 808 l 451 808 z "},"Ȓ":{"ha":1003,"x_min":43,"x_max":960,"o":"m 713 0 l 548 397 l 249 397 l 172 0 l 43 0 l 228 956 l 643 956 q 874 886 788 956 q 960 705 960 817 q 887 503 960 577 q 671 408 814 428 l 852 0 l 713 0 m 581 499 q 766 550 704 499 q 829 694 829 602 q 778 811 829 770 q 627 852 728 852 l 338 852 l 269 499 l 581 499 m 614 1215 q 734 1172 691 1215 q 779 1052 778 1128 l 778 1038 l 707 1038 q 676 1104 705 1080 q 597 1128 647 1128 q 512 1106 552 1128 q 453 1038 472 1084 l 382 1038 q 470 1167 409 1119 q 614 1215 532 1215 z "},"ȓ":{"ha":463,"x_min":23,"x_max":549,"o":"m 487 636 q 426 645 457 645 q 297 570 355 645 q 220 382 240 496 l 145 0 l 23 0 l 133 563 l 150 656 l 162 734 l 277 734 l 254 584 l 256 584 q 345 711 301 674 q 445 747 388 747 q 509 738 476 747 l 487 636 m 385 994 q 505 951 462 994 q 549 831 549 908 l 549 818 l 477 818 q 447 883 476 859 q 368 907 418 907 q 283 885 323 907 q 224 818 243 863 l 153 818 q 241 946 180 899 q 385 994 302 994 z "},"Ȕ":{"ha":1003,"x_min":104,"x_max":1010,"o":"m 444 -14 q 195 68 286 -14 q 104 292 104 150 q 109 364 104 322 q 119 431 114 406 l 221 956 l 351 956 l 241 384 q 229 287 229 325 q 289 143 229 195 q 454 92 348 92 q 767 367 715 92 l 881 956 l 1010 956 l 895 359 q 744 80 858 174 q 444 -14 630 -14 m 507 1038 l 339 1207 l 342 1227 l 479 1227 l 570 1051 l 568 1038 l 507 1038 m 731 1038 l 564 1207 l 566 1227 l 704 1227 l 795 1051 l 792 1038 l 731 1038 z "},"ȕ":{"ha":772,"x_min":58,"x_max":745,"o":"m 281 734 l 196 296 q 184 195 184 237 q 305 81 184 81 q 456 146 391 81 q 543 323 521 212 l 623 734 l 745 734 l 632 157 q 606 0 618 92 l 490 0 q 497 53 490 7 q 509 125 505 98 l 507 125 q 394 17 451 47 q 260 -13 338 -13 q 109 37 159 -13 q 58 180 58 86 q 73 291 58 223 l 159 734 l 281 734 m 354 808 l 186 977 l 189 997 l 327 997 l 418 821 l 415 808 l 354 808 m 578 808 l 411 977 l 414 997 l 551 997 l 642 821 l 640 808 l 578 808 z "},"Ȗ":{"ha":1003,"x_min":104,"x_max":1010,"o":"m 444 -14 q 195 68 286 -14 q 104 292 104 150 q 109 364 104 322 q 119 431 114 406 l 221 956 l 351 956 l 241 384 q 229 287 229 325 q 289 143 229 195 q 454 92 348 92 q 767 367 715 92 l 881 956 l 1010 956 l 895 359 q 744 80 858 174 q 444 -14 630 -14 m 660 1214 q 781 1171 737 1214 q 825 1051 824 1128 l 824 1038 l 753 1038 q 722 1103 751 1079 q 644 1127 693 1127 q 558 1105 598 1127 q 499 1038 518 1083 l 429 1038 q 516 1166 455 1118 q 660 1214 578 1214 z "},"ȗ":{"ha":772,"x_min":58,"x_max":745,"o":"m 281 734 l 196 296 q 184 195 184 237 q 305 81 184 81 q 456 146 391 81 q 543 323 521 212 l 623 734 l 745 734 l 632 157 q 606 0 618 92 l 490 0 q 497 53 490 7 q 509 125 505 98 l 507 125 q 394 17 451 47 q 260 -13 338 -13 q 109 37 159 -13 q 58 180 58 86 q 73 291 58 223 l 159 734 l 281 734 m 492 994 q 613 951 570 994 q 657 831 656 908 l 656 818 l 585 818 q 555 883 584 859 q 476 907 526 907 q 391 885 431 907 q 332 818 351 863 l 261 818 q 349 946 288 899 q 492 994 410 994 z "},"Ș":{"ha":926,"x_min":39,"x_max":911,"o":"m 418 -14 q 156 46 249 -14 q 39 229 62 106 l 159 254 q 241 127 178 167 q 427 88 304 88 q 644 133 576 88 q 713 269 713 177 q 693 341 713 314 q 626 391 673 369 q 463 446 578 413 q 289 511 347 477 q 202 592 232 545 q 173 706 173 640 q 277 900 173 829 q 559 970 381 970 q 798 918 708 970 q 911 768 888 867 l 794 733 q 714 838 772 804 q 558 872 656 872 q 303 712 303 872 q 320 646 303 671 q 377 601 338 620 q 535 549 417 581 q 725 479 667 513 q 814 396 783 445 q 845 277 845 348 q 740 62 845 137 q 418 -14 635 -14 m 393 -309 l 314 -309 q 403 -180 391 -240 l 343 -180 l 365 -66 l 497 -66 l 484 -138 q 449 -237 472 -197 q 393 -309 427 -277 z "},"ș":{"ha":694,"x_min":3,"x_max":666,"o":"m 615 215 q 531 46 615 105 q 288 -14 447 -14 q 101 26 170 -14 q 3 151 31 66 l 103 189 q 173 102 125 130 q 299 75 220 75 q 446 108 396 75 q 496 204 496 141 q 462 274 496 246 q 315 337 427 302 q 185 393 229 366 q 119 456 142 420 q 96 541 96 492 q 174 692 96 639 q 396 745 253 745 q 666 572 636 745 l 555 555 q 499 633 541 609 q 388 656 458 656 q 259 630 304 656 q 214 554 214 603 q 228 506 214 526 q 269 471 242 486 q 393 425 296 456 q 523 370 479 398 q 591 304 566 342 q 615 215 615 267 m 267 -309 l 188 -309 q 277 -180 265 -240 l 217 -180 l 239 -66 l 371 -66 l 357 -138 q 323 -237 346 -197 q 267 -309 300 -277 z "},"Ț":{"ha":848,"x_min":125,"x_max":930,"o":"m 582 850 l 416 0 l 288 0 l 453 850 l 125 850 l 145 956 l 930 956 l 910 850 l 582 850 m 302 -309 l 222 -309 q 311 -180 300 -240 l 252 -180 l 273 -66 l 406 -66 l 392 -138 q 358 -237 380 -197 q 302 -309 335 -277 z "},"ț":{"ha":386,"x_min":40,"x_max":434,"o":"m 186 -14 q 96 21 129 -14 q 63 113 63 56 q 73 201 63 150 l 159 645 l 74 645 l 92 734 l 178 734 l 249 898 l 330 898 l 298 734 l 434 734 l 416 645 l 281 645 l 196 208 q 188 143 188 167 q 249 83 188 83 q 317 93 277 83 l 304 3 q 186 -14 237 -14 m 119 -309 l 40 -309 q 129 -180 117 -240 l 69 -180 l 91 -66 l 223 -66 l 210 -138 q 175 -237 198 -197 q 119 -309 153 -277 z "},"Ȝ":{"ha":757,"x_min":-47,"x_max":743,"o":"m -47 -290 l -26 -177 q 388 11 243 -106 q 532 283 532 129 q 501 397 532 358 q 48 206 361 303 l 71 323 q 487 501 360 409 q 614 716 614 593 q 570 822 614 783 q 450 861 527 861 q 317 831 374 861 q 205 730 260 802 l 114 791 q 272 929 191 888 q 465 970 352 970 q 667 904 591 970 q 743 729 743 838 q 601 467 743 574 q 663 292 663 391 q 483 -56 663 92 q -47 -290 304 -203 z "},"ȝ":{"ha":606,"x_min":-71,"x_max":581,"o":"m -71 -289 l -52 -184 q 277 -50 176 -132 q 379 151 379 33 q 353 248 379 216 q 206 188 305 222 q 10 134 106 155 l 30 234 q 260 306 192 277 q 370 369 328 335 q 436 444 413 403 q 459 536 459 486 q 430 624 459 591 q 346 657 400 657 q 241 626 286 657 q 162 526 197 595 l 56 559 q 169 700 96 652 q 355 747 242 747 q 522 694 463 747 q 581 547 581 640 q 553 421 581 475 q 456 315 524 366 q 504 155 504 247 q 361 -120 504 -8 q -71 -289 219 -232 z "},"Ȟ":{"ha":1003,"x_min":43,"x_max":1004,"o":"m 692 0 l 779 443 l 258 443 l 172 0 l 43 0 l 229 956 l 358 956 l 279 551 l 800 551 l 878 956 l 1004 956 l 819 0 l 692 0 m 697 1038 l 559 1038 l 432 1200 l 435 1214 l 498 1214 l 637 1120 l 638 1120 l 805 1214 l 884 1214 l 881 1200 l 697 1038 z "},"ȟ":{"ha":772,"x_min":23,"x_max":747,"o":"m 260 608 q 373 716 316 686 q 507 747 429 747 q 658 697 608 747 q 709 554 709 648 q 694 443 709 511 l 608 0 l 486 0 l 571 437 q 583 539 583 497 q 462 652 583 652 q 311 587 376 652 q 224 411 246 522 l 144 0 l 23 0 l 218 1006 l 340 1006 l 290 745 q 258 608 277 677 l 260 608 m 557 1060 l 418 1060 l 296 1243 l 298 1257 l 364 1257 l 499 1142 l 500 1142 l 671 1257 l 747 1257 l 745 1243 l 557 1060 z "},"Ƞ":{"ha":929,"x_min":43,"x_max":884,"o":"m 568 -288 l 747 627 q 756 711 756 674 q 720 824 756 785 q 599 864 683 864 q 467 827 534 864 q 351 730 399 791 q 290 604 303 669 l 173 0 l 43 0 l 187 741 l 226 956 l 350 956 q 322 785 342 894 l 325 785 q 466 924 386 878 q 637 969 545 969 q 820 909 755 969 q 884 727 884 848 q 873 613 884 675 l 696 -288 l 568 -288 z "},"ȡ":{"ha":872,"x_min":47,"x_max":864,"o":"m 272 -14 q 106 50 165 -14 q 47 226 47 114 q 89 493 47 363 q 206 684 130 622 q 399 747 281 747 q 535 711 482 747 q 609 612 587 676 l 612 612 l 631 722 l 687 1006 l 809 1006 l 643 151 l 623 43 q 703 59 665 59 q 822 17 780 59 q 864 -99 864 -26 q 809 -238 864 -188 q 658 -288 755 -288 q 543 -253 587 -288 q 486 -157 499 -217 q 367 -276 431 -208 l 298 -210 q 489 -30 390 -105 l 517 115 l 515 115 q 408 16 465 46 q 272 -14 352 -14 m 307 80 q 422 107 374 80 q 503 190 470 135 q 555 329 536 245 q 574 477 574 412 q 531 609 574 562 q 412 656 488 656 q 279 605 328 656 q 202 443 230 554 q 174 248 174 331 q 206 122 174 164 q 307 80 238 80 m 665 -191 q 730 -169 704 -191 q 755 -105 755 -146 q 738 -57 755 -75 q 690 -39 720 -39 q 595 -73 643 -39 l 591 -109 q 611 -169 591 -146 q 665 -191 631 -191 z "},"Ȣ":{"ha":840,"x_min":45,"x_max":829,"o":"m 556 970 q 758 910 687 966 q 829 755 829 854 q 765 590 829 659 q 600 502 702 522 l 599 499 q 722 433 678 484 q 766 303 766 382 q 657 71 766 155 q 362 -14 547 -14 q 128 51 211 -14 q 45 226 45 115 q 113 408 45 334 q 300 500 180 481 l 300 503 q 151 659 151 546 q 242 819 151 762 q 497 876 334 876 l 480 788 q 326 750 377 786 q 275 653 275 714 q 322 575 275 602 q 460 548 370 548 q 593 575 539 548 q 674 648 646 602 q 702 751 702 694 q 663 841 702 806 q 538 879 624 876 l 556 970 m 372 81 q 569 140 498 81 q 640 304 640 198 q 590 417 640 378 q 440 456 539 456 q 245 395 319 456 q 172 236 172 334 q 223 120 172 159 q 372 81 275 81 z "},"ȣ":{"ha":840,"x_min":65,"x_max":800,"o":"m 467 593 q 576 618 530 593 q 650 695 623 644 q 677 806 677 746 q 605 934 677 888 l 666 1010 q 800 806 800 940 q 745 643 800 712 q 591 545 689 574 l 590 542 q 699 469 660 523 q 737 340 737 416 q 633 81 737 175 q 353 -14 530 -14 q 141 53 217 -14 q 65 235 65 119 q 97 382 65 316 q 184 493 128 448 q 313 555 241 538 l 313 557 q 191 729 191 607 q 420 1010 191 921 l 463 934 q 313 728 313 862 q 354 628 313 663 q 467 593 395 593 m 439 504 q 310 469 366 504 q 222 372 254 433 q 191 238 191 310 q 366 82 191 82 q 498 115 442 82 q 585 207 555 148 q 615 340 615 265 q 568 459 615 415 q 439 504 521 504 z "},"Ȥ":{"ha":848,"x_min":-27,"x_max":887,"o":"m 706 850 l 187 850 l 208 956 l 887 956 l 869 861 l 154 106 l 565 106 q 687 68 643 106 q 732 -40 732 31 q 692 -180 732 -111 l 595 -150 q 623 -63 623 -99 q 602 -15 623 -30 q 536 0 581 0 l -27 0 l -9 97 l 706 850 z "}}}
